<svg width="206" height="214" viewBox="0 0 206 214" fill="none" xmlns="http://www.w3.org/2000/svg">
<path d="M37.4954 20.1726L39.0703 17.173L41.02 15.2232C41.8949 14.1983 43.7047 12.1186 43.9447 11.9986C44.2446 11.8486 50.6938 12.9735 50.9938 12.7485C51.2338 12.5685 49.619 11.4237 50.4689 11.0237L54.8183 10.0488L55.7932 8.99896H58.9428C60.0177 8.99896 61.7025 9.74887 61.9425 9.74887C62.1825 9.74887 63.0423 9.27393 63.5923 9.74887L67.7918 12.0736L70.6414 15.0732L73.2661 18.2978L76.1158 21.2975L78.0655 27.0718L79.1154 27.3717L80.1653 28.4966L81.5151 29.5465L82.19 30.2964L83.9898 31.1213L84.0648 32.2461L86.0146 35.3208L86.8395 35.6957L87.8893 36.5956L89.1642 37.8705L89.6891 38.3204L93.3637 41.32L95.0135 43.2698L97.4132 47.2443L98.613 50.3939L99.3629 52.8686H99.8129L100.413 54.2185H101.088L102.063 54.8184L103.337 56.0932L104.687 57.3681V59.6178L106.337 62.4675L106.787 63.0674L107.162 65.2421L107.987 67.3419L108.437 68.6167V70.2665L107.987 71.3164L108.437 76.1908L107.837 77.8406L108.212 78.4405V82.3401V85.0397L109.262 86.4646L109.937 87.9644L109.787 91.414L109.262 93.4387L108.887 97.1883L107.687 99.213L107.837 100.038V101.163L108.437 103.038V104.162L107.987 105.212L108.287 105.662V106.862L107.837 107.687L107.687 109.037L107.162 109.862L106.862 110.987L106.112 111.212L105.287 110.987L104.612 110.762V111.512V112.336L104.237 112.936V113.536L103.487 114.061L102.588 114.511L101.613 114.811H98.763C98.0631 114.586 96.6483 114.121 96.5883 114.061C96.5283 114.001 95.5134 113.536 95.0135 113.311L93.8136 112.711L92.9887 111.512L92.6138 110.987V109.862L92.1638 109.337L90.964 107.687L91.4139 104.462L91.7889 102.138L90.964 101.463L90.364 99.588V95.2385L90.964 94.2636V93.4387L91.5639 92.2389L90.964 91.114L90.2141 89.7642V87.9644L89.9891 87.1395L89.6141 84.6648H88.8642C88.6142 84.3398 88.1143 83.6599 88.1143 83.5399C88.1143 83.4199 87.6144 82.3901 87.3644 81.8901L87.0644 82.1901C87.2894 82.89 87.7393 84.3198 87.7393 84.4398C87.7393 84.5598 87.8893 86.9395 87.9643 88.1144L87.0644 91.5639L87.7393 94.1136L88.1143 96.0634L88.4893 99.213L89.0892 100.713V102.363L89.4641 103.263V104.462L90.364 107.387L90.664 108.887L89.8391 109.337L91.0389 114.811L91.7889 118.486L92.1638 125.16L92.5388 127.11L92.8387 129.809V131.084H93.0637L93.3637 131.834L93.5886 134.309L93.7386 134.684L93.5886 134.984H93.2887L92.4638 134.459L91.9388 134.234H90.439H88.5643L84.8147 134.909C83.7648 135.009 81.6501 135.209 81.5901 135.209C81.5301 135.209 80.3153 135.309 79.7153 135.359L76.2657 135.959L71.6163 137.083L66.9669 137.833L65.542 138.133L63.4423 138.358C61.9175 138.558 58.8529 138.958 58.7929 138.958C58.7329 138.958 57.818 139.158 57.368 139.258H56.0182C55.8682 139.258 53.3935 139.483 53.3185 139.483C53.2435 139.483 51.4438 139.633 51.2938 139.633C51.1738 139.633 50.2439 139.783 49.794 139.858L49.044 140.008L47.0193 139.933V139.258L46.4944 139.108L45.7444 138.958L43.4947 138.658L42.5948 138.508L41.395 138.208H39.1452C39.0853 138.208 38.3204 137.908 37.9454 137.758C37.4954 137.708 36.5656 137.608 36.4456 137.608H34.5708C34.5108 137.608 33.4459 137.308 32.921 137.158H31.4212C29.8964 136.783 26.8467 136.019 26.8467 135.959C26.8467 135.899 25.7469 135.784 25.1969 135.734L23.8471 135.584L21.8224 134.834H20.4725H19.5726V134.609C19.5226 134.409 19.4226 133.979 19.4226 133.859C19.4226 133.739 19.5226 133.259 19.5726 133.034L19.8726 132.284L20.2475 131.684L20.0976 131.234C20.0226 131.059 19.8726 130.694 19.8726 130.634C19.8726 130.574 19.7726 129.959 19.7226 129.659L20.0226 129.134L19.8726 128.534L19.5726 128.085L19.8726 127.035V125.235L19.7226 124.785L19.5726 123.96V123.285L20.0226 122.46L20.0976 121.185L19.8726 119.985L19.7226 118.861L20.0976 115.561L20.6225 111.886L20.8475 110.312L19.7226 109.487L20.2475 108.362L21.5224 105.137L21.8224 103.562L22.0473 100.938L22.2723 99.138L22.7972 97.6382L22.7222 96.8133L22.7972 94.5636L23.0972 92.6888L23.6221 88.6393L23.9221 86.8395L24.1471 85.4147L22.5723 86.6895L22.7972 88.2643L22.5723 90.0641L21.7474 93.4387L21.0724 95.4635L19.4976 98.0882C19.0227 98.3631 18.0578 98.913 17.9978 98.913C17.9378 98.913 17.5229 98.963 17.3229 98.988V99.288L17.2479 99.8879L16.348 101.163L16.873 102.363L17.2479 103.787V104.837V106.412V107.762L17.0229 108.887L16.423 110.312L15.6731 111.287L15.8231 112.336L15.5981 112.861L14.9232 113.611L13.8733 114.361L11.9985 114.586H10.3487H8.47397L6.82417 114.361L5.7743 114.136L5.32435 113.911H5.17437L4.49945 113.161V111.062H4.19949H3.44958C2.97464 110.937 2.00976 110.687 1.94976 110.687C1.88977 110.687 1.72479 110.537 1.6498 110.462C1.54981 110.187 1.34984 109.622 1.34984 109.562C1.34984 109.502 1.04987 108.937 0.899891 108.662L0.299964 106.937L0 106.412V104.312L0.149982 102.213L0.449945 101.313L0.899891 97.8632L1.12486 96.6633L1.19985 95.3885L1.57481 93.2137L1.87477 93.0638L2.09975 92.6888L2.62468 92.0889L3.14962 91.414L3.82454 91.114L3.97452 90.814V87.8894L4.19949 84.8898L3.97452 84.1398V83.3899L4.27448 82.3401L4.72443 81.2902L5.17437 80.3153L5.62432 79.8654L6.07426 79.4154L6.44922 78.9655L6.07426 78.6655L5.39934 77.6156L5.02439 76.8657L4.79942 76.2658V74.766V73.5661L5.02439 71.6914L5.17437 70.8665V69.9666V69.3666L5.02439 68.7667V68.2418V67.4169L5.17437 66.8169L5.54933 65.9171L5.99927 65.0922L6.44922 64.1173L6.74918 63.2174L7.27412 62.1675V61.7176V60.8927L7.4241 59.8428L7.57408 59.3928L7.79905 58.8679L7.87404 58.193V57.5181L8.39898 56.8432L8.99891 55.8683L9.44885 55.1184L10.3487 54.6684L10.9487 54.3685V53.9185L11.2486 53.6935L11.6236 52.8686L12.0735 51.6688L12.2235 50.244L12.5235 48.6691L13.0484 47.0943L13.7233 45.8195L14.4732 44.3947L15.1482 43.2698L15.7481 42.2199L16.648 41.0201L17.7728 40.0452L19.1227 39.5952L19.6476 39.1453L20.3225 38.7703L20.1726 38.3954V37.7955L20.3225 37.0456L20.6225 36.4456L22.2723 35.0958L26.8467 33.371L28.9465 31.3463C29.4214 30.9213 30.5663 29.2615 30.7463 29.0215C30.9262 28.7816 30.1213 27.7967 30.4463 27.5217C30.7713 27.0968 31.4212 26.2019 31.4212 26.0219C31.4212 25.8419 34.1709 25.447 34.5708 24.7471L35.9206 21.3725L37.4954 20.1726Z" fill="#686360"/>
<path d="M48.5193 28.2716C48.3693 28.1966 46.9445 26.7718 46.8695 26.6218L46.6445 25.8719C46.8445 25.5469 47.2745 24.897 47.3944 24.897C47.5144 24.897 48.0444 24.5471 48.2943 24.3721C48.5443 24.5471 49.0742 24.897 49.1942 24.897C49.3142 24.897 50.4941 24.5471 51.069 24.3721L52.6438 24.1471C53.2187 23.9971 54.4136 23.6672 54.5936 23.5472C54.8185 23.3972 56.6933 23.6972 56.9183 23.6972C57.0983 23.6972 58.7431 24.1471 59.543 24.3721H61.3427H62.8426L63.6675 24.897L64.5674 25.8719L63.6675 26.6218L62.4676 28.0466C61.7927 28.3466 60.3679 28.9465 60.0679 28.9465C59.6929 28.9465 57.4432 29.7714 57.0683 29.5465C56.7683 29.3665 55.8434 29.6214 55.4185 29.7714L54.5936 30.4463C54.2186 30.4713 53.4387 30.5063 53.3187 30.4463C53.1987 30.3864 52.5688 30.3214 52.2688 30.2964C52.1939 30.1214 52.0589 29.7264 52.1189 29.5465C52.1939 29.3215 50.919 29.0215 50.694 28.9465C50.4691 28.8715 48.6693 28.3466 48.5193 28.2716Z" fill="black" stroke="black"/>
<path d="M85.2646 36.8955L86.3894 35.8457L86.1645 35.0958C85.9895 34.6208 85.6095 33.6259 85.4896 33.446C85.3696 33.266 84.9896 32.5211 84.8146 32.1711L84.3647 31.2712C84.3047 31.1512 83.7398 30.3713 83.4648 29.9964L82.9399 29.1715L82.19 28.8715L80.5402 27.6717L78.5154 26.0219L78.2904 24.897C78.1155 24.2721 77.7205 22.9622 77.5405 22.7223C77.3155 22.4223 76.5656 20.9225 76.4157 20.5475C76.2957 20.2476 75.7157 19.2227 75.4408 18.7477C75.0158 18.3728 74.1509 17.5929 74.0909 17.4729C74.0309 17.3529 73.216 16.473 72.8161 16.0481L71.3163 15.1482L70.8663 14.2483L69.5165 12.1485L68.4666 10.9487C68.0417 10.6237 67.1618 9.95881 67.0418 9.89882C66.8918 9.82383 64.1171 8.399 63.9672 8.32401C63.8472 8.26402 61.2675 7.94905 59.9926 7.79907H57.068C55.9681 8.17403 53.6634 8.92394 53.2435 8.92394C52.7185 8.92394 47.9941 10.5737 47.5442 10.5737C47.1842 10.5737 44.3445 12.1735 42.9697 12.9734L39.2952 16.723L37.8703 17.9978L35.0207 20.5475C33.8708 22.3223 31.4811 25.8869 31.1212 25.9469C30.7612 26.0069 29.5713 28.1216 29.0214 29.1715L26.7717 32.1711C25.3968 32.996 22.5422 34.6458 22.1222 34.6458C21.7023 34.6458 20.4974 36.1456 19.9475 36.8955V38.0204L23.6971 42.8198L27.2966 46.7943L29.5463 45.9694C30.4962 45.0196 32.456 43.1198 32.696 43.1198C32.9959 43.1198 35.9956 40.3451 36.2205 40.0452C36.4005 39.8052 39.0452 38.0454 40.345 37.1955L42.9697 34.1209L43.4197 23.5472C43.5196 23.0972 43.7346 22.1223 43.7946 21.8224C43.8546 21.5224 45.5694 20.8475 46.4193 20.5475C47.7691 20.1476 50.5288 19.3327 50.7688 19.2727C51.0087 19.2127 55.0682 18.7477 57.068 18.5228H60.8925L65.242 20.5475L66.5169 22.7223L67.1918 23.5472L67.4917 24.897L67.1918 26.6218L68.1667 29.1715L68.7666 32.1711L65.8419 35.3207L64.1171 38.0204C65.267 37.8454 67.6867 37.4355 68.1667 37.1955C68.7666 36.8955 72.8911 37.4955 73.1161 37.4955C73.341 37.4955 77.4655 39.0703 77.6155 39.2952C77.7355 39.4752 79.2153 41.9199 79.9402 43.1198L81.0651 44.6196C81.3151 44.0697 81.83 42.9398 81.89 42.8198C81.95 42.6998 82.9649 40.5701 83.4648 39.5202L85.2646 36.8955Z" fill="#5E5A4F"/>
<path d="M62.4274 190.973L62.2844 191.374L62.1986 192.032V193.69L61.4264 195.778L58.738 197.437C54.3814 198.629 45.6395 201.012 45.5251 201.012C45.3821 201.012 44.1809 201.298 43.8663 201.298C43.5517 201.298 42.8939 201.67 42.4077 201.841C41.9215 202.013 41.4926 202.013 40.8062 202.013C40.1198 202.013 39.605 202.041 39.033 202.013C38.461 201.984 37.9462 202.013 37.3456 201.841C36.745 201.67 36.1731 201.784 35.6869 201.67C35.2007 201.555 34.8003 201.441 34.3713 201.298C33.9423 201.155 33.2845 200.926 32.9985 200.812C32.7125 200.697 32.1405 200.411 31.9117 200.268C31.7287 200.154 30.8821 199.687 30.4818 199.468C30.2434 199.239 29.7382 198.758 29.6238 198.667C29.5094 198.575 29.4426 198.362 29.4236 198.266V198.038C29.6142 197.923 30.007 197.683 30.0528 197.637C30.0985 197.591 30.3578 197.294 30.4818 197.151L31.0823 196.751L31.6829 196.379L32.3121 196.007L32.9985 195.435L33.5705 194.949L33.9709 194.548L34.3713 194.177L34.9147 193.404L34.8003 193.061L34.6573 192.689V192.403L34.5429 192.289L34.2855 192.175L34.1997 191.831V191.517L34.3713 191.345H34.6573L35.1149 191.517L35.6011 191.145V190.916L35.6869 190.459L35.9157 190.116L36.1731 189.801L36.459 189.343L36.5448 188.886L36.459 188.571L36.2589 188.314V188.056L36.1731 187.656V187.37L36.459 187.17L36.5448 186.97L36.6592 186.426V186.255L36.7736 185.854L36.9738 185.683H37.2884V185.454V185.225L37.1454 184.939L37.0596 184.481V183.909L37.1454 183.681L37.4028 183.48L37.5172 183.137L37.746 182.708L38.1178 182.451L38.2322 182.193L38.5182 181.593L38.7756 181.049L39.1474 180.706L39.5478 180.506L39.6908 180.163L39.9482 179.963H40.32V179.734L40.4344 179.448L40.32 179.191L40.2056 178.647V178.132L40.32 177.732L40.5202 177.189C40.606 177.046 40.7947 176.742 40.8634 176.674C40.932 176.605 40.892 176.302 40.8634 176.159L41.035 175.73L40.9492 175.587L40.7776 175.387L40.8634 175.187L40.9492 175.072L41.035 174.986V174.872L40.8634 174.786V174.529L41.035 174.357H41.464L41.3782 173.757L41.464 173.013V172.641V171.526L41.9215 170.811L42.1217 170.553L42.2647 169.838C42.341 169.667 42.4993 169.307 42.5221 169.238C42.5507 169.152 42.7795 168.58 42.8081 168.409C42.831 168.271 43.0846 167.932 43.2085 167.779L43.5517 167.122C43.7233 166.969 44.0837 166.664 44.1523 166.664C44.2209 166.664 44.6385 166.53 44.8387 166.464L45.4679 166.664L45.8397 166.893L46.1829 166.778L46.5261 166.893L46.9837 167.122L47.3268 167.436L47.813 167.522L48.2706 167.608L48.8998 167.779C49.1191 167.97 49.569 168.363 49.6148 168.409C49.6606 168.454 49.9008 168.714 50.0152 168.838L50.9304 170.067V170.668L51.2736 171.211L51.1592 172.47L51.388 172.641C51.5405 172.651 51.8684 172.664 51.96 172.641C52.0515 172.618 52.6654 172.784 52.9609 172.87L54.0763 173.042L55.2489 173.471L57.6227 174.414L58.6808 174.815L59.1098 175.158C59.3863 175.234 59.9506 175.387 59.9964 175.387C60.0422 175.387 60.3587 175.711 60.5112 175.873L61.1976 176.045V175.873C61.2739 175.73 61.4435 175.433 61.5122 175.387C61.5808 175.341 61.7886 174.986 61.884 174.815L62.4274 174.5H62.6276C62.7896 174.557 63.1252 174.672 63.1709 174.672C63.2281 174.672 63.7429 174.815 63.9431 174.815C64.1033 174.815 64.334 174.929 64.4293 174.986C64.5247 175.034 64.7382 175.135 64.8297 175.158C64.9441 175.187 64.9155 175.473 64.9155 175.558C64.9155 175.627 64.7821 176.064 64.7153 176.273L64.2005 177.417L63.4856 178.218L62.313 179.219L61.884 179.677C61.76 179.953 61.495 180.512 61.4264 180.535C61.3577 180.558 61.455 180.659 61.5122 180.706L61.7124 181.593V182.88V183.566L61.884 184.396L61.9984 185.139V186.14V186.684L62.0842 187.313V188.114C62.0842 188.205 62.1604 188.571 62.1986 188.743L62.0842 189.429L61.9984 189.915L62.0842 190.573L62.2844 190.659L62.4274 190.973Z" fill="#65493D"/>
<path d="M61.312 192.489L60.8544 192.832L60.6256 193.118L59.9678 194.148L59.6246 194.777L59.1956 195.235L58.6522 195.778L57.9373 196.093C57.6322 196.207 57.0106 196.442 56.9649 196.465C56.9077 196.493 56.2785 196.636 56.1927 196.636C56.1069 196.636 55.5063 196.836 55.4205 196.865C55.3519 196.888 54.7818 196.97 54.5053 197.008C54.2479 197.075 53.7217 197.208 53.6759 197.208C53.6302 197.208 52.9514 197.303 52.6178 197.351L51.1878 197.78L50.244 198.038L49.386 198.409C48.9856 198.552 48.162 198.85 48.0704 198.895C47.956 198.953 46.8979 199.353 46.7835 199.382C46.6919 199.405 45.9636 199.773 45.6109 199.954L44.4669 200.268L43.4373 200.526L42.4649 200.84L41.5212 200.983L40.3486 201.183L39.033 201.384L37.8604 201.269C37.46 201.231 36.6535 201.149 36.6307 201.126C36.6078 201.103 35.9347 201.04 35.6011 201.012L34.5429 200.84C33.9232 200.564 32.6725 200.011 32.6267 200.011C32.5695 200.011 32.1119 199.668 32.0547 199.668C32.009 199.668 31.54 199.458 31.3112 199.353L30.4246 198.724C30.3388 198.648 30.1672 198.489 30.1672 198.467C30.1672 198.438 29.9384 198.209 29.9098 198.152C29.8869 198.106 29.824 197.999 29.7954 197.952L29.6238 197.866C29.5094 197.99 29.2749 198.243 29.252 198.266C29.2234 198.295 28.7944 198.495 28.7086 198.524C28.6228 198.552 28.2796 198.724 28.2224 198.724C28.1767 198.724 28.0508 198.781 27.9936 198.81C27.8411 198.848 27.5303 198.924 27.5074 198.924C27.4788 198.924 26.6494 199.239 26.5636 199.267C26.495 199.29 26.0393 199.41 25.8201 199.467L24.8477 199.668L23.7037 199.811H23.4749C23.3891 199.811 23.2461 199.868 23.1317 199.868C23.0173 199.868 22.9601 199.925 22.8457 199.925H22.7313C22.6741 199.925 22.6169 199.896 22.5883 199.868C22.5654 199.845 22.4835 199.896 22.4453 199.925C22.3977 199.954 22.2909 200.011 22.2451 200.011H22.0735H21.9019L21.6159 200.068L21.4729 200.125C21.3871 200.144 21.2041 200.182 21.1583 200.182H21.0154H20.7294C20.6607 200.182 20.6817 200.278 20.7008 200.325L20.5292 200.411L20.2718 200.526L20.1574 200.583H19.9572L19.9 200.669L19.8142 200.726L19.614 200.955L19.471 201.069H19.328H19.185V201.212L19.1278 201.384L18.8704 201.698H18.8418L18.6702 201.813L18.613 201.956V202.184L18.5558 202.327L18.4986 202.585L18.327 202.642L18.2126 202.842L18.327 202.928V203.042L18.2698 203.214L18.2126 203.157H18.0982L17.8122 203.5H17.898V203.586V203.729L18.0124 203.986L17.9552 204.158L17.7836 204.415V204.701L17.8694 204.816L17.9552 204.93L17.8122 205.016L17.6978 205.302V205.531L17.7836 205.731L17.6978 205.874V206.246L17.7836 206.56L17.6978 206.789C17.7264 206.894 17.7893 207.109 17.8122 207.132C17.8351 207.155 17.9743 207.313 18.041 207.39V207.59L18.1268 207.933C18.3747 208.248 18.8761 208.877 18.899 208.877C18.9219 208.877 19.0992 209.067 19.185 209.163L21.4157 210.278C21.5206 210.316 21.7361 210.392 21.7589 210.392C21.7875 210.392 22.3595 210.621 22.4167 210.621C22.4739 210.621 22.9601 210.907 23.0459 210.936C23.1317 210.964 23.3605 210.993 23.4177 211.022C23.4749 211.05 23.8753 211.308 23.9325 211.308C23.9897 211.308 24.2471 211.422 24.3043 211.422H24.6475C24.7809 211.517 25.0593 211.708 25.1051 211.708C25.1508 211.708 25.5055 211.861 25.6771 211.937L26.3063 212.108L26.7924 212.137L26.9926 212.023L27.1642 211.794L28.4798 212.394L28.8516 212.652L30.968 213.052L31.0824 212.966L31.1968 212.738L31.3112 212.509H31.3398L31.5972 212.595L31.8831 212.709C32.1119 212.814 32.581 213.024 32.6267 213.024C32.6839 213.024 33.0271 213.167 33.0557 213.167C33.0843 213.167 33.6277 213.424 33.6563 213.424H33.9709H35.6011L35.6869 213.31L35.8585 212.966V212.795C35.9157 212.823 36.0358 212.881 36.0587 212.881H36.3733C36.4019 212.881 36.6879 212.852 36.7165 212.852C36.7451 212.852 36.9167 213.081 36.9453 213.081C36.9681 213.081 37.1264 213.138 37.2026 213.167L37.6888 213.252L37.9176 213.31L38.5182 213.252H38.9472C38.9758 213.252 39.8624 213.167 39.891 213.167C39.9196 213.167 40.1198 213.138 40.1484 213.109C40.177 213.081 40.32 213.024 40.3486 212.995C40.3715 212.972 40.3963 212.852 40.4058 212.795L40.5774 212.509C40.606 212.49 40.6689 212.452 40.6918 212.452H40.9492L41.0636 212.509L41.2638 212.652L41.607 212.709H41.893L42.036 212.595H42.1504H42.5507C42.5736 212.595 42.7509 212.576 42.8367 212.566L43.2085 212.394C43.3039 212.356 43.5002 212.28 43.5231 212.28C43.546 212.28 44.0665 212.089 44.3239 211.994L44.4383 211.794V211.594V211.479L44.5527 211.393L44.6099 211.25C44.6766 211.279 44.8158 211.336 44.8387 211.336C44.8673 211.336 45.0961 211.422 45.1247 211.422H45.4107L45.6967 211.451C45.7539 211.413 45.874 211.336 45.8969 211.336C45.9198 211.336 45.9636 211.241 45.9827 211.193H46.1257H46.2401H46.4975C46.6309 211.146 46.9093 211.039 46.9551 210.993C47.0123 210.936 47.2411 210.936 47.2697 210.907C47.2983 210.879 47.5843 210.793 47.6129 210.764C47.6415 210.736 47.813 210.621 47.8417 210.593L47.9846 210.45C48.0075 210.427 48.0132 210.364 48.0132 210.335V210.164C48.0418 210.106 48.1048 209.986 48.1276 209.963C48.1505 209.941 48.2134 209.84 48.242 209.792C48.2802 209.782 48.3679 209.758 48.4136 209.735C48.4594 209.712 48.6615 209.592 48.7568 209.534L48.9284 209.42C49.0142 209.411 49.1973 209.392 49.243 209.392C49.2888 209.392 49.3002 209.315 49.3002 209.277L49.3574 209.106L49.6434 208.333V207.904L50.8446 208.248C50.9971 208.286 51.3136 208.362 51.3594 208.362C51.4166 208.362 51.9314 208.505 51.9314 208.534C51.9314 208.556 52.3127 208.677 52.5034 208.734L53.9619 208.934L54.1907 208.791L54.3623 208.734C54.3814 208.753 54.4252 208.791 54.4481 208.791C54.4767 208.791 54.5911 208.877 54.6197 208.848C54.6483 208.82 55.0487 208.848 55.0773 208.848H55.3919L55.7637 208.648L55.8781 208.362L55.9639 208.019L56.2785 207.962C56.3262 207.981 56.4272 208.019 56.4501 208.019C56.4787 208.019 56.7361 208.162 56.7933 208.162C56.8505 208.162 57.1365 208.219 57.1937 208.219H57.5655H57.7943C57.8896 208.181 58.086 208.099 58.1089 208.076C58.1317 208.053 58.2328 207.99 58.2805 207.962C58.3091 207.904 58.372 207.784 58.3949 207.761C58.4177 207.738 58.4425 207.561 58.4521 207.475L58.595 207.39H58.8524C58.9096 207.447 59.0298 207.561 59.0526 207.561C59.0812 207.561 59.453 207.704 59.4816 207.676C59.5102 207.647 59.6818 207.676 59.739 207.647C59.7848 207.624 59.8344 207.561 59.8534 207.533H60.0822C60.1394 207.533 60.3968 207.504 60.4254 207.475C60.454 207.447 60.6828 207.418 60.7114 207.39C60.74 207.361 60.8258 207.247 60.8544 207.218C60.883 207.189 61.026 207.075 61.026 207.046C61.026 207.023 61.0832 206.751 61.1118 206.617C61.1404 206.598 61.2033 206.56 61.2262 206.56C61.2548 206.56 61.3978 206.474 61.4264 206.474C61.455 206.474 61.5122 206.532 61.5408 206.56C61.5637 206.583 61.7029 206.665 61.7696 206.703H62.17C62.1929 206.703 62.2748 206.646 62.313 206.617C62.5513 206.474 63.028 206.183 63.028 206.16C63.028 206.131 63.2282 206.017 63.2568 205.988C63.2796 205.965 63.457 205.769 63.5428 205.674C63.5904 205.578 63.6858 205.382 63.6858 205.359C63.6858 205.336 63.7811 205.121 63.8288 205.016C63.886 204.787 64.0003 204.318 64.0003 204.272C64.0003 204.226 64.0385 203.967 64.0575 203.843L64.1147 203.185V202.785L64.0861 201.67L64.0289 201.326L63.9717 200.84V200.125L63.9431 198.838L63.8288 198.638V198.066L63.6572 197.98V197.809V197.494C63.6572 197.448 63.6 197.303 63.5714 197.237L63.4856 197.065L63.4284 196.865L63.4856 196.465V196.064C63.4856 196.036 63.457 195.893 63.457 195.864C63.457 195.835 63.3426 195.721 63.314 195.692L63.314 195.692C63.2854 195.664 63.2568 195.664 63.2568 195.635C63.2568 195.607 63.2854 195.435 63.2854 195.378V195.035C63.2854 194.977 63.2568 194.691 63.2282 194.663C63.2053 194.64 63.1614 194.463 63.1424 194.377L62.9994 194.005L62.7992 193.833L62.7134 193.404L62.6276 193.118L62.5418 192.661L62.3988 192.26C62.3797 192.146 62.3416 191.912 62.3416 191.889C62.3416 191.866 62.2844 191.803 62.2558 191.774L62.1128 191.946L61.7124 192.26L61.312 192.489Z" fill="#494748"/>
<path d="M66.5775 179.591L66.7205 179.991L66.8063 180.649V182.308L67.5785 184.396L70.2669 186.054C74.6235 187.246 83.3654 189.629 83.4798 189.629C83.6228 189.629 84.824 189.915 85.1386 189.915C85.4532 189.915 86.111 190.287 86.5971 190.459C87.0833 190.63 87.5123 190.63 88.1987 190.63C88.8851 190.63 89.3999 190.659 89.9719 190.63C90.5439 190.602 91.0587 190.63 91.6593 190.459C92.2598 190.287 92.8318 190.402 93.318 190.287C93.8042 190.173 94.2046 190.058 94.6336 189.915C95.0626 189.772 95.7204 189.544 96.0064 189.429C96.2924 189.315 96.8644 189.029 97.0932 188.886C97.2762 188.771 98.1227 188.304 98.5231 188.085C98.7615 187.856 99.2667 187.376 99.3811 187.284C99.4955 187.193 99.5622 186.979 99.5813 186.884V186.655C99.3906 186.541 98.9979 186.3 98.9521 186.255C98.9064 186.209 98.6471 185.911 98.5231 185.768L97.9225 185.368L97.3219 184.996L96.6928 184.624L96.0064 184.052L95.4344 183.566L95.034 183.166L94.6336 182.794L94.0902 182.022L94.2046 181.679L94.3476 181.307V181.021L94.462 180.906L94.7194 180.792L94.8052 180.449V180.134L94.6336 179.963H94.3476L93.89 180.134L93.4038 179.763V179.534L93.318 179.076L93.0892 178.733L92.8318 178.418L92.5458 177.961L92.46 177.503L92.5458 177.189L92.746 176.931V176.674L92.8318 176.273V175.987L92.5458 175.787L92.46 175.587L92.3456 175.044V174.872L92.2312 174.472L92.031 174.3H91.7165V174.071V173.842L91.8594 173.556L91.9452 173.099V172.527L91.8594 172.298L91.6021 172.098L91.4877 171.755L91.2589 171.326L90.8871 171.068L90.7727 170.811L90.4867 170.21L90.2293 169.667L89.8575 169.324L89.4571 169.124L89.3141 168.78L89.0567 168.58H88.6849V168.351L88.5705 168.065L88.6849 167.808L88.7993 167.265V166.75L88.6849 166.349L88.4847 165.806C88.3989 165.663 88.2102 165.36 88.1415 165.291C88.0729 165.223 88.1129 164.919 88.1415 164.776L87.9699 164.347L88.0557 164.204L88.2273 164.004L88.1415 163.804L88.0557 163.69L87.9699 163.604V163.489L88.1415 163.404V163.146L87.9699 162.975H87.5409L87.6267 162.374L87.5409 161.63V161.259V160.143L87.0833 159.428L86.8831 159.171L86.7401 158.456C86.6639 158.284 86.5056 157.924 86.4827 157.855C86.4542 157.77 86.2254 157.198 86.1968 157.026C86.1739 156.889 85.9203 156.549 85.7964 156.397L85.4532 155.739C85.2816 155.586 84.9212 155.281 84.8526 155.281C84.7839 155.281 84.3664 155.148 84.1662 155.081L83.537 155.281L83.1652 155.51L82.822 155.396L82.4788 155.51L82.0212 155.739L81.678 156.054L81.1918 156.139L80.7343 156.225L80.1051 156.397C79.8858 156.587 79.4358 156.98 79.3901 157.026C79.3443 157.072 79.1041 157.331 78.9897 157.455L78.0745 158.685V159.285L77.7313 159.829L77.8457 161.087L77.6169 161.259C77.4644 161.268 77.1364 161.282 77.0449 161.259C76.9534 161.236 76.3395 161.402 76.0439 161.487L74.9286 161.659L73.756 162.088L71.3822 163.032L70.324 163.432L69.8951 163.775C69.6186 163.852 69.0542 164.004 69.0085 164.004C68.9627 164.004 68.6462 164.328 68.4937 164.49L67.8073 164.662V164.49C67.731 164.347 67.5613 164.05 67.4927 164.004C67.4241 163.958 67.2162 163.604 67.1209 163.432L66.5775 163.118H66.3773C66.2153 163.175 65.8797 163.289 65.8339 163.289C65.7767 163.289 65.2619 163.432 65.0617 163.432C64.9016 163.432 64.6709 163.547 64.5756 163.604C64.4802 163.651 64.2667 163.753 64.1752 163.775C64.0608 163.804 64.0894 164.09 64.0894 164.176C64.0894 164.244 64.2228 164.681 64.2896 164.891L64.8043 166.035L65.5193 166.836L66.6919 167.837L67.1209 168.294C67.2448 168.571 67.5099 169.129 67.5785 169.152C67.6471 169.175 67.5499 169.276 67.4927 169.324L67.2925 170.21V171.497V172.184L67.1209 173.013L67.0065 173.757V174.758V175.301L66.9207 175.93V176.731C66.9207 176.822 66.8444 177.189 66.8063 177.36L66.9207 178.047L67.0065 178.533L66.9207 179.191L66.7205 179.276L66.5775 179.591Z" fill="#65493D"/>
<path d="M67.6929 181.107L68.1505 181.45L68.3793 181.736L69.0371 182.765L69.3803 183.395L69.8092 183.852L70.3526 184.396L71.0676 184.71C71.3727 184.825 71.9942 185.059 72.04 185.082C72.0972 185.111 72.7264 185.254 72.8122 185.254C72.898 185.254 73.4986 185.454 73.5844 185.482C73.653 185.505 74.2231 185.587 74.4996 185.625C74.757 185.692 75.2832 185.826 75.3289 185.826C75.3747 185.826 76.0535 185.921 76.3871 185.969L77.8171 186.398L78.7609 186.655L79.6189 187.027C80.0193 187.17 80.8429 187.467 80.9344 187.513C81.0488 187.57 82.107 187.971 82.2214 187.999C82.3129 188.022 83.0413 188.39 83.394 188.571L84.538 188.886L85.5676 189.143L86.5399 189.458L87.4837 189.601L88.6563 189.801L89.9719 190.001L91.1444 189.887C91.5448 189.849 92.3513 189.767 92.3742 189.744C92.3971 189.721 93.0701 189.658 93.4038 189.629L94.462 189.458C95.0816 189.181 96.3324 188.628 96.3782 188.628C96.4353 188.628 96.8929 188.285 96.9501 188.285C96.9959 188.285 97.4649 188.075 97.6937 187.971L98.5803 187.341C98.6661 187.265 98.8377 187.107 98.8377 187.084C98.8377 187.055 99.0665 186.827 99.0951 186.769C99.118 186.724 99.1809 186.617 99.2095 186.569L99.3811 186.483C99.4955 186.607 99.73 186.861 99.7529 186.884C99.7815 186.912 100.21 187.113 100.296 187.141C100.382 187.17 100.725 187.341 100.782 187.341C100.828 187.341 100.954 187.399 101.011 187.427C101.164 187.465 101.475 187.542 101.497 187.542C101.526 187.542 102.355 187.856 102.441 187.885C102.51 187.908 102.966 188.028 103.185 188.085L104.157 188.285L105.301 188.428H105.53C105.616 188.428 105.759 188.485 105.873 188.485C105.988 188.485 106.045 188.543 106.159 188.543H106.274C106.331 188.543 106.388 188.514 106.417 188.485C106.439 188.462 106.521 188.514 106.56 188.543C106.607 188.571 106.714 188.628 106.76 188.628H106.931H107.103L107.389 188.686L107.532 188.743C107.618 188.762 107.801 188.8 107.847 188.8H107.99H108.276C108.344 188.8 108.323 188.895 108.304 188.943L108.476 189.029L108.733 189.143L108.848 189.2H109.048L109.105 189.286L109.191 189.343L109.391 189.572L109.534 189.686H109.677H109.82V189.829L109.877 190.001L110.134 190.316H110.163L110.335 190.43L110.392 190.573V190.802L110.449 190.945L110.506 191.202L110.678 191.259L110.792 191.46L110.678 191.545V191.66L110.735 191.831L110.792 191.774H110.907L111.193 192.117H111.107V192.203V192.346L110.992 192.604L111.05 192.775L111.221 193.033V193.319L111.135 193.433L111.05 193.547L111.193 193.633L111.307 193.919V194.148L111.221 194.348L111.307 194.491V194.863L111.221 195.178L111.307 195.406C111.278 195.511 111.216 195.727 111.193 195.75C111.17 195.772 111.031 195.931 110.964 196.007V196.207L110.878 196.55C110.63 196.865 110.129 197.494 110.106 197.494C110.083 197.494 109.906 197.685 109.82 197.78L107.589 198.896C107.484 198.934 107.269 199.01 107.246 199.01C107.217 199.01 106.645 199.239 106.588 199.239C106.531 199.239 106.045 199.525 105.959 199.553C105.873 199.582 105.644 199.611 105.587 199.639C105.53 199.668 105.13 199.925 105.072 199.925C105.015 199.925 104.758 200.039 104.701 200.039H104.357C104.224 200.135 103.946 200.325 103.9 200.325C103.854 200.325 103.499 200.478 103.328 200.554L102.699 200.726L102.212 200.754L102.012 200.64L101.841 200.411L100.525 201.012L100.153 201.269L98.0369 201.67L97.9225 201.584L97.8081 201.355L97.6937 201.126H97.6651L97.4077 201.212L97.1217 201.326C96.8929 201.431 96.4239 201.641 96.3782 201.641C96.321 201.641 95.9778 201.784 95.9492 201.784C95.9206 201.784 95.3772 202.041 95.3486 202.041H95.034H93.4038L93.318 201.927L93.1464 201.584V201.412C93.0892 201.441 92.9691 201.498 92.9462 201.498H92.6316C92.603 201.498 92.317 201.469 92.2884 201.469C92.2598 201.469 92.0882 201.698 92.0596 201.698C92.0368 201.698 91.8785 201.755 91.8022 201.784L91.316 201.87L91.0872 201.927L90.4867 201.87H90.0577C90.0291 201.87 89.1425 201.784 89.1139 201.784C89.0853 201.784 88.8851 201.755 88.8565 201.727C88.8279 201.698 88.6849 201.641 88.6563 201.612C88.6334 201.59 88.6086 201.469 88.5991 201.412L88.4275 201.126C88.3989 201.107 88.336 201.069 88.3131 201.069H88.0557L87.9413 201.126L87.7411 201.269L87.3979 201.326H87.1119L86.9689 201.212H86.8545H86.4541C86.4313 201.212 86.2539 201.193 86.1681 201.183L85.7963 201.012C85.701 200.974 85.5046 200.897 85.4818 200.897C85.4589 200.897 84.9384 200.707 84.681 200.611L84.5666 200.411V200.211V200.097L84.4522 200.011L84.395 199.868C84.3282 199.896 84.1891 199.954 84.1662 199.954C84.1376 199.954 83.9088 200.039 83.8802 200.039H83.5942L83.3082 200.068C83.251 200.03 83.1309 199.954 83.108 199.954C83.0851 199.954 83.0413 199.858 83.0222 199.811H82.8792H82.7648H82.5074C82.3739 199.763 82.0956 199.656 82.0498 199.611C81.9926 199.553 81.7638 199.553 81.7352 199.525C81.7066 199.496 81.4206 199.41 81.392 199.382C81.3634 199.353 81.1918 199.239 81.1632 199.21L81.0202 199.067C80.9974 199.044 80.9916 198.981 80.9916 198.953V198.781C80.963 198.724 80.9001 198.604 80.8772 198.581C80.8544 198.558 80.7914 198.457 80.7628 198.409C80.7247 198.4 80.637 198.375 80.5912 198.352C80.5455 198.329 80.3434 198.209 80.2481 198.152L80.0765 198.038C79.9907 198.028 79.8076 198.009 79.7619 198.009C79.7161 198.009 79.7047 197.933 79.7047 197.895L79.6475 197.723L79.3615 196.951V196.522L78.1603 196.865C78.0078 196.903 77.6913 196.979 77.6455 196.979C77.5883 196.979 77.0735 197.122 77.0735 197.151C77.0735 197.174 76.6922 197.294 76.5015 197.351L75.0429 197.551L74.8142 197.408L74.6426 197.351C74.6235 197.37 74.5796 197.408 74.5568 197.408C74.5282 197.408 74.4138 197.494 74.3852 197.466C74.3566 197.437 73.9562 197.466 73.9276 197.466H73.613L73.2412 197.265L73.1268 196.979L73.041 196.636L72.7264 196.579C72.6787 196.598 72.5777 196.636 72.5548 196.636C72.5262 196.636 72.2688 196.779 72.2116 196.779C72.1544 196.779 71.8684 196.836 71.8112 196.836H71.4394H71.2106C71.1153 196.798 70.9189 196.716 70.896 196.693C70.8731 196.67 70.7721 196.608 70.7244 196.579C70.6958 196.522 70.6329 196.402 70.61 196.379C70.5872 196.356 70.5624 196.179 70.5528 196.093L70.4098 196.007H70.1524C70.0952 196.064 69.9751 196.179 69.9522 196.179C69.9236 196.179 69.5518 196.322 69.5233 196.293C69.4947 196.264 69.3231 196.293 69.2659 196.264C69.2201 196.241 69.1705 196.179 69.1515 196.15H68.9227C68.8655 196.15 68.6081 196.121 68.5795 196.093C68.5509 196.064 68.3221 196.036 68.2935 196.007C68.2649 195.978 68.1791 195.864 68.1505 195.835C68.1219 195.807 67.9789 195.692 67.9789 195.664C67.9789 195.641 67.9217 195.368 67.8931 195.235C67.8645 195.216 67.8016 195.178 67.7787 195.178C67.7501 195.178 67.6071 195.092 67.5785 195.092C67.5499 195.092 67.4927 195.149 67.4641 195.178C67.4412 195.2 67.302 195.282 67.2353 195.321H66.8349C66.812 195.321 66.73 195.263 66.6919 195.235C66.4536 195.092 65.9769 194.8 65.9769 194.777C65.9769 194.749 65.7767 194.634 65.7481 194.606C65.7252 194.583 65.5479 194.386 65.4621 194.291C65.4145 194.196 65.3191 193.999 65.3191 193.976C65.3191 193.954 65.2238 193.738 65.1761 193.633C65.1189 193.404 65.0045 192.935 65.0045 192.89C65.0045 192.844 64.9664 192.585 64.9473 192.461L64.8901 191.803V191.402L64.9187 190.287L64.9759 189.944L65.0331 189.458V188.743L65.0617 187.456L65.1761 187.256V186.684L65.3477 186.598V186.426V186.112C65.3477 186.066 65.4049 185.921 65.4335 185.854L65.5193 185.683L65.5765 185.482L65.5193 185.082V184.682C65.5193 184.653 65.5479 184.51 65.5479 184.481C65.5479 184.453 65.6623 184.338 65.6909 184.31L65.6909 184.31C65.7195 184.281 65.7481 184.281 65.7481 184.253C65.7481 184.224 65.7195 184.052 65.7195 183.995V183.652C65.7195 183.595 65.7481 183.309 65.7767 183.28C65.7996 183.257 65.8435 183.08 65.8625 182.994L66.0055 182.622L66.2057 182.451L66.2915 182.022L66.3773 181.736L66.4631 181.278L66.6061 180.878C66.6252 180.763 66.6633 180.529 66.6633 180.506C66.6633 180.483 66.7205 180.42 66.7491 180.392L66.8921 180.563L67.2925 180.878L67.6929 181.107Z" fill="#494748"/>
<path d="M141.733 0.599927L140.908 0.374954L140.758 0.599927L140.383 1.27485L139.783 2.24973L139.408 3.82454L138.658 6.14925V7.12413L136.933 9.44885L136.259 11.7736L135.584 14.5482L135.659 15.8231L134.384 18.0728V19.4976V20.7725L135.209 23.0222L134.159 25.4969V26.9967L133.559 28.4965L132.659 31.7961L132.434 32.3961L132.509 32.846L132.659 33.296L132.509 33.7459L132.209 34.1958L132.134 34.7958L131.084 37.4954L130.634 39.1452L130.184 41.9199L130.034 43.5697L130.409 43.8697V44.2446L130.184 44.5446V45.1445L130.409 45.8944L130.259 46.4944L129.509 50.2439L129.284 54.1434L128.834 58.1929V59.3928L129.284 60.4427L129.434 61.3425L129.584 62.3174L129.734 63.7423L130.034 64.8671L130.184 65.542L130.034 67.4168V68.0917L130.259 68.6917L130.409 69.0666L130.259 69.1416L130.034 69.3666L129.884 71.4663L129.734 71.9913L129.359 74.316L129.509 77.5406V80.9152L129.809 84.2148L130.259 89.0892L130.484 91.1139L130.784 93.4387C130.884 93.9136 131.084 94.8785 131.084 94.9385C131.084 95.0135 131.384 96.0633 131.459 96.2133C131.519 96.3333 131.884 97.1132 132.059 97.4882L132.659 99.138L133.709 100.188L133.859 100.413L133.259 102.138L133.109 103.787L132.959 107.087V110.537L133.109 114.361L133.484 116.911L133.634 120.135V121.56L133.859 124.485L134.309 128.159L134.834 131.984C134.934 132.384 135.149 133.214 135.209 133.334C135.269 133.454 135.334 134.484 135.359 134.984C135.484 135.634 135.734 136.948 135.734 137.008C135.734 137.068 135.934 137.933 136.034 138.358L136.259 140.383L136.559 140.833L136.709 142.033L137.158 144.582L137.233 145.032H138.208C138.388 145.032 138.933 144.982 139.183 144.957L140.458 144.807L143.758 144.132L145.033 143.983L147.357 143.608H149.082C149.142 143.608 150.007 143.358 150.432 143.233L151.932 143.083H153.506L158.981 142.783H159.656L161.006 142.558H162.28C162.355 142.558 163.18 142.408 163.33 142.408C163.45 142.408 163.88 142.158 164.08 142.033L164.38 141.508L164.455 137.833L164.305 136.408L164.155 135.883V135.134L164.305 131.834L164.455 128.609L164.005 127.41L163.555 122.31L163.33 118.936L163.18 115.636V114.286V110.987V105.587L163.03 102.438L163.33 101.463V97.7131L163.48 95.3134L163.105 90.214L162.505 86.8395L161.605 82.715L160.556 78.0655C160.631 77.9155 160.796 77.6156 160.856 77.6156C160.916 77.6156 161.231 77.1156 161.381 76.8657L161.605 76.2657L161.83 75.4408L163.33 74.316L163.555 73.716L163.705 72.9661L164.155 71.5413V70.1915C164.155 69.9665 164.455 69.4416 164.53 69.2916C164.605 69.1416 164.83 68.4667 164.83 68.2417C164.83 68.0167 164.905 67.1168 164.905 66.9669C164.905 66.8169 164.755 65.917 164.68 65.767C164.62 65.647 164.505 65.1171 164.455 64.8671V62.9923L164.305 62.6174L164.155 61.6425L164.305 60.6676V56.6181L163.705 54.9683C163.78 54.7933 163.93 54.4284 163.93 54.3684C163.93 54.3084 164.18 53.8435 164.305 53.6185L164.53 53.0186L164.98 52.1937L165.505 51.3688L165.655 50.4689H166.03L166.48 51.9687L167.005 52.9436L167.755 57.368L168.28 59.3178L169.18 61.8675L169.929 63.3673L171.579 67.5668L173.154 70.4164L174.354 71.8413L174.129 72.1412L173.904 73.1161L174.129 74.316V76.5657C174.129 76.6857 173.979 77.1656 173.904 77.3906L173.604 78.9654L173.154 80.9152V82.04L173.904 82.715V82.9399L173.154 83.5399L172.779 86.8395L172.404 88.7892L171.729 92.9137L171.504 94.3385L171.954 97.5631V101.163L172.479 103.862L172.629 107.087L172.854 108.962L172.929 112.111L172.854 114.586L173.904 115.936L173.829 116.461L173.154 120.51L172.554 125.985L172.179 129.734V132.284L171.954 137.833V139.258V141.433L172.179 141.883L173.079 142.108H173.529L174.129 141.883L174.804 142.108H175.854L176.529 142.558L184.928 143.533C186.377 143.683 189.337 143.983 189.577 143.983C189.877 143.983 195.126 144.357 195.351 144.282C195.531 144.222 197.926 144.407 199.101 144.507L199.476 143.758L199.626 142.108V139.633L200.376 137.233V134.534L200.901 132.059L201.876 125.085L202.925 118.411L203.15 115.711L203.9 110.312L204.05 107.912L204.35 102.888V101.238C204.425 99.8629 204.575 97.0982 204.575 97.0382C204.575 96.9782 204.675 95.9633 204.725 95.4634L204.575 93.6636L204.725 92.3138C204.875 91.9138 205.175 91.0839 205.175 90.964C205.175 90.844 205.275 90.0141 205.325 89.6141L205.475 88.6392L205.7 86.3895L205.85 84.8147L206 82.715V81.5901V80.2402V78.7404L205.85 78.0655L205.7 75.0659L205.475 73.791C205.425 73.4911 205.325 72.8761 205.325 72.8162V71.6913V70.6414V69.5915V68.2417L205.475 67.5668L206 66.5919V66.067L205.7 65.842L205.325 65.3171V64.7921L205.475 64.2672L205.325 62.6924V61.0426V58.8679V57.893L204.95 57.443L205.325 57.1431V56.5431L204.95 53.4685L204.5 50.4689L204.35 48.9691L204.125 47.1693V45.4445L203.975 44.0946V42.5198L203.75 42.1449L203.975 41.7699V41.245L203.75 40.2701L203.45 39.2202L203.3 38.1704L202.775 36.4456L202.326 35.1707L201.951 33.8959L201.726 33.3709C201.676 33.171 201.576 32.741 201.576 32.621C201.576 32.5011 201.376 31.9711 201.276 31.7211V30.9712L201.051 30.2963L200.826 29.2464L199.776 26.9217V26.2468L199.551 24.897L198.951 23.0972L198.501 20.0976V19.1227L197.601 16.048L197.301 14.6232L197.601 13.7983C197.601 13.3734 197.571 12.4935 197.451 12.3735C197.301 12.2235 197.076 11.4736 197.001 11.3236C196.941 11.2036 196.526 10.3237 196.326 9.8988C196.226 9.42385 195.996 8.44397 195.876 8.32399C195.726 8.17401 195.876 7.49909 195.876 7.27412C195.876 7.04914 195.501 6.5992 195.426 6.44922C195.351 6.29923 195.126 6.22424 194.976 6.14925C194.856 6.08926 194.826 5.7243 194.826 5.54933C194.726 5.22437 194.526 4.54445 194.526 4.42446C194.526 4.27448 194.302 3.14962 194.227 2.99964L193.852 2.24973L193.477 1.6498L193.327 0.599927L192.952 0L190.852 0.149982L189.652 0.749909C189.352 0.899891 188.722 1.19985 188.602 1.19985C188.452 1.19985 186.653 1.79962 186.428 1.87474L186.427 1.87477C186.203 1.94976 184.853 2.69967 184.553 2.69967C184.253 2.69967 183.353 3.14962 183.203 3.14962C183.053 3.14962 175.854 3.44958 175.779 3.2996C175.704 3.14962 174.729 3.14962 174.579 3.14962H173.229H172.179C171.704 3.39959 170.724 3.95952 170.604 4.19949C170.454 4.49945 169.63 5.02439 169.405 5.02439H167.68C166.955 5.14937 165.445 5.39934 165.205 5.39934H164.53L164.38 5.99927H164.155L163.855 4.72443C163.505 4.69943 162.775 4.61944 162.655 4.49945C162.535 4.37947 161.655 4.24948 161.231 4.19949L160.031 3.89953L158.756 4.34947C156.431 3.94952 151.722 3.14962 151.482 3.14962C151.182 3.14962 150.357 2.99964 150.132 2.92464C149.907 2.84965 148.182 2.69967 147.882 2.54969C147.582 2.39971 146.082 2.24973 145.782 2.17474C145.482 2.09975 144.808 1.94976 144.733 1.79978C144.658 1.6498 144.058 1.34984 143.983 1.27485C143.923 1.21485 143.458 0.899891 143.233 0.749909H142.483L141.733 0.599927Z" fill="#564646"/>
</svg>
