<svg width="89" height="165" viewBox="0 0 89 165" fill="none" xmlns="http://www.w3.org/2000/svg">
<path d="M9.16667 15.2778L6.4294 15.8507L6.04745 15.9781L6.17477 16.6146L6.4294 17.8878V19.8612L6.17477 21.1343L5.66551 22.5348L5.15625 23.617L4.51968 25.0811V25.9723L4.83796 26.5452L4.71065 28.2639L4.20139 28.6459L3.81944 29.6644L3.24653 31.7014L3.69213 32.9109L4.3287 34.6297L4.83796 36.6667V37.7489L4.64699 38.7674V40.6135L3.8831 43.4144L2.73727 47.2338L1.78241 50.2257L1.14583 52.963L0.891204 54.6818L0.636574 56.4005L0.381944 56.5278L0.127315 57.1644L0 58.2466V59.2014H0.954861H2.80093H4.45602H6.30208L8.33912 59.3288L9.93056 59.5834C10.8218 59.6683 12.6296 59.838 12.7315 59.838C12.8333 59.838 13.8773 60.0502 14.3866 60.1563L15.978 60.3473L18.9699 60.5382H22.4711H23.9988L25.3993 60.4746L26.0359 60.6019L26.3542 61.1112L26.9271 61.2385V60.5382L26.7361 58.6285L26.4815 56.5278L26.2269 54.2362L25.5903 50.8623L25.3993 47.6795V45.8334L25.5903 42.5869L25.8449 40.4225L26.0995 39.404L26.4178 36.5394C26.439 36.1787 26.4942 35.4318 26.5451 35.3299C26.5961 35.2281 26.4815 34.6933 26.4178 34.4387L26.5451 33.5475L26.7998 33.1656V32.4653C26.9483 32.1258 27.2454 31.4341 27.2454 31.3832C27.2454 31.3195 27.5 30.6193 27.5637 30.492C27.6146 30.3901 27.5849 30.11 27.5637 29.9827C27.6061 29.7281 27.7037 29.2061 27.7546 29.1551C27.8183 29.0915 28.0093 28.7095 28.0729 28.6459C28.1238 28.595 28.6034 28.2427 28.8368 28.073L29.2824 27.3091C29.3036 26.9908 29.3461 26.3415 29.3461 26.2906C29.3461 26.2269 29.2824 25.7176 29.2187 25.654C29.1678 25.6031 28.9429 24.9962 28.8368 24.6991L28.4549 23.2987L28.0093 20.6887L27.3727 18.1424L24.1898 16.551V18.4607V21.6436L23.4259 23.3623C22.7681 23.7443 21.3762 24.5082 21.0706 24.5082C20.6887 24.5082 18.3333 24.6355 18.1424 24.5082C17.9514 24.3808 16.4873 24.2535 16.2963 24.2535C16.1053 24.2535 14.0046 23.4896 13.8137 23.3623C13.6609 23.2605 12.689 22.7682 12.2222 22.5348L11.2037 21.2616L10.5671 19.4156L9.16667 15.2778Z" fill="#F5F4F9"/>
<path d="M54.1088 1.28333L53.3449 2.30185L52.1354 3.25672L50.6077 7.01251L51.7535 14.9697L53.4722 23.6907L56.4005 31.7116L60.6655 34.3852L63.6574 29.4199L65.1852 21.3991L66.904 15.2243L68.1135 7.71274L67.7952 3.76598L66.8403 2.81112L66.3947 2.68381L65.8218 1.98357L65.4398 1.15603C65.1216 0.965053 64.4595 0.583102 64.3577 0.583102C64.2304 0.583102 63.2118 0.328472 63.0845 0.1375C62.9572 -0.0534722 61.9387 0.0101852 61.6204 0.0101852H59.647H58.0556C57.8519 0.0101852 56.9522 0.222377 56.5278 0.328472L55.3183 0.583102L54.1088 1.28333Z" fill="#D9D9D9"/>
<path d="M48.9526 4.40257L53.154 2.30188L53.2813 2.42919L53.0267 2.62017L52.3264 4.14794V5.80304L52.4538 6.12132L52.8357 7.26716L53.2176 10.2591L54.0452 14.4604L54.9364 17.8343C55.2971 19.0013 56.0058 21.3482 55.9549 21.3991C55.904 21.45 56.6976 24.0939 57.1007 25.4095L58.7558 29.9928L60.1563 33.2394L61.1112 29.8019L62.1933 25.4095C62.6602 23.5422 63.5938 19.7949 63.5938 19.744C63.5938 19.6931 63.8909 18.4496 64.0394 17.8343L64.7396 15.1607C64.9518 14.0997 65.3889 11.9651 65.4399 11.9141C65.5035 11.8505 65.7581 10.641 65.8218 10.5773C65.8727 10.5264 66.1401 9.45273 66.2674 8.92225L66.522 7.6491L66.7767 6.12132L67.095 5.29378L67.2223 4.40257V3.63869L66.9676 3.19308V2.93845L67.9225 3.51137L69.0683 4.14794L69.8322 4.59355L70.9781 5.35744C71.3388 5.56963 72.073 6.00674 72.1239 6.05767C72.1875 6.12132 72.6968 6.50327 72.7605 6.50327C72.8114 6.50327 73.2485 6.58814 73.4607 6.63058L74.6702 6.94887L76.3253 7.84007L77.8531 8.28568L80.0811 9.81345L81.4179 10.7683L81.9271 10.832L82.3727 11.3412L82.691 11.7868L82.9456 12.6144L83.1366 13.8875L84.0278 15.8609L84.5371 17.325L85.1737 19.744L85.6829 21.972L85.8739 23.9454L86.7014 26.3644L87.4653 28.9743L88.1656 30.4385L88.4838 31.8389C88.5263 32.2209 88.6112 33.0102 88.6112 33.1121C88.6112 33.2139 88.7385 34.3852 88.8021 34.9581L88.8658 37.3134L88.8021 39.3505L88.6112 40.7509L87.7836 48.1989L86.8924 55.5195L86.1922 59.9118L85.1737 66.4685L84.7281 69.0148L83.6459 73.6618L84.2825 79.3273L77.2801 79.8366L71.4873 80.2822L64.676 80.7278L57.4827 80.5368H50.4167L38.4491 79.7729L38.8947 75.3806L37.7489 75.5715L36.985 71.3065L35.3299 62.9674L34.375 56.6016L33.4202 51.0634L32.2107 42.7243L32.338 37.1225C32.4441 35.8706 32.6563 33.3158 32.6563 33.1121C32.6563 32.9084 33.208 30.0989 33.4838 28.7197L35.3936 21.1445L36.2211 16.1792L37.2396 11.4685L39.3403 10.0044C40.3164 9.32541 42.3195 7.94193 42.5232 7.84007C42.7269 7.73822 45.0271 6.90643 46.1517 6.50327L47.8068 5.67572L48.9526 4.40257Z" fill="#1F1B1A"/>
<path d="M58.1193 9.68606L59.1378 11.0229H59.7744L60.9202 9.55874L61.4931 8.79485C61.9175 8.1795 62.7663 6.93605 62.7663 6.88513C62.7663 6.8342 62.8512 6.48197 62.8936 6.31222C62.6602 6.26978 62.1552 6.17218 62.0024 6.12125C61.8114 6.05759 60.4746 5.67565 60.2837 5.73931C60.0927 5.80296 58.8832 5.86662 58.5649 5.86662C58.3103 5.86662 57.6525 6.16369 57.3554 6.31222C57.1857 6.22735 56.808 6.03213 56.6552 5.93028C56.4642 5.80296 55.4457 5.86662 55.2547 5.86662C55.0638 5.86662 55.7003 6.31222 55.764 6.50319C55.8276 6.69417 56.5915 7.96731 56.5915 8.09463C56.5915 8.19648 57.61 9.19802 58.1193 9.68606Z" fill="black"/>
<path d="M58.3739 15.7335L56.8462 12.6143L58.3739 11.5321L58.8195 11.9141H59.5834L59.9654 11.7231L62.3207 13.2509L61.3022 15.7335L61.6841 16.1791L61.9387 16.5611L62.1934 17.1976L62.3207 17.7705L62.639 20.1895L62.9573 22.0356L63.0209 25.9187L62.5117 29.6108C62.3843 30.9476 62.117 33.634 62.0661 33.6849C62.0024 33.7486 59.9654 34.1942 59.8381 34.1305C59.7107 34.0668 57.1008 34.1942 57.0371 34.1305C56.9735 34.0668 56.3369 29.4835 56.2096 29.4198C56.1077 29.3689 56.1671 26.9372 56.2096 25.7277L56.5279 23.7543L56.6552 22.8631L56.7825 20.7624L57.2918 18.6617L57.7374 16.752L57.9283 16.3701L58.183 15.9881L58.3739 15.7335Z" fill="black"/>
<path d="M54.1089 14.3967L56.8462 12.6143M56.8462 12.6143L58.3739 15.7335L58.183 15.9881L57.9283 16.3701L57.7374 16.752L57.2918 18.6617L56.7825 20.7624L56.6552 22.8631L56.5279 23.7543L56.2096 25.7277C56.1671 26.9372 56.1077 29.3689 56.2096 29.4198C56.3369 29.4835 56.9735 34.0668 57.0371 34.1305C57.1008 34.1942 59.7107 34.0668 59.8381 34.1305C59.9654 34.1942 62.0024 33.7486 62.0661 33.6849C62.117 33.634 62.3844 30.9476 62.5117 29.6108L63.0209 25.9187L62.9573 22.0356L62.639 20.1895L62.3207 17.7705L62.1934 17.1976L61.9387 16.5611L61.6841 16.1791L61.3022 15.7335L62.3207 13.2509M56.8462 12.6143L58.3739 11.5321L58.8195 11.9141H59.5834L59.9654 11.7231L62.3207 13.2509M62.3207 13.2509L64.485 14.715M59.1378 11.0229L58.1193 9.68606C57.61 9.19802 56.5915 8.19648 56.5915 8.09463C56.5915 7.96731 55.8276 6.69417 55.764 6.50319C55.7003 6.31222 55.0638 5.86662 55.2547 5.86662C55.4457 5.86662 56.4642 5.80296 56.6552 5.93028C56.808 6.03213 57.1857 6.22735 57.3554 6.31222C57.6525 6.16369 58.3103 5.86662 58.5649 5.86662C58.8832 5.86662 60.0927 5.80296 60.2837 5.73931C60.4746 5.67565 61.8114 6.05759 62.0024 6.12125C62.1552 6.17218 62.6602 6.26978 62.8936 6.31222C62.8512 6.48197 62.7663 6.8342 62.7663 6.88513C62.7663 6.93605 61.9175 8.1795 61.4931 8.79485L60.9202 9.55874L59.7744 11.0229H59.1378Z" stroke="black"/>
<path d="M58.3283 86.3195H52.7605H51.605L50.7645 90.8425L50.3443 94.7345L50.1342 101.256L49.8191 106.516L49.609 109.671L49.3989 112.722L48.8736 118.823L48.6635 121.873L48.1382 128.289L47.8231 131.024L47.613 135.547L47.0877 139.439L46.6675 144.278L46.1422 149.011L45.8271 153.745L45.5119 157.847L45.1968 161.844V163.633L47.4029 164.053L49.1888 164.369L51.3949 164.684C51.675 164.79 52.9286 165 55.702 165C58.4754 165 59.729 164.649 60.0091 164.474V163.843L60.5344 160.477L60.8495 158.584L61.0596 156.585L61.2698 154.586L61.4799 152.903L61.69 150.063L62.3203 139.755V136.494L62.5304 133.864V132.076L63.2657 115.036L63.4028 111.459L64.2303 111.146L64.9466 111.459L65.0516 116.929L65.1567 120.926L65.3668 124.713V130.288L65.5769 135.021L65.787 140.176L65.9971 143.857L66.1021 147.013L66.3123 149.011L66.6274 151.22L66.7325 153.745L66.9426 155.954L67.1527 157.532L67.4678 159.425L67.5729 160.898L67.783 162.581L67.9931 164.053L68.2032 164.895L72.5103 164.79L75.7669 164.579L79.864 163.948L83.6459 163.212L83.4357 161.372L82.882 154.586L82.1181 150.063L81.7549 145.266L81.2297 138.964L80.8094 133.044L80.3357 128.524L80.0174 124.713L79.5718 118.594L79.0236 113.247L78.4259 108.218L78.0781 102.934L77.7257 99.5602L77.2165 96.1864L76.3889 90.1389L75.977 86.4246C75.0666 86.3896 73.1617 86.3195 72.8255 86.3195H68.5183C68.0981 86.3195 63.5809 86.4246 63.0556 86.4246C62.5304 86.4246 58.5384 86.3195 58.3283 86.3195Z" fill="#1A1917"/>
<path d="M15.2777 139.664C15.0867 140.216 14.692 141.358 14.6411 141.51L14.7684 142.147L16.4872 144.884L18.5242 147.431L20.8159 150.422L22.1527 151.95L23.6168 153.605L25.3992 154.815L27.4999 155.77L29.0913 156.152L30.8101 156.406C31.4042 156.47 32.6052 156.597 32.6562 156.597H33.9293L34.7569 156.215L35.3298 155.961L35.9663 155.388L36.4756 154.751L36.6029 153.733L36.4756 152.905L36.221 152.332L35.5207 151.186L35.0115 150.55L34.7569 150.104L36.221 150.422L38.0034 150.486L38.8309 150.422L39.7221 150.104L40.486 149.404L40.868 148.767L40.7407 147.749C40.5921 147.515 40.295 147.036 40.295 146.985C40.295 146.934 39.7009 146.242 39.4038 145.903L39.0856 145.712L35.4571 142.529L33.2927 140.81L32.8471 140.619L32.2742 139.919L31.7013 139.792L29.346 138.709L27.5636 137.5L26.2904 136.609L25.0173 135.909C24.7202 135.781 24.0751 135.514 23.8714 135.463C23.6677 135.412 22.8105 135.102 22.4073 134.954L21.3251 134.572L20.3703 134.317L19.4791 134.699L18.3969 135.909L18.1423 136.927H17.3784C17.1238 137.182 16.6018 137.729 16.5508 137.882C16.4999 138.035 15.6809 139.134 15.2777 139.664Z" fill="#1E1D1B"/>
<path d="M17.2512 139.41C17.2003 139.41 16.8905 139.537 16.7419 139.601V140.746L17.1875 141.319L18.1424 142.402L19.7338 144.502L21.5799 146.094C22.0467 146.391 22.9931 146.998 23.044 147.049C23.095 147.099 24.296 147.324 24.8901 147.43L25.9086 147.303V146.73L24.7628 145.712C24.296 145.181 23.3496 144.095 23.2987 143.993C23.2477 143.891 22.7257 143.399 22.4711 143.165C22.2801 142.932 21.8855 142.452 21.8345 142.402C21.7836 142.351 21.2616 141.574 21.007 141.192C20.7736 140.937 20.2686 140.403 20.1158 140.301C19.9248 140.174 19.4156 139.728 19.2882 139.664C19.1609 139.601 18.397 139.537 18.2061 139.473C18.0151 139.41 17.3149 139.41 17.2512 139.41Z" fill="#594B3A"/>
<path d="M22.3438 137.946C22.1528 137.882 20.816 137.564 20.7524 137.564L22.7894 138.582L24.6355 139.792L26.4179 140.81L27.5 141.765L29.4734 143.165L30.4283 142.911L31.1922 142.402L30.11 141.765L28.1366 140.746C27.0544 140.216 24.8646 139.142 24.7628 139.091C24.6355 139.028 22.5348 138.009 22.3438 137.946Z" fill="#594B3A"/>
</svg>
