<svg width="65" height="193" viewBox="0 0 65 193" fill="none" xmlns="http://www.w3.org/2000/svg">
<path d="M32.5687 4.0468C27.9075 3.80699 23.4554 1.24901 21.812 0L16.5831 4.0468C14.7406 4.84616 10.5773 7.01445 8.66506 9.29264C6.75277 11.5708 3.88434 18.1356 2.68916 21.1333L0 27.8779L5.52771 29.9763L7.32048 31.7748L10.159 35.2221L10.7566 36.2713V52.9081V62.0509V70.5941V77.4886C11.2048 77.6385 12.1908 78.0582 12.5494 78.5378C12.9976 79.1373 16.4337 78.8376 17.1807 78.9875C17.7783 79.1074 18.7245 78.338 19.1229 77.9383L22.4096 75.0905C23.4056 74.6909 25.8458 74.1313 27.6386 75.0905C29.4313 76.0498 31.7719 75.6901 32.7181 75.3903C34.0129 74.2412 36.8713 72.3627 37.947 74.0414C39.0227 75.72 41.0843 77.4387 41.9807 78.0882C44.9189 78.1881 50.9745 78.3879 51.6916 78.3879C52.4087 78.3879 52.7872 77.2888 52.8867 76.7392V68.9454L52.7374 68.4958L52.8867 67.5965L53.1855 66.8471V62.0509L53.3349 58.7535C53.2851 58.4537 53.2453 57.7643 53.4843 57.4045C53.7234 57.0448 53.3847 53.3577 53.1855 51.5592V48.2618C53.2851 47.5623 53.4843 46.0735 53.4843 45.7138C53.4843 45.2642 53.1855 41.2174 53.1855 40.1682C53.1855 39.3289 52.588 37.6202 52.2892 36.8708L51.6916 31.625L56.0241 33.5734C56.1237 33.1737 56.3827 32.1945 56.6217 31.4751C56.8607 30.7556 60.3068 28.7772 62 27.8779V26.6789L59.1614 20.8335C58.3149 19.1348 56.5619 15.198 56.3229 13.0397C56.0839 10.8814 54.3309 7.94371 53.4843 6.74466L45.7157 1.64869L43.4747 1.19905C41.7815 2.24822 37.2299 4.28661 32.5687 4.0468Z" fill="#F2F1F7"/>
<path d="M17.725 88.7875L7.43333 88L6.95833 90.3626L6.325 92.5678L4.9 99.4982L4.10833 108.634L3.63333 116.509L3.31667 123.44L3 127.062L3.15833 127.85L3.95 128.322L5.375 128.48L7.275 128.952L11.3917 129.74L14.4 130.055L15.0333 130.37C18.8861 130.475 26.9083 130.622 28.175 130.37C29.4417 130.118 29.9694 127.64 30.075 126.432L30.3917 120.919L31.5 122.81L32.6083 130.212L33.875 131L40.525 130.212C44.6417 129.897 53.0333 129.267 53.6667 129.267C54.3 129.267 57.9417 128.637 59.6833 128.322L60 127.85L59.6833 125.645L59.3667 118.399L59.05 113.359L58.4167 107.059L57.3083 98.7106L56.0417 93.3553L55.25 90.3626L54.4583 88H48.7583L39.1 89.2601L17.725 88.7875Z" fill="#2E3851"/>
<path d="M25.3511 154.675C22.9749 155.487 23.0811 157.163 23.4313 157.899L24.0471 158.913L24.8078 159.638L28.3939 161.594L31.7627 163.478L34.3708 164.89L36.5805 166.52L43.2094 170.396L45.5278 171.556L50.9251 172.968L56.1413 173.222L59.7637 172.534C60.4278 172.316 61.9081 171.795 62.5167 171.447C63.2774 171.012 64.1467 169.781 64.2916 169.599C64.4075 169.455 64.4607 168.428 64.4728 167.933L64.3279 167.571L63.6396 166.665L62.8789 166.013L61.9009 165.361L61.0677 164.89L60.4519 164.275L59.9448 163.296C59.7395 162.85 59.3073 161.804 59.2203 161.196C59.1334 160.587 58.4113 160.097 58.0612 159.928L54.5475 157.537L52.9536 156.269L52.7363 155.871L51.6133 154.82L48.8603 152.14L47.8823 151.162C47.677 150.908 47.2158 150.357 47.0129 150.184C46.8101 150.01 46.542 150.014 46.4333 150.039L36.3994 155.545L31.4729 154.168L31.1107 154.132L29.9153 153.951C29.384 153.854 27.7274 153.864 25.3511 154.675Z" fill="#373737"/>
<path d="M29.1547 159.421L27.5247 159.674V160.109L33.2842 163.115L41.3259 167.426L45.6003 169.817L50.5629 171.447L52.7364 171.845L53.7869 171.628C53.0382 171.048 51.6062 169.44 51.867 167.643C52.1278 165.847 54.0766 163.49 55.0185 162.536L55.7067 162.826L56.4674 163.152L57.9888 163.731L59.8362 164.564L60.2709 164.673L60.5607 164.419L60.452 164.238C59.9932 163.369 59.1045 161.536 59.2204 161.159C59.3363 160.783 58.5201 160.157 58.0975 159.892L57.4092 159.457L54.7649 157.609L53.0986 156.342L52.8813 155.979L50.889 154.06C49.6694 152.864 47.2014 150.423 47.0855 150.22C46.9695 150.017 46.6749 149.99 46.5421 150.002L45.7452 150.365L43.6804 151.524L40.855 153.081L37.0877 155.4L34.2623 157.03L31.9077 158.298L29.1547 159.421Z" fill="#1D1D1D"/>
<path d="M45.1215 174.453C47.4978 175.265 47.3915 176.941 47.0414 177.677L46.4256 178.692L45.6649 179.416L42.0787 181.372L38.7099 183.256L36.1018 184.669L33.8922 186.299L27.2632 190.175L24.9449 191.334L19.5476 192.746L14.3314 193L10.709 192.312C10.0449 192.094 8.56454 191.573 7.95599 191.225C7.19529 190.79 6.32592 189.559 6.18102 189.378C6.06511 189.233 6.01198 188.206 5.9999 187.711L6.1448 187.349L6.83305 186.444L7.59375 185.791L8.57179 185.139L9.40493 184.669L10.0207 184.053L10.5279 183.075C10.7331 182.628 11.1654 181.582 11.2523 180.974C11.3393 180.365 12.0613 179.875 12.4115 179.706L15.9252 177.315L17.519 176.047L17.7364 175.649L18.8593 174.598L21.6123 171.918L22.5904 170.94C22.7956 170.686 23.2569 170.136 23.4597 169.962C23.6626 169.788 23.9306 169.793 24.0393 169.817L34.0733 175.323L38.9997 173.946L39.3619 173.91L40.5573 173.729C41.0886 173.632 42.7452 173.642 45.1215 174.453Z" fill="#373737"/>
<path d="M41.3179 179.199L42.948 179.452V179.887L37.1884 182.894L29.1468 187.204L24.8724 189.595L19.9097 191.225L17.7363 191.623L16.6858 191.406C17.4344 190.827 18.8665 189.218 18.6057 187.422C18.3448 185.625 16.396 183.268 15.4542 182.314L14.7659 182.604L14.0052 182.93L12.4839 183.509L10.6364 184.343L10.2018 184.451L9.91197 184.198L10.0206 184.017C10.4795 183.147 11.3682 181.314 11.2522 180.937C11.1363 180.561 11.9526 179.935 12.3752 179.67L13.0634 179.235L15.7078 177.388L17.3741 176.12L17.5914 175.757L19.5837 173.838C20.8032 172.642 23.2713 170.201 23.3872 169.998C23.5031 169.795 23.7977 169.769 23.9305 169.781L24.7275 170.143L26.7922 171.302L29.6177 172.86L33.3849 175.178L36.2104 176.808L38.5649 178.076L41.3179 179.199Z" fill="#1D1D1D"/>
</svg>
