<svg width="175" height="203" viewBox="0 0 175 203" fill="none" xmlns="http://www.w3.org/2000/svg">
<path d="M45.0302 0.311988L47.1101 0L49.71 0.103996L54.2859 0L56.5738 0.103996L58.8617 0.519979L61.6696 1.03996L62.7095 1.14395L64.7895 2.18391L66.2454 4.26383L67.1814 6.13576L67.2853 7.27971L69.0533 9.87961L74.0451 12.4795L79.0369 14.5594L82.9887 16.4314L84.8607 17.4713L87.2526 18.4073L89.9565 20.2792L92.4524 22.9831L95.3642 26.9349L97.8601 30.9908L100.148 36.0866L101.604 40.0384L101.812 43.3663L102.644 46.5902L102.956 48.7741L103.684 52.6219L104.308 54.1819L104.412 57.9257L103.996 60.2136L103.684 61.9816L104.1 64.0615L104.932 65.5174L105.556 69.6773L105.868 71.6532L105.972 74.3571L105.556 76.853L105.348 78.9329L105.452 81.0128L104.932 82.1568L104.308 83.3007L104.516 84.1327L104.828 84.5487L105.348 86.5783L105.556 89.5405L105.348 92.2444L104.932 94.8443L104.412 97.5481L103.58 99.8361L103.06 101.5L102.748 102.228V103.06L102.956 104.204L103.164 106.596V109.508L102.852 113.564L102.748 115.955L102.54 117.827L102.02 119.075L100.98 121.467L100.876 122.299L100.564 123.339L98.7961 125.939L98.5881 128.227L98.0681 129.995L97.4442 131.659L96.9242 134.155L96.6122 135.923L96.4042 136.963L95.7802 137.691L92.6603 138.627L91.4124 138.523L89.7485 138.211L87.3566 136.963L85.0686 135.715L84.9647 134.571H84.5487L82.3648 137.691L79.9728 139.562L74.2531 141.538L69.7812 142.89L65.8294 144.034L63.8535 144.45L61.0456 145.282L59.6936 145.594L57.9257 146.114L54.8058 147.778L54.7018 148.61L54.2859 149.13L53.1419 149.65L52.4139 149.13L50.646 148.298L48.0461 147.05L43.3663 144.97L41.1824 144.242L36.5026 143.306L33.2787 142.474L30.8868 141.434L29.2228 140.706L25.375 137.691C24.9244 137.205 24.0023 136.235 23.9191 136.235C23.8359 136.235 23.4684 135.056 23.2951 134.467H22.6711L22.9831 137.171L23.1911 140.914H21.4232H15.5994L12.4795 141.122L12.1675 139.874L11.2316 137.171L10.5036 134.467L9.56762 132.283L8.83965 130.307L7.90369 127.499L6.55174 125.107L4.9918 122.403C4.74915 121.918 4.24303 120.926 4.15984 120.843C4.07664 120.76 3.91718 119.838 3.84785 119.387L3.43186 118.035L2.91189 115.435L2.39191 111.692L2.28791 110.132V107.948L3.01588 105.764L3.11988 104.516L2.39191 103.476L1.97592 101.708L1.76793 99.5241V98.0681L1.35195 93.7003L1.14395 90.3724L1.03996 87.0446L1.14395 85.6926L1.45594 85.3806C1.5946 85.2073 1.87193 84.8399 1.87193 84.7567C1.87193 84.6735 1.94126 84.3753 1.97592 84.2367V83.8207L1.66393 83.4047L0.727971 81.7408L0.207992 80.3888L0 77.165L0.103996 74.4611L0.623975 71.4452L0.831967 68.2213L1.14395 66.2454L1.35195 65.2054L1.55994 64.8934L1.97592 64.4775V63.8535V63.1255L1.55994 62.2935L1.14395 61.1496L1.35195 58.5497L1.55994 54.8058L1.87193 51.27L2.18391 49.1901L2.70389 46.5902L3.01588 45.9662L4.05584 43.5743L4.67982 41.0784L5.1998 38.3745L6.65574 34.8386L8.52766 30.7828C8.77032 30.3321 9.25564 29.41 9.25564 29.3268C9.25564 29.2228 9.98361 27.6629 10.0876 27.5589C10.1708 27.4757 10.8849 25.999 11.2316 25.271L13.2075 22.7751L14.0394 22.0471L15.1834 21.0072L16.2234 20.1752L19.2392 18.4073L20.6952 17.6793L22.8791 16.5353L24.959 15.5994L27.6629 14.5594L29.9508 13.6235L32.8627 11.9595L34.9426 10.8156L35.9826 9.35963L36.3986 7.27971L37.6465 4.78381L38.8945 2.4959L40.2464 1.66393L42.4303 1.14395L45.0302 0.311988Z" fill="#393540"/>
<path d="M56.4698 13.6235C57.1284 12.8609 58.4665 11.294 58.5497 11.1276V10.5036C57.7524 10.3996 56.0954 10.1916 55.8458 10.1916C55.5962 10.1916 54.1472 10.3996 53.4539 10.5036C52.5179 10.3996 50.5836 10.15 50.334 9.98365C50.022 9.77566 47.3181 10.1916 47.1101 10.1916C46.9021 10.1916 43.6783 10.3996 43.2623 10.5036C42.9295 10.5868 42.985 11.3703 43.0543 11.7516C43.401 12.2369 44.1359 13.2075 44.3023 13.2075C44.4686 13.2075 47.1448 15.9808 48.4621 17.3674L50.126 17.6793H52.5179C52.9686 17.194 53.9323 16.2234 54.1819 16.2234C54.4315 16.2234 55.8111 14.4901 56.4698 13.6235Z" fill="black"/>
<path d="M47.6301 167.641L48.7181 160.706L48.8541 160.57L49.398 160.706C49.8967 160.887 50.9212 161.25 51.03 161.25C51.166 161.25 53.2059 161.658 53.4779 161.658C53.7499 161.658 55.3818 161.794 55.5178 161.794C55.6266 161.794 57.739 162.066 58.7817 162.202L61.5016 162.61L63.9495 162.474H65.3094L65.4454 162.746L65.5814 164.106L65.4454 164.65L65.9894 164.242L66.1254 163.29L65.9894 162.61L66.1254 161.93H66.6693V162.61V163.97L65.4454 165.194L65.0374 167.913L63.2695 175.801L64.7654 181.241C65.1734 182.42 65.9507 184.728 65.8534 184.777C65.5814 184.913 64.6748 186.862 65.0374 187.769L64.6294 188.857L63.1335 189.809C61.8189 189.945 59.1352 190.625 58.9177 190.625C58.6457 190.625 53.4779 190.761 53.0699 190.761C52.6619 190.761 49.126 191.033 48.7181 191.033C48.3101 191.033 42.7343 191.712 42.4623 191.712C42.1903 191.712 38.1105 192.256 37.8385 192.256C37.5665 192.256 35.7986 191.712 35.3906 191.576C34.9826 191.44 33.3507 190.897 33.0787 190.625C32.8067 190.353 30.9028 189.809 30.9028 189.673C30.9028 189.564 30.4948 188.721 30.0868 188.313V186.137L30.3588 183.961L31.4467 182.873L37.0225 181.785L41.6463 180.289L45.3182 175.529L46.2702 174.033L46.9501 171.041L47.6301 167.641Z" fill="#38383A"/>
<path d="M30.6308 187.225L29.9508 186.273V188.721L31.3108 189.945L33.8947 191.305L35.5266 192.392H40.4224L47.3581 191.441L52.3899 191.033H53.2059C53.3419 191.033 57.8297 191.169 57.9657 191.169C58.0745 191.169 59.2803 190.987 59.8696 190.897L63.1335 190.217L64.3574 189.673L65.9894 188.177L66.2614 187.361L65.9894 186.137L65.8534 184.505L65.3094 184.097L64.7654 184.913L62.7255 186.681H61.3656H57.5577L55.3818 186.545L51.574 186.953L46.9501 188.313L41.6463 188.585H39.0624H36.7505C36.6145 188.585 34.9826 188.449 34.8466 188.449C34.7106 188.449 33.2147 188.177 33.0787 188.041C32.9427 187.905 31.7187 187.769 31.5827 187.769C31.4739 187.769 30.9028 187.406 30.6308 187.225Z" fill="#5A5B5F"/>
<path d="M83.5327 178.249L82.4448 171.313L82.3088 171.177L81.7648 171.313C81.2662 171.495 80.2417 171.857 80.1329 171.857C79.9969 171.857 77.957 172.265 77.685 172.265C77.413 172.265 75.781 172.401 75.6451 172.401C75.5363 172.401 73.4238 172.673 72.3812 172.809L69.6613 173.217L67.2134 173.081H65.8534L65.7174 173.353L65.5815 174.713L65.7174 175.257L65.1735 174.849L65.0375 173.897L65.1735 173.217L65.0375 172.537H64.4935V173.217V174.577L65.7174 175.801L66.1254 178.521L67.8934 186.409L66.3974 191.848C65.9894 193.027 65.2122 195.336 65.3095 195.384C65.5815 195.52 66.4881 197.47 66.1254 198.376L66.5334 199.464L68.0294 200.416C69.344 200.552 72.0276 201.232 72.2452 201.232C72.5172 201.232 77.685 201.368 78.093 201.368C78.5009 201.368 82.0368 201.64 82.4448 201.64C82.8528 201.64 88.4285 202.32 88.7005 202.32C88.9725 202.32 93.0524 202.864 93.3244 202.864C93.5963 202.864 95.3643 202.32 95.7723 202.184C96.1802 202.048 97.8122 201.504 98.0842 201.232C98.3562 200.96 100.26 200.416 100.26 200.28C100.26 200.171 100.668 199.328 101.076 198.92V196.744L100.804 194.568L99.7161 193.48L94.1403 192.392L89.5165 190.896L85.8447 186.137L84.8927 184.641L84.2127 181.649L83.5327 178.249Z" fill="#38383A"/>
<path d="M100.532 197.832L101.212 196.88V199.328L99.8521 200.552L97.2682 201.912L95.6363 203H90.7404L83.8047 202.048L78.7729 201.64H77.957C77.821 201.64 73.3331 201.776 73.1971 201.776C73.0883 201.776 71.8825 201.595 71.2932 201.504L68.0293 200.824L66.8054 200.28L65.1735 198.784L64.9015 197.968L65.1735 196.744L65.3095 195.112L65.8534 194.704L66.3974 195.52L68.4373 197.288H69.7973H73.6051L75.781 197.152L79.5889 197.56L84.2127 198.92L89.5165 199.192H92.1004H94.4123C94.5483 199.192 96.1802 199.056 96.3162 199.056C96.4522 199.056 97.9482 198.784 98.0842 198.648C98.2202 198.512 99.4441 198.376 99.5801 198.376C99.6889 198.376 100.26 198.014 100.532 197.832Z" fill="#5A5B5F"/>
<path d="M144.883 57.9827L145.359 58.518L145.478 59.5887L145.656 62.087L146.013 64.5258L146.489 67.0241L146.846 69.5818L147.322 72.1991L147.5 73.7456L148.095 77.3146L148.511 79.9319L148.987 83.1439L149.344 85.0474L149.523 86.5939L149.642 88.2595L150.177 91.2336L150.474 92.7802L150.95 94.2078L151.307 96.5871L151.486 99.4422L151.902 102.059L152.08 103.785L152.497 105.628L152.675 107.591L152.794 108.543L152.973 110.803V112.35L153.032 114.372L153.211 115.919L153.449 117.882L153.746 119.31L153.984 120.678L154.281 121.927L154.698 123.414L155.53 125.496L155.947 126.329L156.304 127.875V128.232L154.995 130.254L153.924 132.158L153.389 133.764L152.735 135.548L152.318 137.214L152.259 137.809V140.129L152.318 141.854L152.437 143.341L152.735 144.53L153.211 146.374L153.33 147.742L153.924 149.051L155.055 151.192L156.482 152.977L156.601 153.81L156.72 154.345L158.088 155.773L158.445 155.832H158.861L159.575 155.951L159.754 156.07L163.025 156.308H165.107L166.892 155.891L167.605 155.713L168.319 155.475L169.687 154.167L170.104 153.512L170.699 152.382L171.234 151.549L171.591 150.895L172.007 150.181L172.424 149.408L172.78 148.635L173.018 148.218L173.078 147.802L173.256 147.266L173.435 146.791L173.554 146.255L173.732 145.839L173.792 145.244L173.97 144.649L174.089 144.114V143.4L174.03 142.984C173.97 142.766 173.851 142.318 173.851 142.27C173.851 142.21 173.673 141.854 173.673 141.794C173.673 141.735 173.435 141.14 173.435 141.08C173.435 141.033 173.276 140.783 173.197 140.664L172.899 140.485L172.84 140.307L172.543 139.831L172.245 139.415V138.404L172.424 136.976L172.602 135.132L172.84 133.466L172.959 131.622L173.018 130.076L173.137 128.47V126.983L173.018 125.377L172.78 124.306L172.543 123.473L171.769 122.224L171.353 120.916L171.115 120.38L170.996 119.666L170.877 118.12L170.758 117.347L170.877 116.454L171.055 115.503L171.174 114.789V113.421L171.055 112.588L170.936 111.101L170.877 108.722L170.758 107.889L170.699 105.866L170.639 104.379L170.52 103.428L170.104 102.059L169.687 100.989L169.271 100.394V99.7991V99.0854L169.211 97.8957L169.093 97.3603V96.5871C169.073 96.4681 169.033 96.2183 169.033 96.1707C169.033 96.1231 169.152 95.8733 169.211 95.7543L169.33 95.3379L169.509 95.0405L169.568 94.2672L169.687 93.6724V91.65V90.2819C169.668 90.1827 169.616 89.9726 169.568 89.925L169.33 89.6871L169.271 89.4491L169.39 89.3896V89.1517V88.7948L169.271 88.6758L169.39 88.4974L169.747 87.7241L169.866 86.7129L170.163 85.2853L170.223 84.3336L170.401 82.906L170.58 81.8948L170.936 80.5267L171.055 79.575L171.234 78.0879L171.472 77.1362L171.65 76.1844L171.71 75.1732V74.281L171.531 73.3887L171.174 72.0801L170.818 71.0689L170.639 70.712V70.4146H170.877C170.925 70.4146 171.095 70.4543 171.174 70.4741L171.353 70.4146L171.472 70.2362L171.65 69.9387L171.769 69.7008V68.3327L171.829 67.7974V66.4292L171.769 65.656L171.591 65.2396L171.353 64.6448L171.234 64.2284L171.115 63.7525V63.3361L170.936 63.0387L170.758 62.7413L170.58 62.6818V62.5034H170.699L170.877 62.3844L170.996 62.1465V61.7896L170.877 61.6111L170.758 61.5517H170.639L170.58 61.4922V61.3732L170.639 61.3137L170.699 60.9568V59.4698V58.518L170.758 57.5663V56.0792L170.58 54.5922V53.7594L170.758 53.1646L170.936 52.6887V51.7965V50.9042L170.818 49.893L170.699 49.0602L170.52 48.2275L170.342 47.6921L170.223 47.1568L170.104 46.324L169.985 45.4913L169.806 44.599L169.687 43.5878L169.509 42.6956V41.268L169.628 40.4947L169.866 40.1973L170.044 39.7809L170.282 39.3645L170.461 38.6507L170.58 38.0559V36.5688L170.461 35.4387L169.568 32.8809L168.974 31.5723L168.557 29.8473L168.319 28.8361L168.617 27.7059L168.736 26.9326L168.855 26.0404L168.736 25.0886L168.617 24.7912V24.5533L168.736 24.4938L169.033 24.2559L169.271 24.018V23.2447L169.211 21.8171L168.974 20.6869L168.617 19.5567L167.784 18.486L167.13 17.9507L166.416 17.6533L165.583 17.0585L164.869 16.5826L163.858 16.0472C163.759 15.9878 163.549 15.8569 163.501 15.8093C163.442 15.7498 162.668 15.5714 162.668 15.5119C162.668 15.4524 161.955 15.3929 161.895 15.3929C161.836 15.3929 161.3 15.2145 161.241 15.155C161.193 15.1074 160.785 15.0162 160.586 14.9766L159.813 14.7386L158.683 14.6791L157.731 14.6197H157.017H155.828L155.352 14.5007L154.876 14.4412L154.222 14.2628H153.627C153.532 14.2628 153.072 14.3421 152.854 14.3817L152.378 14.4412C152.061 14.4214 151.438 14.3817 151.486 14.3817C151.533 14.3817 147.342 14.2231 145.24 14.1438L144.288 13.9653H141.671L138.637 13.7869L135.068 13.7274H132.927L131.678 13.8464L129.953 14.3222L128.287 14.9171L127.692 15.274H127.573L126.919 15.8093C126.642 15.849 126.063 15.9283 125.967 15.9283C125.848 15.9283 125.611 16.1662 125.551 16.2257C125.503 16.2733 125.055 16.6817 124.837 16.88L124.48 17.7128L124.361 18.486L123.826 19.4378L124.064 21.4007L124.837 22.055L124.064 23.0067L124.004 24.3749L123.529 25.624L123.41 27.349L123.529 28.7171V29.193L123.291 29.5499L122.042 31.8102L121.268 33.6542L120.733 35.4387L120.495 37.1637L120.436 38.8887L120.792 39.4835L121.328 40.2568L121.685 40.5542L121.566 42.9335L121.149 44.4206L120.673 45.9077L120.852 48.7034L120.733 50.6663L120.138 53.5809L119.9 56.7335L119.841 59.2318L119.424 59.5292L119.365 60.0646L119.543 60.243L119.484 60.4215L118.592 61.7301L118.056 63.2172L117.818 63.931L117.64 64.5853L117.58 65.537L117.283 66.6672V68.3327H118.056V68.6301L117.64 69.8198L117.461 70.831L117.223 71.4853L117.045 72.0206L117.104 72.7344L117.402 74.281L117.997 77.1362L118.056 77.5525V79.8129L118.235 81.8948L118.175 84.2741V85.7017L118.354 86.356L118.592 86.7129L118.711 87.0103L118.592 87.1888L118.711 87.6052L118.829 87.9621L118.651 88.2595L118.532 90.2224L117.759 92.0664L117.521 92.7802L117.461 94.1483L117.521 95.4569V97.5983L117.461 98.9664L117.045 99.9181L116.331 101.584L116.034 102.952L115.617 104.26L115.439 105.866L115.201 108.067V110.209L115.142 111.577L114.725 113.004L114.428 114.432L114.309 115.741L114.071 117.763L113.952 119.845V121.332L114.071 122.641V123.89L114.19 124.306L114.309 124.901L114.368 125.912V127.399V128.113L114.13 128.708L114.071 130.135L114.011 131.325L113.773 133.407L113.535 134.656L113.119 136.738L112.941 136.976L112.881 138.225L113 139.117L113.298 139.593V139.891L113.238 140.248L113 141.378L112.048 143.4L111.692 143.935L111.751 145.066L112.048 146.077L112.703 147.445L113.119 148.278L113.298 148.991L113.238 149.586L113.357 149.884C113.654 150.201 114.249 150.847 114.249 150.895C114.249 150.943 114.923 151.351 115.261 151.549L118.235 152.56L120.971 152.739H123.41L125.611 152.204L126.265 151.906L126.681 151.43L127.217 150.419L127.276 149.646L127.217 148.932V147.98L127.514 147.564L128.287 146.969L129.179 145.66L129.417 145.244L129.477 144.709L129.774 144.173L130.072 143.043L130.191 142.21V141.199L129.893 140.426L129.239 139.296L128.466 138.225L127.395 136.916L127.514 136.262L127.752 134.775L127.99 133.764L128.228 132.277L128.406 130.909L128.704 130.016L129.298 128.946L129.774 127.459L130.369 125.555L130.845 123.533L131.202 122.165L131.559 120.321L131.916 118.358L132.392 116.157L132.63 114.432L132.867 112.35L133.224 110.328L133.522 108.662L133.879 106.878L134.117 104.974L134.176 103.487H134.355L134.652 102.833L134.949 101.881L135.009 101.167L135.068 100.394V99.6207L135.723 98.3121L136.198 97.1819L136.615 96.1112L136.853 95.1595L137.626 92.0069L138.34 88.1405L138.875 85.3448L139.47 81.7163L140.124 78.2663L140.66 74.9353L141.373 71.9612L141.849 70.1767L142.206 68.7491L142.801 66.2508L143.217 65.0611L143.753 62.9792L144.11 61.2542L144.169 60.243L144.586 58.756L144.883 57.9827Z" fill="#302B32"/>
<path d="M126.146 17.1179L126.562 16.88H126.681L126.622 17.4154H127.098V19.3188L126.979 19.4973L125.492 21.1628L125.194 21.4007H124.897V21.0438V20.6274L124.778 20.33V20.0326L124.897 19.4378L125.016 18.605L125.194 18.1886C125.373 18.0498 125.73 17.7604 125.73 17.7128C125.73 17.6652 126.007 17.2964 126.146 17.1179Z" fill="#A8A8A8"/>
<path d="M166.892 18.4266L166.475 18.3076L166.535 18.605L166.654 18.9024L166.594 19.4973H166.178V20.0326L166.297 20.1516L166.356 20.8654L166.416 21.4007C166.475 21.4404 166.606 21.5197 166.654 21.5197C166.701 21.5197 166.832 21.6783 166.892 21.7576L167.011 22.174L167.546 22.7093L168.081 23.3042L168.2 23.5421L168.319 23.899L168.557 23.9585C168.597 23.8792 168.676 23.7086 168.676 23.6611C168.676 23.6135 168.756 23.4826 168.795 23.4231L168.736 23.1852L168.676 22.7688L168.617 22.2929L168.498 21.4602C168.438 21.3809 168.319 21.2104 168.319 21.1628C168.319 21.1152 168.042 20.8654 167.903 20.7464L167.606 20.0326C167.526 19.8541 167.368 19.4854 167.368 19.4378C167.368 19.3902 167.288 19.18 167.249 19.0809L166.892 18.4266Z" fill="#A8A8A8"/>
<path d="M126.146 17.1179L126.562 16.88H126.681L126.622 17.4154H127.098V19.3188L126.979 19.4973L125.492 21.1628L125.194 21.4007H124.897V21.0438V20.6274L124.778 20.33V20.0326L124.897 19.4378L125.016 18.605L125.194 18.1886C125.373 18.0498 125.73 17.7604 125.73 17.7128C125.73 17.6652 126.007 17.2964 126.146 17.1179Z" stroke="black"/>
<path d="M166.892 18.4266L166.475 18.3076L166.535 18.605L166.654 18.9024L166.594 19.4973H166.178V20.0326L166.297 20.1516L166.356 20.8654L166.416 21.4007C166.475 21.4404 166.606 21.5197 166.654 21.5197C166.701 21.5197 166.832 21.6783 166.892 21.7576L167.011 22.174L167.546 22.7093L168.081 23.3042L168.2 23.5421L168.319 23.899L168.557 23.9585C168.597 23.8792 168.676 23.7086 168.676 23.6611C168.676 23.6135 168.756 23.4826 168.795 23.4231L168.736 23.1852L168.676 22.7688L168.617 22.2929L168.498 21.4602C168.438 21.3809 168.319 21.2104 168.319 21.1628C168.319 21.1152 168.042 20.8654 167.903 20.7464L167.606 20.0326C167.526 19.8541 167.368 19.4854 167.368 19.4378C167.368 19.3902 167.288 19.18 167.249 19.0809L166.892 18.4266Z" stroke="black"/>
</svg>
