<svg width="137" height="153" viewBox="0 0 137 153" fill="none" xmlns="http://www.w3.org/2000/svg">
<path d="M71.9692 16.2062L85.7357 9.75855L86.0843 9.41003C86.607 7.31891 87.7571 2.92756 88.1754 2.09112C88.5936 1.25467 89.3952 0.697039 89.7437 0.522779L93.4032 0H102.465C103.917 0.116173 107.1 0.453075 108.215 0.871299C109.331 1.28952 112.862 7.43508 114.489 10.4556L119.194 12.5467C120.065 12.9533 122.226 13.9756 123.899 14.8121C125.572 15.6485 126.687 17.3679 127.035 18.123L128.604 23.8736L130.52 30.844L131.74 36.246L132.96 42.6936L134.006 47.7472L134.528 52.8007L135.051 56.2859L135.4 60.6424L135.923 65.6959L136.097 69.0069L136.271 74.7574L136.445 79.2882V86.0843C136.445 87.339 135.748 87.6527 135.4 87.6527L135.226 88.524C135.167 90.0342 135.051 93.1593 135.051 93.5775C135.051 93.9957 134.354 94.1003 134.006 94.1003L127.035 93.926L126.513 92.1834V88.1754H126.338L125.99 88.0012L125.641 87.6527L125.467 87.1299L125.293 85.5615V78.0684L125.118 71.2722L124.944 65.3474L124.421 61.688L123.027 54.369C122.191 48.3745 120.472 45.9465 119.716 45.4818V55.2403L120.065 66.5672V77.8941C120.123 79.4624 120.204 82.8431 120.065 83.8189C119.925 84.7948 119.31 85.2711 119.019 85.3873V90.6151C119.019 91.3121 118.059 91.4864 117.579 91.4864H102.813H101.942V88.8725H97.5854V91.4864H97.0626C91.4282 91.3702 79.9503 91.1378 79.1139 91.1378C78.2774 91.1378 77.9521 90.0923 77.894 89.5695V85.5615L77.3713 85.213L77.0227 84.516V78.4169V67.6128V63.9533V52.975C77.2551 50.6515 77.5804 45.9 77.0227 45.4818C76.4651 45.0636 75.6287 47.8633 75.2802 49.3155L72.492 59.9454L71.9692 70.0524L71.0979 78.7654V87.6527L69.5296 88.1754V94.1003L62.0364 93.7517L61.6879 88.1754L60.6423 87.6527V84.516V79.2882V72.8406L61.1651 66.7415L61.6879 60.2939L62.5592 53.8463L62.9077 49.3155L63.9533 42.8679L65.5216 36.246L66.9157 30.3212L69.1811 22.131L70.5751 18.4715L71.9692 16.2062Z" fill="#3D5652"/>
<path d="M96.1914 4.1822L93.229 6.09906L95.8429 7.6674L96.8885 8.01592H106.473L107.344 8.88722L107.518 8.36444V6.7961L106.473 6.09906L105.079 4.53072H101.071L98.8053 3.65942L96.1914 4.1822Z" fill="black"/>
<path d="M102.465 83.9932H97.934H97.5854V81.3793V64.1276V50.5353V37.1173V27.3588V19.8656L97.7597 8.19019H103.162V12.8952L102.813 20.5626L103.162 25.2676L102.639 28.5786V34.1549L102.813 40.0797L102.988 47.9214L102.639 51.5809L102.29 55.4146V66.0444L102.465 83.9932Z" fill="#CCCBC6"/>
<path d="M90.394 125.869L90.1322 125.546L89.8905 125.405L89.3869 125.365L88.8431 125.446L88.0173 125.748L87.2116 126.09L85.3988 127.037L84.9355 127.279L84.3514 126.755L83.9083 126.292L83.445 125.788L82.8206 125.224L82.458 125.063L82.0552 124.982L81.4308 124.942H80.0209L78.4901 124.862L77.2211 124.741H76.6168H75.4083L74.7235 124.882L73.9581 125.164L73.5552 125.526L73.2732 126.09L73.233 126.513L73.2934 127.581L73.233 127.661L73.1927 128.084L73.0718 128.467L73.0315 129.071L72.7093 129.796L72.4877 131.508L72.0446 133.08L71.7827 134.228L71.5209 135.315L71.3195 136.423L71.2389 137.491L71.3799 139.042L71.5209 139.948L71.4806 139.988L71.2389 140.29L71.118 140.613V140.935L71.1986 141.318L71.0979 145.205L71.1785 145.346L71.5209 145.709C71.6753 145.816 71.9882 146.035 72.0043 146.051C72.0204 146.067 72.4004 146.259 72.5884 146.353L73.7768 146.816L77.4225 147.965C77.8724 148.092 78.7841 148.351 78.8325 148.367C78.8808 148.383 79.054 148.374 79.1346 148.367L79.7791 148.025L80.3028 147.723L81.028 147.401L81.7531 147.119L82.1156 147.038L82.6796 147.401L83.6263 148.025L84.3715 148.589L84.8147 148.992L85.6808 149.838L87.1914 151.127L88.4604 151.892L90.0315 152.356L91.8241 152.597L93.7578 152.799L94.9462 152.919L95.8324 152.96L96.3762 153H97.2625H97.9876L98.8537 152.96L99.6191 152.919L100.505 152.879L101.674 152.778L102.983 152.678L104.292 152.537L105.964 152.295L107.414 152.033L109.428 151.57L110.999 151.107L112.651 150.502L114.363 149.878L116.035 149.072C116.431 148.811 117.243 148.275 117.324 148.226C117.405 148.178 117.411 148.099 117.405 148.065L117.143 147.3H117.042C117.058 147.042 116.888 146.763 116.8 146.655L116.317 146.635L116.257 146.212L116.095 145.769L115.753 145.225L114.988 144.722L113.074 143.835L111.362 143.332L109.066 142.869L106.709 142.244L105.42 141.781L103.869 141.016L102.52 140.17L101.19 139.203L100.042 138.256L98.8336 137.249L96.9201 135.497C96.6381 135.208 96.0701 134.622 96.054 134.59C96.0379 134.558 95.349 133.704 95.0066 133.281L93.9189 131.73V131.589V131.367L93.7981 131.166L93.5161 130.844L91.1796 127.117L90.394 125.869Z" fill="#3D3C42"/>
<path d="M96.8597 114.025L98.1286 114.448L98.3502 114.549L98.5919 114.609L98.894 114.086L99.0954 113.723L99.317 113.34L99.5788 113.099V113.038L99.6594 112.776L99.9817 112.232L100.244 111.91L100.445 111.527L100.727 111.004L100.888 110.621L100.948 110.299L101.009 110.077L101.11 109.715L101.251 109.332L101.452 109.07L101.674 108.768L101.774 108.627L101.935 108.466L102.117 108.305L102.439 108.103L102.701 107.962L103.124 107.821L103.366 107.781L104.353 107.519L104.735 107.439L105.078 107.318L105.339 107.257L105.682 107.157L106.065 107.096L106.407 107.036L106.669 106.995H107.172L107.616 107.056L107.918 107.076L108.24 107.157L108.522 107.217L108.804 107.298L109.046 107.398L109.328 107.519L109.549 107.64L109.811 107.761L110.093 107.922L110.697 108.345L111.04 108.607L111.382 108.949L111.684 109.272L111.986 109.674L112.228 110.037L112.43 110.48L112.57 110.863L113.175 110.903L113.779 111.004L114.424 111.104V111.286L114.242 111.628L114.605 111.89L115.29 112.514L115.511 112.373L115.914 112.595V112.172L116.015 112.051L116.055 111.95L116.075 111.83L116.136 111.789H116.357L116.518 111.668H116.8L116.961 111.769L117.163 111.991L117.405 112.253L117.606 112.555L117.707 112.917L117.727 113.481L117.666 113.783L117.505 114.126L117.445 114.287L117.425 114.549L117.344 115.032L117.445 115.314V115.918L117.324 116.341L117.405 116.744L117.505 117.389L117.546 117.933L117.626 118.517L117.707 119.181L117.767 119.604L117.888 120.209L117.948 120.591L118.13 121.155L118.19 121.518L118.311 121.881L118.412 122.263L118.492 122.847L118.533 123.21V123.814L118.492 124.378L118.432 124.781L118.351 125.325L118.271 125.687L118.17 126.07L118.11 126.453L118.029 126.654L118.049 126.775L118.089 126.815L118.19 126.916L118.291 127.097L118.351 127.238L118.371 127.601V128.177V129.132V129.897V130.844L118.351 131.488L118.311 131.972L118.251 132.193L118.009 132.576L117.606 132.898L117.082 133.221L116.82 133.341L116.438 133.462L116.015 133.603L115.31 133.744L115.129 133.784L114.806 133.825L114.343 133.845L113.779 133.865L113.336 133.946H112.772H111.866L111.281 133.905H110.758L110.315 133.845L109.851 133.805L109.005 133.643L107.877 133.382L107.354 133.241L106.85 133.059L106.286 132.878L105.984 132.717L105.46 132.435L104.876 132.113L104.292 131.79L103.728 131.468L102.499 130.743L102.177 130.562L102.056 130.441V129.696L102.117 129.635V129.535L102.056 129.494V128.91V128.084L102.016 127.903L101.956 127.802L101.835 127.681C101.794 127.661 101.714 127.617 101.714 127.601C101.714 127.581 101.553 127.54 101.533 127.54C101.517 127.54 101.405 127.46 101.351 127.42L101.19 127.339L100.908 127.258L100.646 127.178L100.465 127.138L100.203 127.057H100.042H99.4177H98.3099H97.2222L96.4568 127.097H94.9864C94.8723 127.084 94.64 127.057 94.6239 127.057C94.6078 127.057 94.3889 127.003 94.2815 126.976L93.8988 126.896L93.1334 126.594L92.3478 126.151L91.8644 125.768L91.4011 125.264L90.9379 124.7L90.5955 124.177L90.2933 123.572L90.0113 122.787L89.8905 122.344L89.8099 121.901L89.6286 120.914L89.5279 120.289L89.4474 119.645L89.3668 118.96V118.094L89.3869 117.308L89.5481 116.442L89.6085 116.039L89.8703 115.576L90.2128 114.972L90.6156 114.549L91.1594 114.126L91.8241 113.824L92.4687 113.663L93.1938 113.562L94.0599 113.522L94.926 113.562L95.9331 113.763L96.8597 114.025Z" fill="#3D3C42"/>
<path d="M78.49 130.662L78.8325 130.219L78.9936 130.159L79.2756 130.018L79.6784 129.978L79.9 130.119L80.5244 130.401L81.4509 130.683L81.6725 130.139L81.8538 129.917L82.1358 129.534L82.0552 129.514L79.8396 129.333L78.1879 129.132L76.5967 129.011V129.454L77.1405 129.675L77.2009 129.978L77.5836 130.119V130.28C77.6575 130.286 77.8133 130.296 77.8455 130.28C77.8777 130.264 77.9798 130.313 78.0268 130.34L78.1879 130.662H78.49Z" fill="black"/>
<path d="M102.56 113.803L102.862 113.582L102.963 113.501L103.084 113.562L103.285 113.763L103.587 114.307L103.688 114.206L104.01 114.408L104.312 114.529L104.594 114.649H104.775L105.078 114.367L105.279 114.106L105.541 113.743L105.823 113.381L106.004 113.159L106.185 112.978L106.306 112.937L106.508 112.857H106.83L107.293 112.937L107.857 113.159L108.341 113.36L109.066 113.522L109.811 113.622L110.335 113.642L109.811 113.582L109.106 113.36C108.79 113.26 108.151 113.054 108.119 113.038C108.087 113.022 107.394 112.857 107.052 112.776C106.77 112.756 106.202 112.716 106.185 112.716C106.169 112.716 105.346 112.783 104.937 112.817H103.507C103.204 112.857 102.592 112.933 102.56 112.917C102.528 112.901 102.103 112.951 101.895 112.978L101.996 113.159V113.501L102.197 113.582L102.318 113.803H102.56Z" fill="black"/>
<path d="M25.5838 63.0388L25.9506 63.4515L26.0423 64.2768L26.1798 66.2024L26.4549 68.0822L26.8217 70.0079L27.0968 71.9794L27.4636 73.9968L27.6011 75.1889L28.0596 77.9398L28.3806 79.9572L28.7474 82.433L29.0225 83.9002L29.16 85.0923L29.2517 86.376L29.6644 88.6685L29.8936 89.8606L30.2604 90.9609L30.5355 92.7949L30.673 94.9957L30.994 97.013L31.1315 98.3426L31.4525 99.764L31.59 101.277L31.6817 102.011L31.8193 103.753V104.945L31.8651 106.504L32.0027 107.696L32.1861 109.209L32.4153 110.309L32.5987 111.364L32.8279 112.327L33.1489 113.473L33.7908 115.078L34.1117 115.719L34.3868 116.912V117.187L33.3781 118.745L32.5528 120.213L32.1402 121.451L31.6359 122.826L31.3149 124.11L31.2691 124.568V126.356L31.3149 127.686L31.4066 128.832L31.6359 129.749L32.0027 131.171L32.0944 132.225L32.5528 133.234L33.424 134.884L34.5244 136.26L34.6161 136.902L34.7078 137.314L35.7623 138.415L36.0374 138.461H36.3583L36.9085 138.552L37.0461 138.644L39.5678 138.827H41.1725L42.5479 138.506L43.0981 138.369L43.6483 138.185L44.7029 137.177L45.0238 136.672L45.4823 135.801L45.8949 135.159L46.17 134.655L46.491 134.105L46.8119 133.509L47.087 132.913L47.2704 132.592L47.3162 132.271L47.4538 131.858L47.5913 131.492L47.683 131.079L47.8206 130.758L47.8664 130.299L48.004 129.841L48.0957 129.428V128.878L48.0498 128.557C48.004 128.389 47.9123 128.044 47.9123 128.007C47.9123 127.961 47.7747 127.686 47.7747 127.64C47.7747 127.594 47.5913 127.136 47.5913 127.09C47.5913 127.053 47.4691 126.861 47.408 126.769L47.1787 126.632L47.1329 126.494L46.9036 126.127L46.6744 125.806V125.027L46.8119 123.926L46.9495 122.505L47.1329 121.221L47.2246 119.8L47.2704 118.608L47.3621 117.37V116.224L47.2704 114.986L47.087 114.161L46.9036 113.519L46.3076 112.556L45.9866 111.547L45.8032 111.135L45.7115 110.584L45.6198 109.392L45.5281 108.796L45.6198 108.108L45.7574 107.375L45.8491 106.825V105.77L45.7574 105.128L45.6657 103.982L45.6198 102.148L45.5281 101.506L45.4823 99.9474L45.4364 98.8011L45.3447 98.0675L45.0238 97.013L44.7029 96.1877L44.3819 95.7292V95.2708V94.7206L44.3361 93.8036L44.2444 93.3909V92.7949C44.2291 92.7032 44.1985 92.5106 44.1985 92.474C44.1985 92.4373 44.2902 92.2447 44.3361 92.153L44.4278 91.8321L44.5653 91.6028L44.6112 91.0068L44.7029 90.5483V88.9894V87.9349C44.6876 87.8585 44.6478 87.6965 44.6112 87.6598L44.4278 87.4764L44.3819 87.293L44.4736 87.2472V87.0638V86.7887L44.3819 86.697L44.4736 86.5594L44.7487 85.9634L44.8404 85.184L45.0696 84.0836L45.1155 83.35L45.253 82.2496L45.3906 81.4702L45.6657 80.4156L45.7574 79.6821L45.8949 78.5358L46.0783 77.8022L46.2159 77.0687L46.2617 76.2892V75.6015L46.1242 74.9138L45.8491 73.9051L45.574 73.1256L45.4364 72.8505V72.6213H45.6198C45.6565 72.6213 45.7879 72.6519 45.8491 72.6672L45.9866 72.6213L46.0783 72.4838L46.2159 72.2545L46.3076 72.0711V71.0166L46.3534 70.6039V69.5494L46.3076 68.9534L46.17 68.6324L45.9866 68.1739L45.8949 67.853L45.8032 67.4862V67.1653L45.6657 66.936L45.5281 66.7068L45.3906 66.6609V66.5234H45.4823L45.6198 66.4317L45.7115 66.2483V65.9732L45.6198 65.8356L45.5281 65.7898H45.4364L45.3906 65.7439V65.6522L45.4364 65.6064L45.4823 65.3313V64.1851V63.4515L45.5281 62.7179V61.5717L45.3906 60.4254V59.7836L45.5281 59.3251L45.6657 58.9583V58.2705V57.5828L45.574 56.8034L45.4823 56.1615L45.3447 55.5196L45.2072 55.107L45.1155 54.6943L45.0238 54.0524L44.9321 53.4105L44.7946 52.7228L44.7029 51.9434L44.5653 51.2556V50.1553L44.657 49.5592L44.8404 49.33L44.9779 49.009L45.1613 48.6881L45.2989 48.1379L45.3906 47.6794V46.5332L45.2989 45.662L44.6112 43.6905L44.1527 42.6818L43.8317 41.3522L43.6483 40.5728L43.8776 39.7017L43.9693 39.1056L44.061 38.4179L43.9693 37.6843L43.8776 37.4551V37.2717L43.9693 37.2258L44.1985 37.0424L44.3819 36.859V36.263L44.3361 35.1626L44.1527 34.2915L43.8776 33.4203L43.2357 32.5951L42.7313 32.1824L42.1812 31.9532L41.5393 31.4947L40.9891 31.1279L40.2096 30.7152C40.1332 30.6694 39.9712 30.5685 39.9346 30.5318C39.8887 30.486 39.2927 30.3484 39.2927 30.3026C39.2927 30.2567 38.7425 30.2109 38.6966 30.2109C38.6508 30.2109 38.2381 30.0734 38.1923 30.0275C38.1556 29.9908 37.8408 29.9205 37.6879 29.89L37.0919 29.7066L36.2208 29.6607L35.4872 29.6149H34.937H34.02L33.6532 29.5232L33.2864 29.4773L32.7821 29.3398H32.3236C32.2502 29.3398 31.8957 29.4009 31.7276 29.4315L31.3608 29.4773C31.1162 29.462 30.6364 29.4315 30.673 29.4315C30.7097 29.4315 27.4789 29.3092 25.8589 29.2481L25.1253 29.1105H23.1079L20.7696 28.973L18.0187 28.9271H16.3681L15.4053 29.0188L14.0757 29.3856L12.7919 29.8441L12.3334 30.1192H12.2417L11.7374 30.5318C11.5234 30.5624 11.0771 30.6235 11.0038 30.6235C10.9121 30.6235 10.7287 30.8069 10.6828 30.8528C10.6462 30.8895 10.3008 31.2043 10.1326 31.3571L9.85755 31.999L9.76585 32.5951L9.35321 33.3286L9.53661 34.8417L10.1326 35.346L9.53661 36.0796L9.49076 37.1341L9.12397 38.0969L9.03227 39.4266L9.12397 40.4811V40.8479L8.94057 41.123L7.97774 42.8652L7.3817 44.2866L6.96906 45.662L6.78566 46.9917L6.73981 48.3213L7.01491 48.7798L7.42755 49.3758L7.70265 49.6051L7.61095 51.439L7.29 52.5853L6.92321 53.7315L7.06076 55.8864L6.96906 57.3994L6.51057 59.646L6.32717 62.076L6.28132 64.0017L5.96038 64.2309L5.91453 64.6436L6.05208 64.7811L6.00623 64.9187L5.31849 65.9273L4.90585 67.0736L4.72246 67.6238L4.58491 68.1281L4.53906 68.8617L4.30981 69.7328V71.0166H4.90585V71.2458L4.58491 72.1628L4.44736 72.9422L4.26396 73.4466L4.12642 73.8592L4.17227 74.4094L4.40151 75.6015L4.86 77.8022L4.90585 78.1232V79.8655L5.0434 81.4702L4.99755 83.3041V84.4045L5.1351 84.9089L5.31849 85.184L5.41019 85.4132L5.31849 85.5507L5.41019 85.8717L5.50189 86.1468L5.36434 86.376L5.27264 87.889L4.67661 89.3104L4.49321 89.8606L4.44736 90.9151L4.49321 91.9238V93.5743L4.44736 94.6289L4.12642 95.3624L3.57623 96.6462L3.34698 97.7008L3.02604 98.7094L2.88849 99.9474L2.7051 101.644V103.294L2.65925 104.349L2.3383 105.449L2.10906 106.55L2.01736 107.558L1.83396 109.117L1.74227 110.722V111.868L1.83396 112.877V113.84L1.92566 114.161L2.01736 114.619L2.06321 115.398V116.545V117.095L1.87981 117.553L1.83396 118.654L1.78811 119.571L1.60472 121.175L1.42132 122.138L1.10038 123.743L0.962831 123.926L0.916982 124.889L1.00868 125.577L1.23793 125.944V126.173L1.19208 126.448L1.00868 127.319L0.275094 128.878L0 129.291L0.0458491 130.162L0.275094 130.941L0.779434 131.996L1.10038 132.638L1.23793 133.188L1.19208 133.646L1.28377 133.876C1.51302 134.12 1.97151 134.618 1.97151 134.655C1.97151 134.692 2.49113 135.007 2.75094 135.159L5.0434 135.939L7.15246 136.076H9.03227L10.7287 135.664L11.233 135.435L11.554 135.068L11.9666 134.288L12.0125 133.692L11.9666 133.142V132.409L12.1959 132.088L12.7919 131.629L13.4796 130.62L13.663 130.299L13.7089 129.887L13.9381 129.474L14.1674 128.603L14.2591 127.961V127.182L14.0298 126.586L13.5255 125.715L12.9294 124.889L12.1042 123.881L12.1959 123.376L12.3793 122.23L12.5626 121.451L12.746 120.304L12.8836 119.25L13.1128 118.562L13.5713 117.737L13.9381 116.591L14.3966 115.123L14.7634 113.565L15.0385 112.51L15.3136 111.089L15.5887 109.576L15.9555 107.879L16.1389 106.55L16.3223 104.945L16.5974 103.386L16.8266 102.102L17.1017 100.727L17.2851 99.2596L17.331 98.1134H17.4685L17.6977 97.6091L17.927 96.8755L17.9728 96.3253L18.0187 95.7292V95.1332L18.523 94.1245L18.8898 93.2534L19.2108 92.4281L19.3942 91.6945L19.9902 89.2645L20.5404 86.2843L20.953 84.1294L21.4115 81.3326L21.9159 78.6734L22.3285 76.1058L22.8787 73.8134L23.2455 72.4379L23.5206 71.3375L23.9791 69.4119L24.3 68.4949L24.7127 66.8902L24.9877 65.5605L25.0336 64.7811L25.3545 63.6349L25.5838 63.0388Z" fill="#302B32"/>
<path d="M11.1413 31.5406L11.4623 31.3572H11.554L11.5081 31.7698H11.8749V33.237L11.7832 33.3745L10.637 34.6583L10.4077 34.8417H10.1785V34.5666V34.2457L10.0868 34.0164V33.7872L10.1785 33.3287L10.2702 32.6868L10.4077 32.3659C10.5453 32.2589 10.8204 32.0357 10.8204 31.9991C10.8204 31.9624 11.0343 31.6781 11.1413 31.5406Z" fill="#A8A8A8"/>
<path d="M42.5479 32.5493L42.227 32.4576L42.2729 32.6868L42.3645 32.916L42.3187 33.3745H41.9978V33.7872L42.0895 33.8789L42.1353 34.4291L42.1812 34.8417C42.227 34.8723 42.3279 34.9334 42.3645 34.9334C42.4012 34.9334 42.5021 35.0557 42.5479 35.1168L42.6396 35.4377L43.0523 35.8504L43.4649 36.3089L43.5566 36.4923L43.6483 36.7674L43.8317 36.8132C43.8623 36.7521 43.9234 36.6207 43.9234 36.584C43.9234 36.5473 43.9846 36.4464 44.0151 36.4006L43.9693 36.2172L43.9234 35.8962L43.8776 35.5294L43.7859 34.8876C43.74 34.8264 43.6483 34.695 43.6483 34.6583C43.6483 34.6216 43.4344 34.4291 43.3274 34.3374L43.0981 33.7872C43.037 33.6496 42.9147 33.3654 42.9147 33.3287C42.9147 33.292 42.8536 33.13 42.823 33.0536L42.5479 32.5493Z" fill="#A8A8A8"/>
<path d="M11.1413 31.5406L11.4623 31.3572H11.554L11.5081 31.7698H11.8749V33.237L11.7832 33.3745L10.637 34.6583L10.4077 34.8417H10.1785V34.5666V34.2457L10.0868 34.0164V33.7872L10.1785 33.3287L10.2702 32.6868L10.4077 32.3659C10.5453 32.2589 10.8204 32.0357 10.8204 31.9991C10.8204 31.9624 11.0343 31.6781 11.1413 31.5406Z" stroke="black"/>
<path d="M42.5479 32.5493L42.227 32.4576L42.2729 32.6868L42.3645 32.916L42.3187 33.3745H41.9978V33.7872L42.0895 33.8789L42.1353 34.4291L42.1812 34.8417C42.227 34.8723 42.3279 34.9334 42.3645 34.9334C42.4012 34.9334 42.5021 35.0557 42.5479 35.1168L42.6396 35.4377L43.0523 35.8504L43.4649 36.3089L43.5566 36.4923L43.6483 36.7674L43.8317 36.8132C43.8623 36.7521 43.9234 36.6207 43.9234 36.584C43.9234 36.5473 43.9846 36.4464 44.0151 36.4006L43.9693 36.2172L43.9234 35.8962L43.8776 35.5294L43.7859 34.8876C43.74 34.8264 43.6483 34.695 43.6483 34.6583C43.6483 34.6216 43.4344 34.4291 43.3274 34.3374L43.0981 33.7872C43.037 33.6496 42.9147 33.3654 42.9147 33.3287C42.9147 33.292 42.8536 33.13 42.823 33.0536L42.5479 32.5493Z" stroke="black"/>
</svg>
