<svg width="187" height="205" viewBox="0 0 187 205" fill="none" xmlns="http://www.w3.org/2000/svg">
<path d="M35.7929 1.77363L36.77 1.6108H37.5841C37.8736 1.5927 38.4743 1.55652 38.5612 1.55652H39.5925C39.6468 1.55652 40.7323 1.44796 40.7866 1.44796C40.8409 1.44796 41.9265 1.28512 41.9808 1.28512C42.035 1.28512 43.8805 1.17656 43.9348 1.068C43.9782 0.981158 45.147 0.995632 45.726 1.01373L47.3001 1.068H48.7657C48.8742 1.068 50.1226 1.17656 50.3397 1.17656C50.5134 1.17656 51.6424 1.28512 52.1852 1.3394H53.4879C53.5422 1.3394 54.8992 1.44796 55.0078 1.44796C55.1163 1.44796 57.5589 1.77363 57.6674 1.77363C57.7543 1.77363 58.6806 2.02694 59.133 2.15359L60.0557 2.20787L60.11 2.31642L60.1643 2.6421L60.5442 2.9135L61.0327 3.45629L61.7927 4.37903L62.2269 5.84457L62.9868 7.31011L63.5296 8.8842L64.0181 10.2955L64.1809 11.2725L64.0724 12.2495C64.0543 12.3943 64.029 12.6837 64.0724 12.6837C64.1158 12.6837 64.1628 12.7561 64.1809 12.7923L64.8323 13.7693L65.1037 14.9092L65.158 15.8319L65.4836 16.429L65.9179 17.4603L66.5149 18.7087H66.9492L67.8719 18.9801L69.7174 19.6858L70.6944 20.0114L72.2142 20.9342L73.137 21.477L74.6025 22.6711L75.3624 23.2139L76.2309 23.9195L76.8823 24.4623L77.4793 25.6022L77.805 26.3078L77.8593 26.7963L78.3478 27.8276L78.8906 29.1846L79.4334 30.5416L80.0847 32.0071L80.4647 33.5269L80.8446 34.8296L81.1703 35.8609L81.496 36.9465L81.8217 38.3578L82.0931 39.2805L82.4187 40.149L82.853 41.5603L83.2329 42.5373L83.5586 43.3515L83.83 44.437L83.9928 45.0724V46.9339L83.7757 47.5852L84.1557 48.128L84.6985 49.1593L85.0784 50.0278L85.4584 51.0591L85.8383 51.7647L86.2183 52.8503L86.4354 53.9902L86.5982 54.8044V55.9442V56.6499L86.7068 56.867L87.2496 58.0068L87.3581 58.5496L87.6838 59.5267L87.8466 60.9379L87.9552 61.8064L88.8237 62.4034L89.0951 62.9462L88.9322 63.5976L88.3352 65.0089L87.8466 66.6372L87.4667 67.3971L87.6295 67.6143L87.7924 68.3742L87.8466 68.8627L87.7924 70.2739V70.6539L87.5752 70.9796L87.1953 71.251L86.9239 71.4681V71.7937L87.141 72.1194L87.1953 73.4764L87.3039 75.539L87.2496 76.6789L87.0325 77.5473L86.4897 78.4158L86.0012 79.7728L85.3498 81.184L84.3185 82.7581L83.2329 83.898L82.5816 85.4721L82.0931 86.7748L81.3874 88.2403L80.2476 90.0858L78.9449 92.1484L77.9678 93.8311L77.2079 94.9167L76.828 94.9709H75.5796V95.5137L75.4167 96.545V97.1421L75.5253 97.2507C75.6519 97.4135 75.9052 97.75 75.9052 97.7935C75.9052 97.8369 76.1223 98.1372 76.2309 98.282L76.6651 99.259L77.1536 100.29L77.805 102.407L78.185 103.873L78.6735 105.284L79.2163 107.075L79.4877 108.324L79.8676 110.061L80.0847 111.309L80.1933 112.503V113.806L80.3561 115V117.171L80.3018 117.768L80.1933 118.311L79.9762 118.799L79.8133 119.125V119.342L80.0847 119.397L80.6275 119.994L81.0618 120.536L81.3331 121.296L81.8217 122.328L82.2016 123.196L82.3102 123.793L82.473 124.987V126.344L82.6901 128.461V129.927L82.853 130.307L82.9072 131.772L83.1786 132.912L83.5043 134.378L83.6129 135.3L83.6672 135.897L83.8843 136.549L83.9928 137.092V137.58V139.48V140.403L84.1014 141.434V143.768L84.2099 143.985L84.5356 144.528L84.8613 145.288L84.9698 145.776L85.1327 146.319L85.2412 147.73L85.4041 148.653L85.5126 149.304L85.5669 150.227L85.6212 151.096V152.344L85.6755 153.647L85.8383 154.244L85.8926 154.678L85.9469 156.524L86.164 157.121L86.2183 157.555L86.3268 157.772V159.889V161.3L86.2183 161.789L86.164 162.44L86.3268 162.603V163.254L86.7611 164.177V164.991L86.9239 165.588V166.565L87.0325 166.782L87.3581 167.596L87.4667 168.356L87.6295 169.551V170.907L87.9552 171.993L88.118 173.103V174.273L87.8466 175.304L87.9552 175.793L88.118 177.041L88.2809 178.072V178.995L88.3894 179.755L88.4437 180.406L88.2266 180.786L88.2809 181.275L88.498 181.926L88.8237 183.283L89.0951 184.152L89.0408 185.671V186.703L88.8779 187.408L88.7151 187.734L87.0325 186.974L86.9782 187.517L86.3268 187.843L85.6755 188.06L84.9698 188.223L84.3185 188.44L83.6672 188.657L82.853 188.982L82.0931 189.254L81.2789 189.471L80.2476 189.742L79.2163 189.959L78.2392 190.122L77.5879 190.231L76.7737 190.502L75.9052 190.828H75.091L74.4397 191.154L73.137 191.696L72.8656 191.751C72.6847 191.642 72.312 191.414 72.2685 191.371C72.2251 191.327 71.7438 191.099 71.5086 190.991L69.8802 191.045L69.5003 190.665L69.1746 190.882H68.1976H66.135H64.778L64.1809 190.719L63.421 190.611L62.824 190.502L62.2269 190.991L61.087 191.099L59.8929 191.371L59.5129 191.425L58.8616 192.565L58.5902 192.619L57.8303 192.076L57.4503 191.805L56.419 192.022L55.1706 192.131L54.6278 192.348L53.5422 192.619L52.8909 192.891L51.751 192.945L51.6967 192.782L51.751 192.185L51.8596 191.045L51.9681 190.828H51.3168L48.8742 190.774L48.2771 190.665H46.9744C46.931 190.665 46.305 190.484 45.9974 190.394H45.5632L43.7177 190.502L40.2981 190.611L37.6622 190.557L35.033 190.611L32.4276 190.557H29.8222H28.8995L28.6824 190.665L27.5425 190.611L25.8056 190.394L25.0457 188.982C24.919 188.982 24.6657 188.972 24.6657 188.928C24.6657 188.885 24.4486 188.765 24.34 188.711L23.363 187.517L23.0916 187.408L21.7889 186.106L21.0833 185.346L20.8119 184.477L20.4319 183.283L20.1063 181.492L19.8891 179.538L19.7806 177.638L19.6178 175.684L19.5092 173.73V171.939L19.5635 171.125L19.7806 170.148L19.9977 169.062L20.3234 168.465L19.4549 167.488L19.1292 166.239L18.695 164.231L18.5322 163.037L18.3693 160.703L18.3151 160.269V158.369V155.818L18.3693 154.787L18.4779 154.244V151.638V149.793V148.599L18.6407 147.513L18.695 146.808L18.9664 145.776L19.4006 145.016L18.4779 144.094L18.1522 143.659L17.7723 142.519L17.5009 141.163L17.4466 140.511L17.1752 139.046L16.9038 137.309L16.6867 134.758L16.5781 133.672L16.4696 132.369L16.4153 130.47L16.361 129.221V127.321L16.5238 125.802L16.741 124.662L17.0124 123.685L17.1209 123.033L17.3923 122.599L17.718 122.056L17.9351 121.839L16.9581 120.374L16.741 119.179L16.4696 118.365L16.361 116.628L16.2524 116.14V113.48V112.34V111.092V109.192V107.401L16.3067 106.695V104.09L16.361 102.88V101.81C16.361 101.767 16.5057 100.887 16.5781 100.453L16.8495 99.3133L17.0666 98.8248L17.6094 98.1191L17.0666 97.5763L16.741 96.925L16.5238 95.7309L16.5781 93.7768L16.6867 92.5827L13.9184 93.3426L11.9644 93.8311L10.8788 93.8854L10.4989 93.7768L9.57611 92.0941L8.87048 90.5201L8.00201 88.7831L7.45922 87.6975L7.07927 86.8291L6.42792 85.852V84.9836L5.83084 83.8437L5.61373 83.4638L5.55945 83.0295L5.28805 82.4867L5.23377 82.0525L5.07094 81.2383L4.9081 80.4241L4.74526 79.3928L4.6367 78.5244L4.52814 77.7102L4.03963 77.0045L3.76824 76.2989L3.44256 75.4847V74.7791L3.55112 73.9649V73.5307L3.44256 73.2593L3.22545 72.7165V71.9023V71.3052H3.17117L3.00833 71.251L2.73693 70.7624L2.46554 70.2196L2.19414 69.6226V69.1883V68.3742L2.3027 67.56L2.35698 66.6915H2.46554V66.4744H2.35698L2.0313 65.9316L1.97702 65.0089L1.70563 64.2489L1.59707 63.6519L1.48851 63.0005L1.2714 62.512L1.05428 61.7521L1 61.1007V60.2866L1.21712 59.798L1.48851 59.4724L1.59707 59.0381L1.75991 58.4953L1.92275 57.6812L2.13986 57.0841L2.46554 56.4327L2.68265 55.8357L2.95405 55.2929L3.334 54.6958L3.76824 54.0445L3.93107 53.556L4.20247 52.8503L4.41959 52.3618L4.74526 51.819L5.07094 51.2762L5.28805 50.9506V50.7334C5.28805 50.69 5.36043 50.4982 5.39661 50.4078L5.61373 50.2449L5.72229 49.9192L5.83084 49.5936L6.04796 49.1051L6.53647 48.3994L6.64503 47.9109L6.86215 47.2596L7.45922 46.0654L8.16485 45.197L8.38196 45.0341L8.49052 44.8713L8.38196 44.7627L8.32769 44.6542V43.9485L8.87048 42.7001L9.73894 40.8546L11.0959 38.3035L11.7473 36.7294L12.4529 35.2096L12.5072 34.6125L13.4299 32.767L15.1126 29.9988L16.0353 28.6418L16.5781 27.9362L20.1063 24.3538H20.6491L21.6804 23.3225L22.5488 23.0511L25.7513 21.9655L28.6824 20.5542L30.7993 19.6315L30.9078 18.6545L31.342 16.1576L32.1562 13.6608L32.7533 12.141L33.8389 9.69839L34.2731 8.82992L34.436 8.55853L34.2731 8.12429V6.82159L34.436 4.32475L34.5445 3.18489L35.0873 2.6421L35.1959 2.26215L35.7929 1.77363Z" fill="#39393B" stroke="black"/>
<path d="M59.1871 4.54185C59.1437 4.45501 58.8072 4.07143 58.6443 3.8905L57.613 3.94478L52.0766 4.37902L48.6027 4.43329L42.7948 4.10762L41.1122 3.99906H39.9723C39.8638 3.99906 38.5611 4.21618 38.5068 4.21618C38.4634 4.21618 38.0183 4.43329 37.8011 4.54185C37.8373 4.70469 37.9206 5.04122 37.964 5.08464C38.0183 5.13892 39.0496 6.33306 39.1038 6.38734C39.1473 6.43077 39.8457 7.0206 40.1894 7.31009C40.8046 7.36437 42.0566 7.48378 42.1435 7.52721C42.252 7.58149 43.2833 7.96144 43.2833 7.90716C43.2833 7.85288 43.3376 6.98441 43.3919 6.87586C43.4353 6.78901 43.6633 6.80348 43.7719 6.82158L44.7489 7.03869L46.1059 7.85288L47.2457 8.28711L48.0056 8.61279C48.657 8.68516 49.9705 8.84076 50.014 8.88418C50.0574 8.92761 50.7558 9.19177 51.0995 9.31842L52.348 10.024L52.1851 10.2412L52.6194 10.4583H54.5734L56.0389 9.48126L56.7989 9.20986L57.3959 8.61279L57.5588 8.17856L57.9387 7.85288L58.5901 7.25581L59.1329 6.44162L59.4043 6.11595V5.51888C59.4043 5.41032 59.2414 4.65041 59.1871 4.54185Z" fill="black"/>
<path d="M148.186 152.722C148.211 152.686 148.126 151.818 148.081 151.388L147.805 151.204C147.918 151.168 147.822 150.483 148.144 150.698C148.18 150.723 148.226 150.642 148.359 150.576L148.406 150.009L147.67 149.915L142.335 148.94L139.958 149.211L137.644 148.793L133.228 148.233L132.232 148.032L131.573 147.724L130.639 147.431L129.811 147.276L129.351 147.367L128.782 147.918L128.169 148.04L127.831 148.146L127.309 148.529L127.155 148.758L126.939 149.479L126.846 150.414L126.874 151.763L127.01 152.852L127.07 153.358L126.686 153.634L126.563 153.817L126.532 154.063L126.793 154.171L127.084 154.033L127.437 154.202L127.36 154.417L127.282 154.831L127.159 155.214L126.928 155.658L127.126 156.257L127.325 156.656L127.293 157.1L127.139 157.729L127.015 158.51L126.8 158.832L126.401 159.031L126.522 159.644C126.558 159.757 126.623 159.991 126.598 160.028L126.475 160.211L126.521 160.442L126.551 160.794L126.534 161.515L126.349 162.189L126.194 162.818L126.01 162.894L125.795 163.216L125.579 163.737L125.487 164.074L125.609 164.289L125.563 164.457L125.516 164.626C125.45 164.692 125.301 164.828 125.24 164.84C125.179 164.852 125.194 165.009 125.209 165.085L125.423 165.362L125.331 165.5L125.177 165.53L124.994 165.407L124.625 165.759L124.317 166.218L124.164 166.448L124.286 166.663L124.163 166.847L124.224 167.154L124.192 167.598L124.054 167.705L123.855 167.705L123.671 167.582L123.456 167.903L123.423 168.051L123.148 167.867L123.072 167.979L123.394 168.195L123.378 168.317L123.041 168.225L122.857 168.301L122.688 168.255L122.596 168.393L122.626 168.546L122.611 168.669L122.503 168.73L122.38 168.914C122.375 168.954 122.359 169.045 122.334 169.082C122.309 169.119 122.446 169.179 122.518 169.205L122.517 169.404L122.38 169.312L122.134 169.281L122.057 169.496L122.088 169.649L122.256 169.695L122.333 169.879L122.225 169.941L121.934 170.078L121.673 170.17L121.535 170.277L121.503 170.522L121.472 170.767L121.196 170.981L120.997 170.981L120.782 171.103L120.705 171.318L120.658 171.686L120.535 171.87L120.198 171.777L119.706 172.313L119.644 172.803L119.781 173.095L119.658 173.279L118.767 174.212L118.337 174.457L117.877 174.947L116.848 175.788L115.528 176.568L114.653 176.98L113.732 177.362L112.689 177.728L111.446 178.293L110.402 178.859L109.911 179.195L108.819 180.726L108.45 181.477L108.295 182.105L108.323 183.455L108.077 183.822L107.876 185.018L108.151 185.402C108.651 185.781 109.661 186.546 109.698 186.57C109.735 186.595 110.887 187.543 111.459 188.015C111.867 188.332 112.702 188.98 112.775 189.029C112.867 189.091 113.802 189.384 113.848 189.414C113.885 189.439 114.824 189.713 115.289 189.846L115.748 189.955L115.947 190.154L118.339 190.557C118.569 190.445 119.035 190.212 119.06 190.175C119.085 190.139 119.49 190.13 119.689 190.13L120.501 190.607L121.62 190.625L123.077 190.336L123.584 189.877L124.319 190.369L126.267 189.943L126.928 189.055L127.663 189.547L127.894 189.501C128.328 189.282 129.207 188.851 129.244 188.875C129.281 188.9 130.006 188.498 130.364 188.295L131.408 187.729L132.145 187.224L132.499 186.796L132.33 186.55L132.515 186.075L133.13 185.156L133.606 184.942L134.036 184.499L134.728 183.764L134.912 183.488L135.649 182.983L136.984 182.48L138.088 182.221L138.303 182.298L139.926 183.451L140.906 184.174L142.07 184.82L142.669 184.622C143.185 184.546 144.224 184.385 144.249 184.349C144.273 184.312 145.261 184.161 145.752 184.091C146.279 183.933 147.338 183.609 147.363 183.572C147.394 183.526 148.606 182.808 148.637 182.762C148.662 182.725 149.445 182.349 149.834 182.166L150.418 181.492L151.724 179.839L151.91 178.766L152.052 177.064L151.673 174.349C151.516 173.756 151.198 172.554 151.186 172.493C151.174 172.432 150.805 171.24 150.622 170.652L149.903 169.439L149.613 169.178L149.033 167.46L148.591 165.833L148.35 163.61L147.986 161.569L147.865 160.757L147.743 160.143L147.468 159.759L147.085 159.636L146.993 159.375L147.316 158.793L147.533 157.475C147.596 156.918 147.733 155.785 147.782 155.712C147.843 155.62 148.015 154.071 148.03 153.949C148.046 153.826 148.155 152.768 148.186 152.722Z" fill="#21202E"/>
<path d="M128.426 149.742L127.895 155.108L127.741 155.338L127.45 155.276L127.513 154.387L127.378 152.899L127.396 151.58L127.537 149.679L127.476 149.372L127.216 149.265L127.155 148.759L127.463 148.1L128.384 147.718L128.829 147.55C129.039 147.402 129.489 147.101 129.612 147.076C129.765 147.046 130.378 147.124 130.455 147.109C130.532 147.093 131.666 147.586 131.757 147.648C131.831 147.697 132.667 147.946 133.075 148.064L134.716 147.898C135.202 148.001 136.2 148.226 136.31 148.3C136.421 148.374 137.583 148.619 138.15 148.733L139.529 148.858C140.225 148.813 141.624 148.73 141.661 148.754C141.698 148.779 143.067 148.808 143.746 148.82L147.011 149.408L148.314 149.748L148.743 149.902L148.726 150.623L148.527 150.822L148.082 150.99L147.867 151.311L144.923 150.938L142.332 150.933L138.806 150.635L136.292 150.217L135.938 150.446L134.82 150.229C134.493 150.121 133.82 149.893 133.747 149.844C133.673 149.795 133.338 149.659 133.18 149.598L132.153 149.642L131.431 150.024L130.97 150.912L130.642 153.687L130.426 154.407L130.027 154.606C130.022 154.514 130.019 154.321 130.043 154.284C130.068 154.247 130.248 154.177 130.335 154.146C130.371 153.86 130.441 153.273 130.429 153.211C130.413 153.135 130.707 151.801 130.646 151.694C130.585 151.586 130.665 149.976 130.619 149.946C130.573 149.915 130.436 149.424 130.344 149.362C130.27 149.313 129.884 149.321 129.7 149.331L128.672 149.375L128.426 149.742Z" fill="#DDECF3"/>
<path d="M150.558 172.139C150.456 171.761 150.256 170.979 150.269 170.881L149.719 169.516L150.131 170.988L150.099 171.234L149.913 172.705L149.866 173.273L149.527 173.778L148.928 174.375L148.545 174.65L148.084 174.741L146.335 175.367L145.43 175.626L142.055 176.494L140.229 177.134L136.316 178.707L134.965 179.532L133.353 180.649L132.202 181.475L130.59 182.591L128.548 183.952L127.596 184.38L126.553 184.945L125.018 185.648L123.131 185.981L118.96 186.449L116.813 186.476C116.286 186.5 115.224 186.543 115.187 186.519C115.151 186.494 113.567 186.322 112.781 186.238L111.892 185.976L111.156 185.683L111.187 185.837L111.324 186.328L111.875 186.697L112.564 187.158L113.407 187.589L114.418 187.867L116.917 188.408L119.216 188.55L121.976 188.601L124.89 188.423L127.33 187.66L129.018 186.928L130.629 186.01L132.549 184.634L133.685 183.731L134.791 182.875C135.22 182.697 136.092 182.322 136.141 182.248C136.19 182.175 137.123 181.841 137.583 181.684L139.071 181.748C139.653 181.805 140.861 181.935 141.033 181.997C141.205 182.058 142.147 182.321 142.596 182.444L144.728 182.141C145.132 182.101 145.97 182.015 146.093 181.991C146.246 181.96 147.643 181.564 147.75 181.503C147.836 181.454 148.44 181.3 148.732 181.229L150.13 179.836C150.422 179.366 151.022 178.424 151.083 178.412C151.144 178.399 151.284 177.681 151.346 177.323C151.388 176.797 151.477 175.735 151.502 175.698C151.527 175.662 151.431 175.141 151.381 174.885L151.061 173.474L150.558 172.139Z" fill="#DDECF3"/>
<path d="M168.869 135.654C168.869 135.61 168.316 134.935 168.039 134.603H167.708C167.781 134.511 167.321 133.995 167.708 133.995C167.752 133.995 167.744 133.903 167.818 133.774L167.542 133.276L166.878 133.608L161.903 135.764L160.078 137.312L157.922 138.252L153.941 140.243L153.001 140.63L152.283 140.74L151.343 141.017L150.569 141.348L150.237 141.68L150.071 142.454L149.629 142.896L149.408 143.173L149.187 143.781V144.057L149.408 144.776L149.85 145.605L150.624 146.711L151.343 147.54L151.675 147.927L151.509 148.37V148.591L151.619 148.812L151.896 148.757L152.062 148.48L152.449 148.425L152.504 148.646L152.67 149.033L152.78 149.42L152.836 149.918L153.333 150.305L153.72 150.526L153.941 150.913L154.162 151.521L154.494 152.24V152.627L154.273 153.014L154.715 153.456C154.807 153.53 154.992 153.688 154.992 153.732V153.954L155.158 154.119L155.379 154.396L155.766 155.004L155.987 155.667L156.208 156.276L156.097 156.441V156.828L156.208 157.381L156.319 157.713L156.54 157.824L156.595 157.989L156.65 158.155C156.632 158.247 156.584 158.443 156.54 158.487C156.496 158.531 156.595 158.653 156.65 158.708L156.982 158.819V158.985L156.871 159.095H156.65L156.54 159.593V160.146V160.422L156.761 160.533V160.754L156.982 160.975L157.203 161.362L157.148 161.528L156.982 161.638H156.761V162.025L156.816 162.166H156.484V162.302H156.871L156.927 162.412L156.595 162.523L156.484 162.689L156.319 162.744V162.91L156.429 163.021L156.484 163.131L156.429 163.242V163.463C156.448 163.5 156.484 163.584 156.484 163.629C156.484 163.673 156.632 163.647 156.706 163.629L156.816 163.795H156.65L156.429 163.905L156.484 164.126L156.595 164.237L156.761 164.182L156.927 164.292L156.871 164.403L156.706 164.679L156.54 164.9L156.484 165.066L156.595 165.287L156.706 165.508L156.595 165.84L156.429 165.951L156.319 166.172L156.374 166.393L156.54 166.725V166.946L156.208 167.056L156.097 167.775L156.319 168.217L156.595 168.383V168.604L156.374 169.876L156.153 170.318L156.042 170.982L155.655 172.253L154.992 173.636L154.494 174.465L153.941 175.294L153.278 176.179L152.559 177.34L152.006 178.39L151.785 178.943L151.73 180.823L151.84 181.652L152.062 182.26L152.836 183.366V183.808L153.333 184.914L153.775 185.08C154.402 185.117 155.666 185.19 155.71 185.19C155.755 185.19 157.24 185.338 157.977 185.412C158.493 185.448 159.547 185.522 159.636 185.522C159.746 185.522 160.686 185.246 160.741 185.246C160.786 185.246 161.718 184.951 162.179 184.803L162.621 184.638L162.898 184.693L165.109 183.698C165.238 183.476 165.496 183.023 165.496 182.979C165.496 182.935 165.828 182.702 165.994 182.592L166.934 182.537L167.873 181.928L168.924 180.878L169.09 180.215H169.974L171.356 178.777L171.412 177.671H172.296L172.462 177.506C172.702 177.082 173.192 176.234 173.236 176.234C173.28 176.234 173.66 175.497 173.844 175.128L174.397 174.078L174.729 173.249L174.784 172.696L174.508 172.585L174.397 172.088V170.982L174.674 170.539L174.784 169.931L174.95 168.936V168.604L175.282 167.775L176.111 166.614L176.885 165.785L177.106 165.73L179.097 165.785L180.313 165.84L181.64 165.73L182.027 165.232C182.414 164.882 183.188 164.17 183.188 164.126C183.188 164.082 183.925 163.408 184.293 163.076C184.644 162.652 185.344 161.793 185.344 161.749C185.344 161.694 185.952 160.422 185.952 160.367C185.952 160.323 186.394 159.574 186.616 159.206L186.726 158.321L186.892 156.22L186.45 155.225L185.62 153.732L183.796 151.687C183.335 151.281 182.403 150.459 182.358 150.415C182.314 150.371 181.345 149.586 180.866 149.199L179.594 148.591L179.207 148.536L177.77 147.43L176.498 146.324L175.061 144.61L173.623 143.117L173.07 142.509L172.628 142.067L172.186 141.901L171.799 142.012L171.578 141.846L171.522 141.182L170.969 139.966C170.711 139.469 170.195 138.451 170.195 138.363C170.195 138.252 169.477 136.87 169.421 136.76C169.366 136.649 168.869 135.709 168.869 135.654Z" fill="#21202E"/>
<path d="M150.79 144.168L153.333 148.922V149.199L153.057 149.309L152.614 148.535L151.675 147.374L150.956 146.269L150.016 144.61L149.795 144.389L149.518 144.444L149.187 144.057L149.076 143.339L149.629 142.509L149.905 142.122C149.997 141.883 150.204 141.381 150.292 141.293C150.403 141.182 150.956 140.906 151.011 140.851C151.066 140.795 152.283 140.574 152.393 140.574C152.482 140.574 153.315 140.316 153.72 140.187L154.992 139.137C155.452 138.952 156.407 138.584 156.54 138.584C156.672 138.584 157.774 138.142 158.309 137.92L159.525 137.257C160.078 136.833 161.195 135.985 161.239 135.985C161.283 135.985 162.437 135.248 163.008 134.88L166.049 133.553L167.321 133.111L167.763 133L168.15 133.608L168.095 133.885L167.818 134.272V134.659L165.164 135.985L163.008 137.423L159.912 139.137L157.59 140.187L157.424 140.574L156.374 141.017C156.042 141.109 155.357 141.293 155.268 141.293C155.18 141.293 154.826 141.367 154.66 141.404L153.831 142.012L153.444 142.73L153.554 143.726L154.826 146.213L155.047 146.932L154.826 147.319C154.771 147.245 154.66 147.087 154.66 147.043C154.66 146.999 154.771 146.84 154.826 146.766C154.697 146.508 154.428 145.981 154.384 145.937C154.328 145.882 153.831 144.61 153.72 144.555C153.61 144.5 152.78 143.117 152.725 143.117C152.67 143.117 152.283 142.786 152.172 142.786C152.084 142.786 151.767 143.007 151.619 143.117L150.79 143.726V144.168Z" fill="#DDECF3"/>
<path d="M181.64 150.47C181.345 150.212 180.744 149.674 180.7 149.586L179.484 148.757L180.645 149.752L180.755 149.973L181.419 151.3L181.695 151.797V152.406L181.529 153.235L181.363 153.677L181.032 154.009L179.926 155.502L179.318 156.22L176.996 158.819L175.835 160.367L173.457 163.85L172.794 165.287L172.075 167.112L171.578 168.439L170.859 170.263L169.919 172.53L169.366 173.414L168.813 174.465L167.929 175.902L166.547 177.229L163.34 179.938L161.571 181.154C161.147 181.468 160.288 182.094 160.244 182.094C160.2 182.094 158.788 182.831 158.088 183.2L157.203 183.476L156.429 183.642L156.54 183.753L156.927 184.085H157.59H158.419L159.359 183.974L160.354 183.642L162.732 182.702L164.722 181.541L167.044 180.049L169.366 178.28L170.969 176.289L171.965 174.741L172.794 173.083L173.623 170.871L174.065 169.489L174.508 168.162C174.766 167.775 175.282 166.979 175.282 166.891C175.282 166.802 175.871 166.006 176.166 165.619L177.438 164.845C177.954 164.569 179.03 164.005 179.207 163.96C179.384 163.916 180.313 163.61 180.755 163.463L182.358 162.025C182.672 161.767 183.32 161.229 183.409 161.141C183.519 161.03 184.459 159.924 184.515 159.814C184.559 159.725 184.975 159.261 185.178 159.04L185.565 157.105C185.547 156.552 185.521 155.435 185.565 155.391C185.609 155.347 185.325 154.672 185.178 154.341C184.92 153.88 184.404 152.947 184.404 152.903C184.404 152.859 184.035 152.479 183.851 152.295L182.801 151.3L181.64 150.47Z" fill="#DDECF3"/>
</svg>
