<svg width="157" height="222" viewBox="0 0 157 222" fill="none" xmlns="http://www.w3.org/2000/svg">
<path d="M57.4075 197.4C57.3608 197.306 56.9596 196.621 56.7648 196.29L56.7064 195.647L56.0636 193.368L54.2522 190.446C52.3045 190.291 48.409 189.944 48.409 189.804C48.409 189.663 42.6047 188.966 39.7026 188.635L32.866 189.219L31.1715 190.739V191.323L30.9962 191.44C30.8209 191.537 30.4469 191.744 30.3534 191.79C30.2365 191.849 29.3016 192.55 29.1848 192.667C29.0679 192.784 28.133 193.31 27.9577 193.368C27.7824 193.426 26.9059 194.361 26.8475 194.361C26.8007 194.361 25.8541 194.829 25.3867 195.063L24.627 196.056L23.4 196.874L22.6404 197.809L21.8223 198.744L20.8289 199.036L19.1928 199.737C18.628 200.049 17.4749 200.684 17.3814 200.73C17.2646 200.789 16.0959 201.899 15.9791 201.958C15.8856 202.004 15.3558 202.483 15.1026 202.717C14.2261 203.418 12.4498 204.844 12.3563 204.938C12.2628 205.031 11.8499 205.678 11.6551 205.989L11.4214 206.632L10.8955 208.502L10.837 209.612L11.8888 211.774L15.3947 213.586C15.9206 213.878 17.0075 214.462 17.1477 214.462C17.288 214.462 18.0242 214.579 18.3748 214.637C20.4199 214.949 24.5452 215.572 24.6855 215.572H28.0746C28.2498 215.572 30.6456 214.988 31.0546 214.813C31.4636 214.637 32.457 214.637 32.866 214.462C33.275 214.287 34.9696 213.761 35.1449 213.586C35.3202 213.41 37.5406 212.826 37.7159 212.709C37.8912 212.592 39.6441 212.242 39.7026 212.242C39.761 212.242 44.7862 210.138 45.1952 209.963C45.6042 209.787 46.8313 209.378 47.1819 209.203C47.5325 209.028 48.7011 208.794 48.8764 208.677C49.0517 208.56 50.5125 208.093 50.6294 207.918C50.7463 207.742 51.7396 207.509 51.9733 207.45C52.2071 207.392 53.3173 206.983 53.4342 206.924C53.551 206.866 54.8365 206.398 55.0118 206.223C55.1871 206.048 56.1805 205.522 56.2973 205.464C56.4142 205.405 56.7064 204.762 56.8232 204.704C56.9401 204.645 57.2907 204.178 57.2907 204.061C57.2907 203.968 57.3881 203.224 57.5244 203.068C57.5634 202.659 57.6997 201.736 57.6997 201.549V200.088C57.6413 199.601 57.5361 198.58 57.5828 198.393C57.6413 198.159 57.466 197.517 57.4075 197.4Z" fill="#BF997A"/>
<path d="M57.5828 180.046C56.9401 179.403 55.6312 178.106 55.5377 178.059L55.0703 177.884C54.8365 177.786 54.3574 177.58 54.3106 177.533C54.2639 177.486 53.9406 177.202 53.7847 177.066C53.5315 177.066 53.0134 177.007 52.9667 176.773C52.92 176.54 52.6745 176.676 52.5577 176.773C52.4798 176.871 52.3006 177.066 52.2071 177.066C52.0902 177.066 51.5643 177.241 51.4475 177.241C51.354 177.241 51.4085 177.046 51.4475 176.949L51.0969 176.773L50.3957 176.423C50.2788 176.364 49.5776 176.773 49.4608 176.773C49.3439 176.773 48.5843 176.949 48.4674 176.949H48.0584C47.8636 176.832 47.439 176.598 47.2988 176.598C47.1585 176.598 46.8897 176.832 46.7729 176.949L45.7211 177.066C45.9548 176.949 45.242 176.773 45.1952 176.773C45.1485 176.773 44.903 176.657 44.7862 176.598H43.5591C43.3254 176.598 43.0722 176.91 42.9748 177.066H42.332L41.9814 176.949L40.9881 176.773C40.8712 176.949 40.6024 177.288 40.4622 177.241C40.2869 177.182 40.0532 177.124 39.761 176.949C39.4688 176.773 38.8261 176.773 38.5339 176.773C38.2418 176.773 38.008 176.773 37.8912 176.598C37.7743 176.423 37.6574 176.364 37.5406 176.306C37.4237 176.247 37.19 176.773 37.0147 176.773C36.8394 176.773 36.6641 176.949 36.5472 176.949C36.4304 176.949 35.9629 176.715 35.7876 176.598C35.6123 176.481 35.2617 176.89 35.1449 176.949C35.028 177.007 34.8527 177.591 34.5605 177.708C34.2684 177.825 34.2684 178.176 34.0931 178.293C33.9178 178.409 33.5672 178.819 33.4503 178.819H32.866C32.6712 179.189 32.2583 179.94 32.1648 179.987C32.0713 180.034 32.009 180.591 31.9895 180.864C31.8727 181.565 31.6039 183.026 31.4636 183.259C31.2883 183.552 31.2299 184.253 31.113 184.428C30.9962 184.603 31.3468 186.123 31.3468 186.298C31.3468 186.473 31.5805 187.408 31.6389 187.583C31.6974 187.759 31.3468 187.876 30.7624 188.226C30.295 188.507 30.256 189.083 30.295 189.336V190.972C30.7819 191.031 31.7908 191.148 31.9311 191.148C32.1064 191.148 34.3268 194.069 34.6774 194.245C35.028 194.42 35.6707 194.595 36.0213 194.595C36.3719 194.595 36.781 195.063 37.1316 195.238C37.4821 195.413 37.8327 195.647 38.1249 195.881C38.4171 196.114 38.7092 195.647 38.8845 195.647C39.0598 195.647 39.4688 195.881 39.8194 195.881C40.17 195.881 40.6375 196.29 40.9297 196.407C41.2218 196.523 41.6893 196.64 41.8646 196.64C42.0399 196.64 42.332 196.816 42.4489 196.816C42.5658 196.816 43.2085 197.166 43.5007 197.166C43.7928 197.166 44.4356 197.4 44.7277 197.342C45.0199 197.283 45.6627 196.991 45.8964 196.816C46.1301 196.64 46.5976 196.64 46.7729 196.64C46.9482 196.64 47.4741 196.991 47.7662 197.166C48.0584 197.342 48.7596 197.517 48.9349 197.517C49.1102 197.517 49.8114 197.166 49.9867 197.166C50.1619 197.166 50.6294 196.991 50.7463 196.991C50.8398 196.991 51.3695 197.108 51.6228 197.166C52.3824 197.03 53.9133 196.734 53.96 196.64C54.0185 196.523 54.3106 196.348 54.4859 196.29C54.6262 196.243 54.6612 195.998 54.6612 195.881C54.7391 195.959 54.9183 196.114 55.0118 196.114H56.0636H56.8232C56.9401 196.114 57.5828 195.764 57.5828 195.647C57.5828 195.554 58.0114 195.491 58.2256 195.472L58.1087 194.361L58.4593 194.595C58.4593 194.264 58.4944 193.555 58.6346 193.368C58.8099 193.134 58.8099 192.024 58.9852 191.732C59.1605 191.44 58.6346 190.447 58.6346 190.33C58.6346 190.236 58.5178 188.031 58.4593 186.941C58.5178 186.746 58.6346 186.333 58.6346 186.239C58.6346 186.123 58.9852 184.662 58.9852 184.311V182.5L58.6346 181.214L57.5828 180.046Z" fill="#FAEBE5"/>
<path d="M51.2137 181.039C51.6228 180.864 52.4408 181.039 52.6161 180.805L53.7263 179.461L53.4342 178.818H52.6161H51.2137C50.8047 178.663 49.9048 178.351 49.5776 178.351C49.2504 178.351 48.4285 178.234 48.0584 178.176L45.7211 178.351H43.5591H42.4489H41.1049L39.0598 178.818C39.1767 179.189 39.4805 179.929 39.761 179.929H41.1049C41.5724 179.929 42.9163 180.805 43.5591 180.805C44.2019 180.805 45.3121 181.039 46.1301 181.039C46.9482 181.039 47.4156 181.682 48.2337 181.623C49.0517 181.565 49.1102 181.039 49.5776 181.039C50.0451 181.039 50.8047 181.214 51.2137 181.039Z" fill="black" stroke="black"/>
<path d="M57.6998 203.535C57.6998 203.477 57.583 203.126 57.5245 203.068L56.5896 204.295L55.3626 204.938C54.8172 205.152 53.7031 205.592 53.6096 205.639C53.5161 205.686 52.2851 206.126 51.6813 206.34C51.1554 206.535 50.0803 206.936 49.9868 206.983C49.8699 207.041 48.2922 207.45 48.0585 207.509C47.8248 207.567 46.3056 208.327 45.955 208.327C45.6745 208.327 44.0851 209.106 43.3255 209.495C42.488 209.826 40.7895 210.489 40.6961 210.489C40.6026 210.489 38.9041 211.268 38.0666 211.657L35.2034 212.534L31.6975 213.644C30.2367 213.995 27.28 214.696 27.1398 214.696C26.9645 214.696 25.4452 214.696 25.2115 214.579C25.0245 214.485 23.887 214.54 23.3417 214.579L20.1863 214.112C19.7968 214.034 19.006 213.878 18.9593 213.878C18.9008 213.878 17.2647 213.527 17.0894 213.41C16.9141 213.293 15.9208 213.177 15.6286 213.06C15.3365 212.943 14.5184 212.592 14.4015 212.475C14.2847 212.359 13.116 212.183 13.116 212.066C13.116 211.95 12.0642 211.131 11.8305 210.956C11.6435 210.816 11.3631 210.625 11.2462 210.547L10.8372 209.495L10.0775 210.197V210.956L9.84382 211.482L9.72696 212.592L9.31793 213.644L9.14263 214.871L9.43479 215.923L9.96068 217.384L13.3498 219.546C13.8951 219.799 15.0326 220.305 15.2196 220.305C15.4533 220.305 17.2063 220.948 17.4984 220.948C17.7906 220.948 20.3616 221.708 20.6538 221.708C20.9459 221.708 23.1664 222 23.2832 222C23.4001 222 28.3668 221.883 28.4837 221.825C28.6006 221.766 30.412 221.649 30.6457 221.532C30.8794 221.416 33.1583 221.065 33.3336 220.948C33.4738 220.855 34.8334 220.403 35.4956 220.188L42.5075 217.442C43.1113 217.189 44.3539 216.659 44.4942 216.566C44.6694 216.449 46.1887 215.864 46.3056 215.806C46.4224 215.748 48.4675 214.871 48.7013 214.754C48.935 214.637 50.4542 214.17 50.688 214.053C50.9217 213.936 53.259 213.177 53.4343 213.06C53.5745 212.966 54.6224 212.592 55.1288 212.417C56.0248 211.93 57.8167 210.944 57.8167 210.898C57.8167 210.839 58.2842 210.547 58.3426 210.489C58.401 210.43 58.5763 209.729 58.5763 209.671C58.5763 209.612 58.6932 208.794 58.6348 208.736C58.588 208.689 58.5374 208.327 58.5179 208.151L58.2257 207.742L58.1673 205.171C58.1283 205.016 58.0504 204.681 58.0504 204.587C58.0504 204.47 57.8751 204.178 57.8751 204.12C57.8751 204.061 57.6998 204.003 57.6998 203.944V203.535Z" fill="#D8CFCE"/>
<path d="M48.0356 186.882C48.0823 186.789 48.4835 186.103 48.6783 185.772L48.7368 185.129L49.3795 182.85L51.1909 179.929C53.1387 179.773 57.0341 179.426 57.0341 179.286C57.0341 179.146 62.8384 178.448 65.7405 178.117L72.5771 178.702L74.2717 180.221V180.805L74.447 180.922C74.6222 181.019 74.9962 181.226 75.0897 181.273C75.2066 181.331 76.1415 182.032 76.2584 182.149C76.3752 182.266 77.3101 182.792 77.4854 182.85C77.6607 182.909 78.5372 183.844 78.5956 183.844C78.6424 183.844 79.589 184.311 80.0564 184.545L80.8161 185.538L82.0431 186.356L82.8028 187.291L83.6208 188.226L84.6142 188.518L86.2503 189.219C86.8151 189.531 87.9682 190.166 88.0617 190.213C88.1785 190.271 89.3472 191.381 89.464 191.44C89.5575 191.487 90.0873 191.966 90.3405 192.199C91.217 192.901 92.9934 194.326 93.0868 194.42C93.1803 194.513 93.5933 195.16 93.788 195.472L94.0218 196.114L94.5476 197.984L94.6061 199.094L93.5543 201.256L90.0484 203.068C89.5225 203.36 88.4356 203.944 88.2954 203.944C88.1552 203.944 87.4189 204.061 87.0683 204.12C85.0232 204.431 80.8979 205.055 80.7576 205.055H77.3686C77.1933 205.055 74.7975 204.47 74.3885 204.295C73.9795 204.12 72.9861 204.12 72.5771 203.944C72.1681 203.769 70.4736 203.243 70.2983 203.068C70.123 202.893 67.9025 202.308 67.7272 202.191C67.5519 202.075 65.799 201.724 65.7405 201.724C65.6821 201.724 60.6569 199.62 60.2479 199.445C59.8389 199.27 58.6118 198.861 58.2612 198.685C57.9106 198.51 56.742 198.276 56.5667 198.16C56.3914 198.043 54.9306 197.575 54.8137 197.4C54.6968 197.225 53.7035 196.991 53.4698 196.932C53.236 196.874 52.1258 196.465 52.009 196.407C51.8921 196.348 50.6066 195.881 50.4313 195.705C50.256 195.53 49.2626 195.004 49.1458 194.946C49.0289 194.887 48.7368 194.245 48.6199 194.186C48.503 194.128 48.1524 193.66 48.1524 193.543C48.1524 193.45 48.055 192.706 47.9187 192.55C47.8798 192.141 47.7434 191.218 47.7434 191.031V189.57C47.8018 189.083 47.907 188.062 47.8603 187.875C47.8018 187.642 47.9771 186.999 48.0356 186.882Z" fill="#BF997A"/>
<path d="M47.8605 169.528C48.5033 168.885 49.8122 167.588 49.9056 167.541L50.3731 167.366C50.6068 167.268 51.086 167.062 51.1327 167.015C51.1795 166.968 51.5028 166.684 51.6586 166.548C51.9118 166.548 52.4299 166.489 52.4767 166.256C52.5234 166.022 52.7688 166.158 52.8857 166.256C52.9636 166.353 53.1428 166.548 53.2363 166.548C53.3531 166.548 53.879 166.723 53.9959 166.723C54.0894 166.723 54.0349 166.528 53.9959 166.431L54.3465 166.256L55.0477 165.905C55.1645 165.847 55.8657 166.256 55.9826 166.256C56.0995 166.256 56.8591 166.431 56.9759 166.431H57.385C57.5797 166.314 58.0044 166.08 58.1446 166.08C58.2848 166.08 58.5536 166.314 58.6705 166.431L59.7223 166.548C59.4885 166.431 60.2014 166.256 60.2482 166.256C60.2949 166.256 60.5403 166.139 60.6572 166.08H61.8843C62.118 166.08 62.3712 166.392 62.4686 166.548H63.1113L63.4619 166.431L64.4553 166.256C64.5721 166.431 64.8409 166.77 64.9812 166.723C65.1565 166.665 65.3902 166.606 65.6824 166.431C65.9745 166.256 66.6173 166.256 66.9094 166.256C67.2016 166.256 67.4353 166.256 67.5522 166.08C67.6691 165.905 67.7859 165.847 67.9028 165.788C68.0196 165.73 68.2534 166.256 68.4287 166.256C68.604 166.256 68.7793 166.431 68.8961 166.431C69.013 166.431 69.4805 166.197 69.6557 166.08C69.831 165.963 70.1816 166.372 70.2985 166.431C70.4154 166.489 70.5907 167.074 70.8828 167.19C71.175 167.307 71.175 167.658 71.3503 167.775C71.5256 167.892 71.8762 168.301 71.993 168.301H72.5774C72.7721 168.671 73.1851 169.423 73.2785 169.469C73.372 169.516 73.4344 170.073 73.4538 170.346C73.5707 171.047 73.8395 172.508 73.9797 172.742C74.155 173.034 74.2135 173.735 74.3303 173.91C74.4472 174.085 74.0966 175.605 74.0966 175.78C74.0966 175.955 73.8629 176.89 73.8044 177.066C73.746 177.241 74.0966 177.358 74.6809 177.708C75.1484 177.989 75.1873 178.565 75.1484 178.818V180.455C74.6614 180.513 73.6525 180.63 73.5123 180.63C73.337 180.63 71.1166 183.552 70.766 183.727C70.4154 183.902 69.7726 184.077 69.422 184.077C69.0714 184.077 68.6624 184.545 68.3118 184.72C67.9612 184.895 67.6106 185.129 67.3185 185.363C67.0263 185.597 66.7341 185.129 66.5588 185.129C66.3835 185.129 65.9745 185.363 65.6239 185.363C65.2733 185.363 64.8059 185.772 64.5137 185.889C64.2215 186.006 63.7541 186.123 63.5788 186.123C63.4035 186.123 63.1113 186.298 62.9945 186.298C62.8776 186.298 62.2348 186.648 61.9427 186.648C61.6505 186.648 61.0078 186.882 60.7156 186.824C60.4234 186.765 59.7807 186.473 59.547 186.298C59.3132 186.123 58.8458 186.123 58.6705 186.123C58.4952 186.123 57.9693 186.473 57.6771 186.648C57.385 186.824 56.6838 186.999 56.5085 186.999C56.3332 186.999 55.632 186.648 55.4567 186.648C55.2814 186.648 54.814 186.473 54.6971 186.473C54.6036 186.473 54.0738 186.59 53.8206 186.648C53.061 186.512 51.5301 186.216 51.4833 186.123C51.4249 186.006 51.1327 185.83 50.9574 185.772C50.8172 185.725 50.7821 185.48 50.7821 185.363C50.7042 185.441 50.525 185.597 50.4315 185.597H49.3798H48.6201C48.5033 185.597 47.8605 185.246 47.8605 185.129C47.8605 185.036 47.432 184.973 47.2178 184.954L47.3346 183.844L46.984 184.077C46.984 183.746 46.949 183.037 46.8087 182.85C46.6334 182.617 46.6334 181.506 46.4581 181.214C46.2828 180.922 46.8087 179.929 46.8087 179.812C46.8087 179.718 46.9256 177.514 46.984 176.423C46.9256 176.228 46.8087 175.815 46.8087 175.722C46.8087 175.605 46.4581 174.144 46.4581 173.793V171.982L46.8087 170.696L47.8605 169.528Z" fill="#FAEBE5"/>
<path d="M54.2296 170.521C53.8206 170.346 53.0026 170.521 52.8273 170.287L51.717 168.943L52.0092 168.301H52.8273H54.2296C54.6387 168.145 55.5385 167.833 55.8657 167.833C56.193 167.833 57.0149 167.716 57.385 167.658L59.7223 167.833H61.8843H62.9945H64.3384L66.3835 168.301C66.2667 168.671 65.9628 169.411 65.6824 169.411H64.3384C63.871 169.411 62.527 170.287 61.8843 170.287C61.2415 170.287 60.1313 170.521 59.3132 170.521C58.4952 170.521 58.0277 171.164 57.2097 171.105C56.3916 171.047 56.3332 170.521 55.8657 170.521C55.3983 170.521 54.6387 170.696 54.2296 170.521Z" fill="black" stroke="black"/>
<path d="M47.7435 193.018C47.7435 192.959 47.8604 192.609 47.9188 192.55L48.8537 193.777L50.0808 194.42C50.6262 194.634 51.7403 195.074 51.8338 195.121C51.9273 195.168 53.1582 195.608 53.762 195.822C54.2879 196.017 55.3631 196.418 55.4566 196.465C55.5734 196.524 57.1511 196.933 57.3848 196.991C57.6186 197.049 59.1378 197.809 59.4884 197.809C59.7689 197.809 61.3582 198.588 62.1179 198.978C62.9554 199.309 64.6538 199.971 64.7473 199.971C64.8408 199.971 66.5392 200.75 67.3768 201.14L70.2399 202.016L73.7459 203.126C75.2067 203.477 78.1634 204.178 78.3036 204.178C78.4789 204.178 79.9981 204.178 80.2319 204.061C80.4188 203.968 81.5563 204.022 82.1017 204.061L85.257 203.594C85.6466 203.516 86.4374 203.36 86.4841 203.36C86.5425 203.36 88.1786 203.009 88.3539 202.893C88.5292 202.776 89.5226 202.659 89.8147 202.542C90.1069 202.425 90.925 202.075 91.0418 201.958C91.1587 201.841 92.3273 201.666 92.3273 201.549C92.3273 201.432 93.3791 200.614 93.6128 200.438C93.7998 200.298 94.0803 200.107 94.1972 200.029L94.6062 198.978L95.3658 199.679V200.438L95.5995 200.964L95.7164 202.075L96.1254 203.126L96.3007 204.353L96.0086 205.405L95.4827 206.866L92.0936 209.028C91.5482 209.281 90.4108 209.788 90.2238 209.788C89.99 209.788 88.2371 210.43 87.9449 210.43C87.6528 210.43 85.0817 211.19 84.7896 211.19C84.4974 211.19 82.277 211.482 82.1601 211.482C82.0433 211.482 77.0765 211.365 76.9596 211.307C76.8428 211.248 75.0314 211.132 74.7977 211.015C74.5639 210.898 72.2851 210.547 72.1098 210.43C71.9695 210.337 70.61 209.885 69.9478 209.671L62.9359 206.924C62.3321 206.671 61.0894 206.141 60.9492 206.048C60.7739 205.931 59.2547 205.347 59.1378 205.288C59.0209 205.23 56.9758 204.353 56.7421 204.237C56.5084 204.12 54.9891 203.652 54.7554 203.535C54.5217 203.419 52.1844 202.659 52.0091 202.542C51.8688 202.449 50.8209 202.075 50.3145 201.899C49.4186 201.412 47.6267 200.427 47.6267 200.38C47.6267 200.322 47.1592 200.029 47.1008 199.971C47.0423 199.913 46.867 199.211 46.867 199.153C46.867 199.095 46.7502 198.276 46.8086 198.218C46.8553 198.171 46.906 197.809 46.9255 197.634L47.2176 197.225L47.2761 194.654C47.315 194.498 47.3929 194.163 47.3929 194.069C47.3929 193.952 47.5682 193.66 47.5682 193.602C47.5682 193.543 47.7435 193.485 47.7435 193.427V193.018Z" fill="#D8CFCE"/>
<path d="M16.4452 19.4746C17.5272 19.0419 19.0419 18.1763 20.3402 17.3108C21.0615 16.7338 23.6725 15.32 24.0187 15.1469C24.4515 14.9306 27.0481 13.6322 27.6973 13.4159C28.3464 13.1995 31.3758 11.4684 32.025 11.0356C32.6741 10.6029 33.3233 8.87178 33.5397 8.43901C33.7128 8.09279 34.1888 6.99644 34.4052 6.49155V4.3277C34.4773 3.75067 34.6649 2.51006 34.838 2.16385C35.0111 1.81763 35.3429 1.73108 35.4871 1.73108L36.569 1.29831L37.4346 1.08192H38.3001L39.382 0.649155L40.8967 0.216385H42.195L44.3589 0H45.6572L47.1719 0.216385L48.6866 0.43277H50.2013L52.3651 1.29831L53.8798 1.73108L54.529 2.16385L55.3945 4.11131L57.9911 8.22262L59.5058 12.3339L62.968 12.9831L66.6465 14.7142L70.9742 16.0125L75.7347 18.6091L78.7641 26.399L82.4426 38.5165L84.1737 46.5227L86.1212 57.1256L88.285 70.7579L88.7178 84.1737V87.4195V95.8585L89.1506 103.432L89.5833 110.789V112.953L89.1506 113.386C88.7178 113.53 87.809 113.818 87.6359 113.818H86.1212H84.3901L81.7935 114.035H79.6296V115.333L80.2788 130.047V133.077L81.5771 142.814L81.1443 144.329L80.2788 145.411C79.6296 145.843 78.288 146.752 78.1149 146.925C77.9418 147.098 74.7249 147.719 73.1381 148.007L66.6465 150.171L61.4533 150.82C59.8665 151.181 56.5197 151.902 55.8273 151.902C54.9618 151.902 52.5815 152.551 52.3651 152.551C52.192 152.551 50.2734 152.84 49.3357 152.984L48.6866 152.551H47.3883H45.2244H42.6278C42.2816 152.551 38.4444 152.119 36.569 151.902H30.2939C28.3464 151.614 24.3649 150.993 24.0187 150.82C23.5859 150.604 20.5566 150.387 20.1238 150.171C19.7776 149.998 18.1042 149.81 17.3108 149.738L16.4452 148.44V138.703V128.316L16.878 110.356L17.5272 100.619L16.878 102.35L15.1469 107.976L14.7142 114.035L14.2814 116.415C14.065 116.559 13.589 116.848 13.4159 116.848H11.252C11.0356 116.848 7.35709 116.631 6.92432 116.631C6.5781 116.631 4.90472 116.343 4.11131 116.199L2.813 115.982L0 114.684C0.43277 111.799 1.29831 105.899 1.29831 105.379C1.29831 104.86 1.73108 101.845 1.94746 100.403L3.24576 94.3438C3.17363 92.0357 3.07265 87.2464 3.24576 86.5539C3.41887 85.8615 4.03917 83.6688 4.32769 82.659V78.3313V74.4364L6.05876 63.6172C7.06856 55.8273 9.17471 39.9879 9.52092 38.9493C9.95369 37.651 10.8192 33.756 11.0356 33.1069C11.252 32.4577 12.1175 27.4809 12.3339 25.9662C12.5503 24.4515 12.9831 22.0713 13.4159 21.6385C13.8486 21.2057 15.3633 19.9074 16.4452 19.4746Z" fill="#30434A"/>
<path d="M43.2769 7.14063C43.6231 7.31374 44.8637 9.0881 45.4408 9.95364L45.008 11.4683L44.1424 13.4158L43.2769 15.3633V17.7435L41.9786 20.3401L40.2475 21.8548L36.569 23.1531L33.3232 23.3695C32.3855 23.2974 30.4236 23.1531 30.0774 23.1531C29.6447 23.1531 27.9136 21.6384 27.4808 21.422C27.048 21.2056 24.0187 19.4746 23.8023 19.2582C23.5859 19.0418 21.8548 17.7435 21.6384 17.7435C21.422 17.7435 19.9073 16.878 19.691 16.6616C19.4746 16.4452 19.0418 15.796 18.8254 15.3633C18.609 14.9305 18.8254 11.9011 18.8254 11.4683V7.14063C19.2582 6.41935 20.167 4.97678 20.3401 4.97678C20.5565 4.97678 22.0712 3.24571 22.504 3.02932C22.8502 2.85621 24.5236 1.80314 25.317 1.29824C26.1104 1.08186 27.7838 0.649088 28.13 0.649088C28.5627 0.649088 30.2938 0.865473 31.1594 1.08186C32.0249 1.29824 34.1887 1.08186 34.4051 1.08186C34.6215 1.08186 35.4871 0.865473 36.1362 0.649088H35.7034C36.0641 0.57696 36.6555 0.47598 36.1362 0.649088H38.3001C38.9492 0.649088 43.7097 0.649163 43.9261 0.86551C44.1424 1.08186 49.5521 1.08186 50.2012 1.08186C50.8504 1.08186 53.2306 0.432666 54.0962 0.649088C54.9617 0.86551 57.9911 -0.216377 58.8566 0.216356C59.7222 0.649088 61.4532 0.865473 62.5352 1.08186C63.6171 1.29824 67.0792 3.02932 67.512 3.02932C67.8582 3.02932 69.9644 4.32763 70.9742 4.97678C71.1184 5.84235 71.4502 7.7033 71.6233 8.22263C71.8397 8.87178 72.2725 11.9012 72.2725 12.3339C72.2725 12.6802 71.8397 14.2093 71.6233 14.9306C71.2627 15.4354 70.4981 16.4884 70.325 16.6616C70.1086 16.878 68.5939 18.1763 68.3776 18.3927L64.9154 21.8548C64.2662 22.2154 62.8814 22.98 62.5352 23.1531C62.1889 23.3262 59.7943 23.8023 58.6402 24.0187L53.6634 22.504L49.9848 20.1238L48.9029 17.7435L49.5521 15.3633C48.8308 15.0748 47.3449 14.4978 47.1718 14.4978C46.9987 14.4978 45.6571 14.065 45.008 13.8486C45.1522 13.1995 45.484 11.8579 45.6571 11.6848C45.8735 11.4683 46.7391 8.43901 46.9555 8.00624C47.1718 7.57347 47.1718 5.84239 48.0374 5.62601C48.9029 5.40962 51.0668 4.97685 51.4995 4.54408C51.8457 4.19787 53.0864 3.38999 53.6634 3.02932C53.7355 2.81296 53.8365 2.38023 53.6634 2.38023H51.0668C50.8504 2.38023 48.4701 1.94746 48.0374 2.38023C47.6912 2.72645 44.8637 2.813 43.4933 2.813H39.8148H37.8673C37.4345 2.74088 36.6123 2.68317 36.7854 3.02939C37.0017 3.46216 40.2475 4.54408 40.4639 4.97685C40.637 5.32307 41.5458 6.27516 41.9786 6.70793L43.2769 7.14063Z" fill="#BEB4B2"/>
<path d="M113.367 42.9696L115.195 29.8654H146.28L147.499 37.4841L148.108 42.9696L149.632 44.4934L150.851 46.6266L152.679 51.1979L153.898 58.8166L155.727 77.1015L156.336 83.806L155.727 101.786V109.71V127.69V135.613L155.117 138.966L153.898 142.013L152.375 145.061L151.46 152.679L150.241 153.289H142.318C141.83 153.289 141.099 152.476 140.794 152.07V149.327V145.67L139.575 145.061L136.832 140.185L135.309 126.166L133.48 105.138L131.652 87.7678L130.737 80.4538V83.806L129.214 92.6437L128.299 100.567L127.69 109.71L126.166 121.9L125.252 129.214L124.642 132.871L123.728 140.185V142.013L122.509 143.842L120.985 145.061V146.889L121.29 150.241L120.985 152.679H119.766C119.055 152.883 117.572 153.289 117.328 153.289H116.109H111.538C110.807 153.289 110.014 152.883 109.71 152.679C109.507 152.171 109.1 151.034 109.1 150.546V147.803V145.061L108.186 144.451C107.78 143.638 106.967 141.891 106.967 141.404C106.967 140.916 106.357 138.559 106.053 137.442V128.604V110.624V92.6437V72.8351C106.256 71.1081 106.662 67.5324 106.662 67.0448C106.662 66.5572 107.069 63.1847 107.272 61.5593C107.678 59.5277 108.491 55.3424 108.491 54.8549C108.491 54.2454 108.795 50.8931 109.1 49.9789C109.344 49.2475 110.421 46.8298 110.929 45.7124L113.367 42.9696Z" fill="#28263C"/>
</svg>
