<svg width="79" height="182" viewBox="0 0 79 182" fill="none" xmlns="http://www.w3.org/2000/svg">
<path d="M32.851 131.222L32.396 131.131L31.759 130.494L32.305 117.481L35.854 117.39L36.491 131.222H32.851Z" fill="#7A432F"/>
<path d="M19.474 12.649L23.569 10.92L49.049 12.376L50.505 12.558L52.78 13.377L55.692 14.742L58.513 16.471L59.241 17.108L61.789 26.299L64.428 35.945C65.0347 38.6144 66.3208 44.2078 66.612 45.227C66.9032 46.2462 67.704 51.5364 68.068 54.054L68.796 62.244L69.433 70.616L69.16 71.071L68.887 82.355L68.614 82.537L68.432 90.363C68.4623 90.4237 67.6676 90.5632 64.246 90.636C60.8244 90.7088 59.969 90.363 59.969 90.181L59.878 83.174L59.696 82.901L59.514 80.08L59.332 75.53L59.241 71.253L57.421 69.706V67.067V60.97V56.42L57.512 52.689V48.139C57.512 46.046 57.5302 41.678 57.603 40.95C57.6758 40.222 57.148 40.1614 56.875 40.222C56.5717 40.5557 55.8012 41.8418 55.146 44.317C54.4908 46.7922 53.5383 48.2604 53.144 48.685C53.326 49.504 53.6536 51.2148 53.508 51.506C53.3624 51.7972 52.9013 52.1734 52.689 52.325V52.78L54.054 55.237C54.3877 57.2087 55.0732 61.2066 55.146 61.425C55.2188 61.6434 56.2077 68.432 56.693 71.799L57.239 76.713L58.24 84.448L58.968 93.184L59.605 100.191L60.424 108.017L61.88 116.48L59.696 119.119C58.5737 120.181 56.0742 122.541 55.055 123.487C54.0358 124.433 50.8083 126.611 49.322 127.582C47.3807 128.522 42.8246 130.694 40.131 131.859C37.4374 133.024 36.6427 132.708 36.582 132.405L34.489 118.209C34.0644 122.911 33.0694 132.332 32.487 132.405C31.759 132.496 29.848 131.859 24.479 129.493C19.11 127.127 15.743 124.852 13.559 123.487C11.8118 122.395 9.85835 119.999 9.10002 118.937V118.209L11.83 101.829L12.376 100.555L12.922 94.185L13.195 91.091L13.2753 90.6362L5.64202 90.727V89.544V88.179L5.55102 87.178L5.46002 85.904L5.27802 84.448L5.09602 82.901H4.73202V82.173L4.27702 71.162H3.82202L4.55002 64.246L5.46002 55.419L6.37002 49.504L7.37102 41.678L8.64502 35.217L10.283 25.844L12.103 21.294L13.741 15.743L19.474 12.649Z" fill="#D16D18"/>
<path d="M36.3999 33.033L38.7659 25.48V24.024L33.8519 25.844L36.3999 33.033Z" fill="#DDD6D0"/>
<path d="M23.569 11.102C23.4962 9.0636 24.57 8.19 25.116 8.008C25.2373 7.735 25.4982 7.098 25.571 6.734C25.662 6.279 26.299 4.732 27.482 3.185C28.4284 1.9474 30.4243 1.03133 31.304 0.728C32.305 0.485333 34.7438 0 36.491 0C38.675 0 39.767 0.455 40.677 0.819C41.587 1.183 43.134 1.729 44.044 2.639C44.954 3.549 45.864 4.641 46.774 5.915C47.502 6.9342 47.9873 8.40233 48.139 9.009L48.23 10.738C48.3816 10.6773 48.7214 10.647 48.867 11.011C49.049 11.466 48.958 12.376 48.867 13.65C48.7942 14.6692 47.8053 16.38 47.32 17.108C46.8043 17.927 45.3908 20.0382 43.862 21.931C41.951 24.297 38.948 25.389 37.31 25.935C35.672 26.481 34.671 26.663 33.397 26.572C32.123 26.481 27.391 21.021 26.299 19.565C25.4254 18.4002 24.297 15.3183 23.842 13.923C23.7813 13.832 23.6418 13.1404 23.569 11.102Z" fill="#BE4733"/>
<path d="M34.307 5.36905H35.581H37.31H37.947H38.766L39.312 6.91605V10.6471L39.494 11.8301L36.855 14.2871H35.854L33.397 14.1051L31.759 12.8311L31.122 10.6471L31.759 10.3741L31.577 9.55505L30.303 3.82205L30.576 3.00305L33.397 3.36705L34.307 5.36905Z" fill="black"/>
<path d="M41.3956 172.88L40.2818 164.032L40.6531 163.97V163.784C40.4262 163.289 39.9601 162.287 39.9106 162.237C39.8611 162.188 39.7249 161.516 39.663 161.186V158.958L39.8487 156.421L40.0962 152.894L39.9724 148.686C39.8074 147.201 39.4774 144.194 39.4774 144.046C39.4774 143.897 39.6012 143.736 39.663 143.674L52.4097 142.932L52.6572 142.87H53.0903H53.3378L54.0185 144.169H54.3897C54.3279 144.087 54.4269 143.922 55.3179 143.922C56.2089 143.922 56.7204 144.541 56.8648 144.85H57.1742C57.3392 144.685 57.793 144.343 58.288 144.293C58.783 144.244 58.948 144.561 58.9686 144.726V145.407L59.0924 149.738L59.4018 149.8V150.295L58.9686 150.357L58.9067 150.666L59.278 151.718L59.7111 153.389C59.9586 153.451 60.0205 153.513 60.0824 153.575C60.1319 153.624 59.9793 153.843 59.8968 153.946L61.1962 156.483H61.6293L61.6912 156.916L61.9387 156.978V157.349L62.9906 158.896L64.29 160.691C64.3932 160.67 64.6613 160.691 64.9088 160.938C65.2182 161.247 65.2182 161.495 65.2182 161.681C65.2182 161.829 64.8057 162.031 64.5994 162.114L66.7651 164.156L67.5076 164.836C67.9201 164.898 68.8442 165.01 69.2402 164.96C69.6362 164.911 69.6527 165.311 69.6114 165.517L70.1064 165.641H72.0246C72.7671 165.414 74.5616 165.071 75.7991 165.517C77.0366 165.962 77.7173 167.023 77.9029 167.497V168.487L78.5836 168.363L78.7073 168.487L78.9548 170.467L77.346 171.395L74.3759 172.571L71.4677 173.499L68.312 174.303L66.9507 174.613C66.7238 174.654 65.5771 174.774 62.805 174.922C60.0329 175.071 58.6799 174.489 58.3498 174.18C55.0828 169.824 51.2546 167.868 49.749 167.435V172.509L48.6352 173.623L43.19 173.375L42.0144 173.19L41.3956 172.88Z" fill="#84573A"/>
<path d="M44.9845 143.674L41.3337 143.798L41.5812 143.922H43.1282H45.0463H46.9027H49.1302L49.3777 143.736H51.1103L51.4815 143.365L50.8009 143.427L50.4296 143.489C50.3471 143.53 50.1698 143.612 50.1202 143.612H49.3777C49.254 143.633 48.9941 143.674 48.9446 143.674H48.2021C48.1526 143.674 47.5627 143.633 47.2739 143.612L46.0983 143.674H44.9845Z" fill="black"/>
<path d="M67.5077 166.136L67.3839 167.992L67.322 170.158V172.076L68.9308 171.89V171.271L69.0546 169.786L69.1783 168.054L69.364 166.383V165.517V164.836H68.3121H67.6933L67.5077 166.136Z" fill="#CCA983"/>
<path d="M37.5592 179.934L38.673 171.086L38.3018 171.024V170.838C38.5286 170.343 38.9948 169.341 39.0443 169.291C39.0938 169.242 39.2299 168.569 39.2918 168.239V166.012L39.1062 163.475L38.8586 159.948L38.9824 155.74C39.1474 154.255 39.4774 151.248 39.4774 151.1C39.4774 150.951 39.3537 150.79 39.2918 150.728L26.5452 149.986L26.2977 149.924H25.8645H25.617L24.9364 151.223H24.5651C24.627 151.141 24.528 150.976 23.637 150.976C22.7459 150.976 22.2344 151.595 22.09 151.904H21.7806C21.6156 151.739 21.1619 151.397 20.6669 151.347C20.1718 151.298 20.0068 151.615 19.9862 151.78V152.461L19.8625 156.792L19.5531 156.854V157.349L19.9862 157.411L20.0481 157.72L19.6768 158.772L19.2437 160.443C18.9962 160.505 18.9343 160.567 18.8724 160.629C18.8229 160.678 18.9756 160.897 19.0581 161L17.7587 163.537H17.3255L17.2636 163.97L17.0161 164.032V164.403L15.9642 165.95L14.6648 167.744C14.5617 167.724 14.2936 167.744 14.046 167.992C13.7367 168.301 13.7367 168.549 13.7367 168.735C13.7367 168.883 14.1492 169.085 14.3554 169.168L12.1897 171.21L11.4472 171.89C11.0347 171.952 10.1107 172.063 9.71467 172.014C9.31865 171.964 9.30215 172.365 9.3434 172.571L8.84839 172.695H6.93021C6.18769 172.468 4.39326 172.125 3.15572 172.571C1.91819 173.016 1.23754 174.077 1.05191 174.551V175.541L0.371265 175.417L0.247513 175.541L3.8147e-06 177.521L1.6088 178.449L4.57889 179.625L7.4871 180.553L10.6428 181.357L12.0041 181.667C12.231 181.708 13.3778 181.828 16.1499 181.976C18.9219 182.125 20.275 181.543 20.605 181.234C23.8721 176.878 27.7002 174.922 29.2059 174.489V179.563L30.3196 180.677L35.7648 180.429L36.9405 180.244L37.5592 179.934Z" fill="#84573A"/>
<path d="M33.9704 150.728L37.6211 150.852L37.3736 150.976H35.8267H33.9085H32.0522H29.8246L29.5771 150.79H27.8446L27.4733 150.419L28.1539 150.481L28.5252 150.543C28.6077 150.584 28.7851 150.666 28.8346 150.666H29.5771C29.7009 150.687 29.9607 150.728 30.0102 150.728H30.7528C30.8023 150.728 31.3922 150.687 31.6809 150.666L32.8566 150.728H33.9704Z" fill="black"/>
<path d="M11.4472 173.19L11.5709 175.046L11.6328 177.212V179.13L10.024 178.944V178.325L9.90026 176.84L9.77651 175.108L9.59088 173.437V172.571V171.89H10.6428H11.2616L11.4472 173.19Z" fill="#CCA983"/>
</svg>
