<svg width="63" height="134" viewBox="0 0 63 134" fill="none" xmlns="http://www.w3.org/2000/svg">
<path d="M54.0891 12.1051C54.0341 9.51897 48.0136 8.13881 45.0103 7.77198C39.5767 7.65735 28.1869 7.44185 26.096 7.49687C24.0052 7.55189 21.0064 8.43685 19.7684 8.87245C19.2869 9.14757 18.1314 9.98667 17.3611 11.1422C16.5908 12.2976 18.2782 13.8245 19.2181 14.4436C20.204 14.9709 23.4824 16.2731 28.7096 17.2635C33.9369 18.2539 41.984 17.401 45.3542 16.8508C48.2887 16.3464 54.1441 14.6912 54.0891 12.1051Z" fill="#D5BE9F"/>
<path d="M27.678 1.3068C27.678 2.2422 27.2883 5.38769 27.1278 6.80912C27.1406 6.69449 27.0209 6.64405 26.7151 6.53401C26.3329 6.39645 26.44 7.42814 26.3712 7.56569C26.3162 7.67574 26.6693 8.16178 26.8527 8.39104L27.1278 8.32226C27.0819 7.88666 27.0177 7.26307 27.1278 8.25348C27.2653 9.49151 26.9215 10.1105 26.7839 10.0417C26.6738 9.98672 26.4629 10.2481 26.3712 10.3856C26.2795 10.5461 26.6463 10.9496 27.1966 11.83C27.8844 12.9305 31.8735 12.5866 34.831 13.068C37.197 13.4532 41.2275 12.6095 43.2909 11.9676C43.5889 11.6007 44.3501 10.9084 44.185 10.5232C44.0199 10.138 43.864 9.76662 43.7035 9.62907L43.9099 8.11593C44.1162 8.00129 44.5702 7.71701 44.7352 7.49691C44.9003 7.27682 44.185 6.46523 43.8411 6.12133C43.7035 4.90624 43.4284 2.29722 43.1533 1.3068C42.8782 0.316384 37.5364 0.0229263 34.8998 0C32.4926 0.0458527 27.678 0.371407 27.678 1.3068Z" fill="#C2A07B"/>
<path d="M34.4184 8.45983C28.916 9.17513 27.2653 7.47399 27.1278 6.53401C27.1049 6.46523 26.9902 6.32767 26.7151 6.32767C26.3712 6.32767 26.3712 7.15302 26.3712 7.5657C26.3712 7.97837 26.6463 7.90959 26.9214 8.59738C27.1415 9.14762 26.9673 9.83541 26.8527 10.1105C26.761 10.0647 26.495 10.0417 26.1649 10.3169C25.8347 10.592 26.2107 11.2568 26.44 11.5549C27.0131 11.9905 28.6959 12.9167 30.8418 13.1368C33.5242 13.4119 35.5188 13.2056 36.2754 13.3431C37.032 13.4807 39.5768 13.068 41.365 12.8617C43.1533 12.6553 43.8411 11.6237 43.9786 11.5549C44.0887 11.4999 44.3455 10.9817 44.4601 10.7295C44.5289 10.569 44.6389 10.1931 44.5289 9.97296C44.4188 9.75287 44.1162 9.83541 43.9786 9.90418V8.32227L44.6664 8.18471C44.7352 8.13886 44.8728 7.90959 44.8728 7.35936C44.8728 6.80913 44.185 6.30475 43.8411 6.12134L43.9099 6.53401C43.9786 6.53401 44.0887 6.6303 43.9786 7.01547C43.8686 7.40063 42.8782 7.81789 42.3967 7.97837C42.2867 8.08842 37.032 8.34519 34.4184 8.45983Z" fill="#DDD6CC"/>
<path d="M9.11148 31.6839L8.20935 21.5951H7.57786L8.38978 32.1343C7.21701 34.056 4.79931 38.0074 4.51063 38.4398C4.22195 38.8722 4.14978 39.761 4.14978 40.1513V46.0965L3.69872 51.9516L2.79659 63.0313L1.53362 75.8225L0.721701 83.7494L0.180425 91.9465L0 102.035L0.180425 102.756V103.747L0.631489 104.467L4.9617 109.152V110.863C5.92396 112.484 8.20935 115.439 9.65275 114.286C11.0962 113.133 12.1186 111.464 12.4493 110.773L12.3591 109.061L12.4493 103.567L16.4187 99.9635V99.1528V96.1802L16.7796 97.2612V100.414L17.3208 107.26C17.3208 107.68 17.393 108.755 17.6817 109.692C17.9704 110.629 19.7866 112.785 20.6587 113.746L20.8391 114.196V115.637H21.0195L21.7412 115.097L22.3727 115.727L22.8238 115.637L24.4476 114.016L24.6281 112.394L26.1617 110.503L26.4323 109.692V105.729L30.8527 101.135V100.594L32.1157 99.1528V98.5223L31.394 94.9191L30.7625 89.1541L30.2212 82.8486L29.8604 77.8042L28.9583 66.0039L28.0561 59.7885L27.3344 46.0965C27.1239 43.5743 26.6308 38.4939 26.3421 38.3497C25.9812 38.1696 24.5378 35.8275 23.8161 34.4763C23.2388 33.3954 23.0343 32.2844 23.0042 31.8641L23.5455 21.7753H22.8238L22.1923 32.6748L19.4859 36.9985C18.4936 38.4999 16.3285 41.4304 15.6068 41.1422C14.7047 40.7819 12.4493 37.3589 11.0962 35.8275C10.0136 34.6025 9.32197 32.5547 9.11148 31.6839Z" fill="#1C2439"/>
<path d="M41.1076 119.567L41.3244 125.313C41.5412 126.975 42.712 130.105 45.6606 129.324C48.6093 128.544 49.0574 126.325 48.9128 125.313L48.696 121.627C48.154 120.001 47.3952 116.402 48.696 115.014C49.9969 113.627 50.1776 108.149 50.1053 105.583C49.7801 103.596 48.2841 99.7507 44.9018 100.271C40.6739 100.922 39.5899 105.908 38.9394 108.185C38.4191 110.006 39.4453 113.786 40.0235 115.448L41.1076 118.592V119.567Z" fill="#CAA782"/>
<path d="M44.7933 107.968C43.2323 108.488 41.3966 113.894 40.6739 116.532L40.6739 117.508L40.1318 115.773L39.1562 112.413L38.9394 111.003C38.6792 110.743 38.7587 109.233 38.831 108.51L39.8066 105.366L40.3487 104.065C40.8184 102.801 41.7765 105.593 44.7933 105.258C46.7446 105.041 48.8044 102.656 49.5632 103.957L50.1053 105.691L49.9968 109.919L49.8884 110.786L49.8905 110.797C49.9869 111.36 49.238 113.715 49.238 113.93C49.238 114.104 48.8044 114.798 48.5876 115.123L48.3707 114.581V112.087C47.8287 110.497 46.3544 107.448 44.7933 107.968Z" fill="#D1BD9C"/>
<path d="M60.3468 124.121L60.13 129.866C59.9132 131.528 58.7424 134.658 55.7937 133.877C52.845 133.097 52.397 130.878 52.5415 129.866L52.7583 126.18C53.3003 124.554 54.0592 120.955 52.7583 119.567C51.4574 118.18 51.2768 112.702 51.349 110.136C51.6742 108.149 53.1703 104.304 56.5525 104.824C60.7804 105.475 61.8645 110.461 62.5149 112.738C63.0353 114.559 62.009 118.339 61.4308 120.001L60.3468 123.145V124.121Z" fill="#CAA782"/>
<path d="M56.661 112.521C58.2221 113.041 60.0578 118.447 60.7805 121.085L60.7805 122.061L61.3225 120.326L62.2982 116.966L62.515 115.556C62.7752 115.296 62.6957 113.786 62.6234 113.063L61.6477 109.919L61.1057 108.618C60.6359 107.354 59.6778 110.146 56.661 109.811C54.7097 109.594 52.65 107.209 51.8911 108.51L51.3491 110.244L51.4575 114.472L51.5659 115.34L51.5639 115.351C51.4675 115.913 52.2163 118.268 52.2163 118.483C52.2163 118.657 52.65 119.351 52.8668 119.676L53.0836 119.134V116.64C53.6256 115.051 55.1 112.001 56.661 112.521Z" fill="#D1BD9C"/>
</svg>
