<svg width="114" height="152" viewBox="0 0 114 152" fill="none" xmlns="http://www.w3.org/2000/svg">
<path d="M107.786 21.1713L106.1 16.0102L103.256 15.3782L100.518 18.2221V26.9645V32.6523L100.307 38.4454L101.466 44.0279V49.3998V54.5609C101.396 55.2983 101.213 56.8361 101.044 57.0889C100.876 57.3417 100.904 60.5648 100.939 62.1447L101.676 64.0406L102.308 65.9366C102.477 67.2005 103.783 67.4463 104.415 67.4112L106.311 67.3059L108.628 67.2005C109.436 67.0601 111.346 66.7371 112.525 66.5686C113.705 66.4 114 66.077 114 65.9366V64.778L113.789 61.8287L112.947 52.5597L112.42 42.6587L111.051 33.0736L108.207 23.2779L107.786 21.1713Z" fill="#8D7C68"/>
<path d="M68.392 67.2005L69.5507 63.83L70.3933 60.7754L71.0253 55.1929V45.5025L71.7626 40.868L72.3946 30.651L74.8172 27.1751L76.9238 19.2754V10.6383L71.5519 9.901C70.3722 10.0695 69.2347 11.4458 68.8133 12.1129L66.0748 16.6421L63.1255 23.1726L61.5456 28.5444L60.2816 35.3909L60.071 38.9721V41.6053L59.2283 47.5038L58.5963 51.2957V53.7183L57.9644 58.2475L57.3324 62.3554C57.0515 63.198 56.5319 65.0729 56.7004 65.8312C56.8689 66.5896 58.6666 66.6388 59.5443 66.5686H61.6509L63.9682 67.0952L65.7588 67.4112L68.392 67.2005Z" fill="#8D7C68"/>
<path d="M77.3453 2.31726L76.8186 7.58376L70.7095 10.217L71.2361 10.533L71.4468 11.481L71.7628 12.7449V14.0089L71.5521 15.3782L71.2361 17.0635L70.9201 19.4861L70.7095 20.434L70.8148 21.9086L71.1308 23.3833L71.9734 25.8059L72.3948 27.2805L71.6575 28.5444L71.1308 30.651L70.9201 31.3883V33.0736V35.9175L70.6042 37.3922L70.3935 38.7615V41.3947L70.0775 42.448L69.8668 43.8173V50.8744L70.0775 52.033V53.7183L69.8668 55.4036C69.8237 56.1152 69.8256 57.4862 70.0092 58.9848C70.1245 59.9264 70.3115 60.9183 70.6042 61.8287C71.3625 64.1881 73.4481 64.8482 74.396 64.8833H80.3998H81.6638L82.2958 65.1993H87.7729H90.7222H92.8288H95.0407H97.042H98.5166H99.6752L99.8859 64.778L100.202 64.3566L101.15 63.83L101.782 63.6193L102.098 62.9874L102.94 61.5127L103.678 60.3541L103.888 58.4582L103.414 56.0882L102.308 52.5597L102.098 50.6637L102.73 48.7678V47.1879V43.6066L102.203 40.3414L101.466 38.1295L101.993 37.1815L101.466 34.3376V31.1777V30.0191L101.361 27.5965L101.677 24.0152L102.73 23.1726C102.94 22.8917 103.383 22.3089 103.467 22.2246C103.551 22.1404 104.064 19.9425 104.31 18.8541L104.942 16.8528L105.784 16.0102L105.995 15.7995L105.363 14.3249L104.942 13.2716L104.099 12.113L103.046 11.0597L102.098 10.217L100.518 9.37437L98.6219 8.63706L96.8313 8.32107C96.073 8.15254 95.9536 7.40821 95.9887 7.05711L95.8834 5.79315L95.6727 3.37056L95.3567 1.68528L94.5141 0H79.0306C77.9351 0 77.4506 1.54484 77.3453 2.31726Z" fill="#A49078"/>
<path d="M80.3996 3.47586L80.189 1.36926L80.8209 1.57992C81.0667 1.72036 81.6425 2.00124 81.9796 2.00124C82.4009 2.00124 82.7169 2.2119 83.1382 2.2119H84.9288H87.7727C88.4047 2.2119 89.5633 2.42256 89.9847 2.42256C90.406 2.42256 91.2486 2.63322 91.4593 2.63322C91.6278 2.63322 92.3019 2.49278 92.6179 2.42256V3.47586L92.4072 4.21317C91.7753 4.38872 90.4692 4.73982 90.3006 4.73982C90.09 4.73982 88.0887 5.26647 87.7727 5.26647H85.7715C85.4555 5.26647 84.2968 5.26647 83.8755 5.05581C83.4542 4.84515 83.2435 4.84515 83.1382 4.73982C83.0329 4.63449 82.1902 4.21317 81.9796 4.21317H81.2423L80.3996 3.47586Z" fill="black"/>
<path d="M13.0609 19.8021L15.3782 19.1701L15.6942 18.5381L16.6421 18.1168L17.1688 18.2222L18.4328 19.2755L19.6967 19.6968L21.382 20.0128L23.2779 20.2234C24.0152 20.2234 25.4899 20.2024 25.4899 20.1181C25.4899 20.0338 26.4027 20.083 26.8592 20.1181L28.0178 19.8021L29.1764 19.4861L30.4404 18.8541L31.915 18.2222L32.3363 18.5381L32.7576 19.0648L33.2843 19.5914L33.9163 19.8021L35.3909 20.2234L36.4442 20.7501L37.1815 21.1714L37.8135 22.014L38.7614 22.7513L40.2361 25.4899L40.868 27.8072L41.184 29.4925L41.5 31.1777L42.2373 35.075L42.764 38.3402L43.396 41.7107L43.712 43.5014L44.4493 46.5559L44.7653 48.4519L44.9759 51.2958L45.6079 55.509L46.0292 58.4582L46.4505 61.0915L47.0825 64.0407L47.6092 66.7793L47.8198 69.2019L48.2411 71.7298V73.4151L48.1358 73.7311L47.9252 73.8364L47.3985 74.0471L44.5546 74.3631L43.1853 74.7844L40.3414 74.995L40.1307 74.1524L39.9201 73.4151L39.8147 72.5724L39.6041 71.9405C39.569 71.7649 39.4777 71.3927 39.3934 71.3085C39.3092 71.2242 39.2881 70.6414 39.2881 70.3605L39.0774 69.3072L38.8668 68.8859L38.6561 69.0965L38.8668 70.1499L38.7614 71.3085V71.9405L38.6561 72.4671H38.0241L36.8655 72.3618C36.4793 72.2916 35.6858 72.1511 35.6015 72.1511C35.4962 72.1511 34.3376 71.9405 34.2323 71.9405H33.0736L31.599 71.8351L30.7564 71.6245L30.335 71.2032L29.7031 70.8872L28.8604 70.7818H24.5419C23.6641 70.8521 21.8876 70.9925 21.8033 70.9925H19.3807L15.1675 71.0978H13.6929L12.0076 71.4138C11.5512 71.6245 10.5962 72.0247 10.4277 71.9405C10.2591 71.8562 10.217 71.5543 10.217 71.4138V69.9392V68.7806V67.5166V66.1473V65.1993L10.0064 65.726L9.90102 66.8846L9.58503 68.4646L9.05838 69.6232L8.63706 70.9925L8.21574 72.3618C8.0753 72.9587 7.81549 74.2577 7.89975 74.679C7.98402 75.1004 7.16244 74.995 6.74112 74.8897L4.84518 74.4684L3.05457 74.2577L1.47462 73.9417H0.21066L0 73.5204L0.42132 69.9392L1.0533 65.1993L1.47462 61.0915L2.21193 56.8783L2.63325 53.4024L3.47589 48.7679L3.79188 45.8186L4.95051 39.2882L5.89848 34.443L6.42513 31.0724C6.56557 30.4755 6.84645 29.2397 6.84645 29.0711C6.84645 28.9026 6.98689 28.2285 7.05711 27.9125L7.89975 25.9112L8.74239 23.91L9.90102 22.014L10.9543 20.5394L13.0609 19.8021Z" fill="#D9D9D9"/>
<path d="M20.0127 21.8033C19.9074 21.698 19.3807 21.8033 19.2754 21.8033L19.5914 22.3299C20.0829 22.6108 21.0871 23.1726 21.1713 23.1726C21.2767 23.1726 22.8566 23.6992 23.0673 23.8045C23.2779 23.9099 25.0685 23.8045 25.1739 23.8045C25.2792 23.8045 27.1751 23.6992 27.2805 23.5939C27.3858 23.4886 28.6498 23.0672 28.8604 22.9619C29.0711 22.8566 30.0191 22.0139 30.0191 21.9086C30.0191 21.8243 30.2999 21.3117 30.4404 21.066C30.3702 20.9255 30.1876 20.6657 30.0191 20.75L28.7551 21.382C28.5444 21.4873 27.2805 21.9086 27.0698 21.9086C26.8592 21.9086 24.5419 22.0139 24.3312 22.0139C24.1206 22.0139 22.1193 22.2246 21.9086 22.2246C21.698 22.2246 20.118 21.9086 20.0127 21.8033Z" fill="black"/>
<path d="M74.2576 72.467H68.6751H67.5164L66.6738 76.9962L66.2525 80.8934L66.0418 87.4239L65.7258 92.6904L65.5152 95.8503L65.3045 98.9049L64.7779 105.014L64.5672 108.069L64.0405 114.494L63.7246 117.232L63.5139 121.761L62.9872 125.659L62.5659 130.504L62.0393 135.244L61.7233 139.984L61.4073 144.091L61.0913 148.094V149.885L63.3032 150.306L65.0938 150.622L67.3058 150.938C67.5867 151.043 68.8436 151.254 71.6243 151.254C74.405 151.254 75.662 150.903 75.9428 150.727V150.095L76.2588 148.621L76.4695 146.725L76.7855 144.829L76.9961 142.827L77.2068 140.826L77.4175 139.141L77.6281 136.297L77.7335 133.769L78.0494 130.82L78.2601 128.397V125.975V122.709L78.4708 120.076V118.286L78.6814 117.127V111.755L78.8921 110.491L78.9974 107.437L79.2081 105.014V101.222L79.4187 97.1143L79.7347 96.5876L80.8934 97.6409L80.9987 103.118L81.104 107.121L81.3147 110.912V116.495L81.5253 121.235L81.736 126.396L81.9467 130.083L82.052 133.242L82.2626 135.244L82.5786 137.456L82.684 139.984L82.8946 142.196L83.1053 143.775L83.4213 145.671L83.5266 147.146L83.7373 148.831L83.9479 150.306L84.1586 151.149L88.4771 151.043L91.7423 150.833L95.8502 150.201L99.6421 149.463V147.778L99.4314 145.145L98.7995 138.825L98.1675 133.137L97.7462 126.396L97.2195 120.392L96.7982 115.126L96.5875 112.598L96.0609 105.857L95.8502 101.222L95.0076 94.9023L94.5863 91.0051L94.0596 86.7919L93.4276 83.2107L93.0063 80.0508L92.585 78.2602L92.269 75.6269L91.953 72.5724C91.0401 72.5373 89.1302 72.467 88.7931 72.467H84.4746C84.0533 72.467 79.5241 72.5724 78.9974 72.5724C78.4708 72.5724 74.4682 72.467 74.2576 72.467Z" fill="#414244"/>
<path d="M77.1016 73.7311C77.0174 73.7311 73.7662 73.0991 72.1511 72.7831C72.8884 72.8182 74.4052 72.8884 74.5737 72.8884H77.3123H80.3669C80.6829 72.8884 83.7374 72.9937 84.0534 72.9937C84.3062 72.9937 85.9845 72.9235 86.792 72.8884H88.7933L87.9506 73.0991C87.0378 73.2746 85.1699 73.6468 85.0014 73.7311C84.7907 73.8364 83.3161 73.7311 83.2108 73.7311H80.8935H80.0509L79.7349 73.8364C78.8922 73.8013 77.1859 73.7311 77.1016 73.7311Z" fill="black"/>
<path d="M41.0788 119.339H40.7628L40.0255 119.444C39.9553 119.374 39.8148 119.212 39.8148 119.128C39.8148 119.044 39.534 118.602 39.3935 118.391C39.2531 118.356 38.9722 118.307 38.9722 118.391C38.9722 118.496 38.3402 118.602 38.2349 118.602C38.1296 118.602 38.0242 118.496 37.9189 118.496C37.8346 118.496 37.8136 118.286 37.8136 118.18C37.7433 118.145 37.5818 118.075 37.4976 118.075C37.4133 118.075 37.0411 118.215 36.8656 118.286C36.5496 118.426 35.8966 118.707 35.8123 118.707C35.728 118.707 35.2856 118.988 35.075 119.128C34.7239 119.374 34.0006 119.866 33.9164 119.866C33.8321 119.866 33.3897 120.287 33.179 120.497L32.5471 120.919C31.88 121.445 30.5037 122.52 30.3351 122.604C30.1666 122.688 29.6329 123.061 29.3872 123.236C28.9658 123.447 28.1021 123.868 28.0179 123.868C27.9336 123.868 27.0699 124.36 26.6486 124.605L25.8059 125.132L25.2793 126.08V126.712C25.3144 126.993 25.3846 127.576 25.3846 127.66C25.3846 127.744 25.6655 128.467 25.8059 128.819L26.4379 129.977C27.6317 130.153 30.0613 130.525 30.2298 130.609C30.3983 130.693 32.6173 130.504 33.7057 130.399L36.3389 129.872L38.5509 129.029C39.0073 128.854 39.9412 128.503 40.0255 128.503C40.1308 128.503 42.3428 127.765 42.4481 127.765C42.5324 127.765 44.1685 127.203 44.976 126.923L46.1346 126.607L46.4506 124.816L46.6613 123.341V121.867L46.556 121.34V119.971C46.5209 119.62 46.4506 118.896 46.4506 118.812C46.4506 118.728 46.3102 118.356 46.24 118.18C46.2049 118.145 46.1346 118.054 46.1346 117.97C46.1346 117.864 46.24 117.443 46.3453 117.338C46.4506 117.232 46.3453 116.811 46.3453 116.706C46.3453 116.621 46.2049 116.39 46.1346 116.284L45.608 116.179H44.976C44.9058 116.284 44.7654 116.516 44.7654 116.6V117.127C44.7654 117.211 44.8356 117.373 44.8707 117.443L44.976 117.759L44.7654 117.864L42.8694 118.918L42.0268 119.234L41.0788 119.339Z" fill="#D0CABC"/>
<path d="M25.8057 125.027C25.7215 125.111 25.3493 126.045 25.1738 126.501L24.9631 126.712L24.7524 126.607L24.5418 126.501L24.2258 125.764L24.1205 125.343L24.0151 124.711V124.289V123.025L24.2258 122.815L25.0684 122.393L26.0164 121.972L26.859 121.551L27.5964 121.129L28.3337 120.392L29.071 119.76L29.703 119.339L30.3349 118.918L31.1776 118.286L31.8096 117.654L32.3362 117.338C32.582 117.197 33.0946 116.916 33.1788 116.916H33.8108L34.2321 116.811L34.5481 116.916C34.6886 117.092 35.0116 117.464 35.1801 117.548C35.3908 117.654 35.6014 117.97 35.7068 118.075C35.791 118.159 36.1632 118.11 36.3387 118.075C36.5845 118.005 37.0971 117.864 37.1814 117.864C37.2867 117.864 37.6027 117.654 37.708 117.548C37.8134 117.443 38.2347 117.232 38.34 117.232C38.4453 117.232 38.8667 116.811 38.972 116.811C39.0773 116.811 39.1827 116.6 39.1827 116.495V115.652C39.1827 115.568 39.3933 115.547 39.4986 115.547L40.0253 115.442C40.0604 115.617 40.1306 115.989 40.1306 116.074C40.1306 116.179 40.3413 117.127 40.3413 117.232C40.3413 117.338 40.7626 118.391 40.7626 118.496C40.7626 118.58 40.6924 119.093 40.6573 119.339L40.1306 119.444C40.0253 119.339 39.7936 119.128 39.7093 119.128C39.625 119.128 39.3231 118.637 39.1827 118.391C39.0071 118.461 38.6349 118.602 38.5507 118.602C38.4453 118.602 38.024 118.707 37.9187 118.602C37.8134 118.496 37.708 118.286 37.6027 118.18C37.5184 118.096 37.2165 118.215 37.0761 118.286L35.7068 118.812C35.4961 118.918 34.9695 119.128 34.8641 119.234C34.7588 119.339 34.0215 119.866 33.8108 119.971C33.6002 120.076 32.9682 120.708 32.6522 120.813C32.3362 120.919 32.0202 121.445 31.8096 121.656C31.5989 121.867 30.7563 122.499 30.5456 122.604C30.3349 122.709 29.5976 123.341 29.2816 123.447C28.9656 123.552 27.491 124.184 27.175 124.289C26.859 124.395 25.9111 124.921 25.8057 125.027Z" fill="#A49888" stroke="black"/>
<path d="M41.2893 120.392C41.205 120.392 40.6924 120.041 40.4466 119.866L40.6384 119.777C40.6446 119.771 40.6509 119.766 40.6573 119.76C40.817 119.619 41.6053 119.76 41.7106 119.76C41.8159 119.76 42.9746 119.444 43.0799 119.339C43.1852 119.234 44.0279 118.707 44.2385 118.496C44.4071 118.328 44.8003 118.286 44.9758 118.286C45.1163 118.356 45.3972 118.517 45.3972 118.602C45.3972 118.707 44.8705 119.444 44.7652 119.55C44.6809 119.634 44.0981 120.146 43.8172 120.392C43.3608 120.427 42.4268 120.498 42.3426 120.498C42.2373 120.498 41.3946 120.392 41.2893 120.392Z" fill="black"/>
<path d="M39.0774 117.338C38.972 117.443 38.656 117.654 38.5507 117.759C38.4454 117.864 38.1294 118.075 37.9187 118.18C37.8836 118.18 37.8555 118.243 38.0241 118.496C38.2347 118.812 38.34 118.496 38.4454 118.391C38.5507 118.286 38.8667 118.18 38.8667 118.075C38.8667 117.97 39.288 117.97 39.3933 117.864C39.4987 117.759 39.4987 117.654 39.604 117.548C39.7093 117.443 39.604 117.443 39.4987 117.127C39.3933 116.811 39.1827 117.232 39.0774 117.338Z" fill="black"/>
</svg>
